<?xml version="1.0" encoding="utf-8"?>
<!-- Generator: Adobe Illustrator 15.0.0, SVG Export Plug-In . SVG Version: 6.00 Build 0)  -->
<!DOCTYPE svg PUBLIC "-//W3C//DTD SVG 1.1//EN" "http://www.w3.org/Graphics/SVG/1.1/DTD/svg11.dtd">
<svg version="1.1" id="Layer_1" xmlns="http://www.w3.org/2000/svg" xmlns:xlink="http://www.w3.org/1999/xlink" x="0px" y="0px"
	 width="234px" height="279.333px" viewBox="0 0 234 279.333" enable-background="new 0 0 234 279.333" xml:space="preserve">
<polygon fill="#808080" points="42.224,243.911 120.515,213.679 120.515,105.16 42.224,135.389 "/>
<polygon fill="#999999" points="198.807,243.911 120.515,213.679 120.515,105.16 198.807,135.389 "/>
<polygon fill="#D9D9D9" points="198.807,135.652 120.515,105.422 150.745,69.452 229.036,99.682 "/>
<polygon fill="#ECECEC" points="42.224,135.389 120.515,105.16 84.239,111.511 5.949,141.741 "/>
<path fill="#F8B133" d="M182.719,122.467c-2.046,0.907-4.245,1.521-6.555,1.796c2.357-1.412,4.167-3.648,5.02-6.313
	c-2.207,1.307-4.647,2.257-7.248,2.769c-2.081-2.218-5.048-3.604-8.329-3.604c-6.303,0-11.412,5.11-11.412,11.411
	c0,0.896,0.101,1.765,0.296,2.601c-9.483-0.475-17.895-5.019-23.521-11.923c-0.982,1.685-1.546,3.646-1.546,5.737
	c0,3.959,2.016,7.451,5.077,9.498c-1.87-0.059-3.631-0.571-5.169-1.426c-0.001,0.046-0.001,0.094-0.001,0.143
	c0,5.53,3.935,10.141,9.153,11.19c-0.955,0.261-1.965,0.4-3.006,0.4c-0.735,0-1.449-0.072-2.147-0.204
	c1.452,4.532,5.669,7.833,10.662,7.924c-3.907,3.061-8.826,4.886-14.174,4.886c-0.921,0-1.828-0.055-2.722-0.161
	c5.05,3.239,11.046,5.128,17.493,5.128c20.99,0,32.469-17.389,32.469-32.469c0-0.493-0.012-0.986-0.034-1.476
	C179.255,126.765,181.188,124.755,182.719,122.467z"/>
<circle fill="#FFFFFF" cx="84.385" cy="134.702" r="21.992"/>
<path fill="#8C5889" d="M74.262,106.727c-14.517,6.796-20.774,24.072-13.979,38.587c6.794,14.516,24.069,20.774,38.585,13.978
	c14.517-6.793,20.775-24.068,13.98-38.584C106.054,106.19,88.778,99.932,74.262,106.727z M85.232,146.914l-5.324,2.492
	l-8.017-17.127l5.324-2.492L85.232,146.914z M73.534,128.948c-1.681,0.788-3.324,0.105-4.012-1.366
	c-0.705-1.506-0.125-3.187,1.589-3.99c1.716-0.803,3.309-0.139,4.048,1.352C75.849,126.414,75.32,128.112,73.534,128.948z
	 M104.667,137.815l-5.323,2.493l-4.443-9.492c-1.032-2.207-2.509-3.351-4.435-2.45c-1.47,0.689-1.87,2.114-1.796,3.274
	c0.023,0.415,0.217,0.924,0.446,1.414l4.624,9.876l-5.322,2.491l-5.46-11.663c-1-2.137-1.905-3.89-2.697-5.398l4.622-2.163
	l1.36,2.266l0.106-0.048c0.174-1.449,1.12-3.898,3.993-5.243c3.502-1.64,7.227-0.522,9.587,4.521L104.667,137.815z"/>
<g>
	<path opacity="0.47" fill="#8C5889" d="M99.274,35.328c0,2.502,0.917,4.789,2.433,6.546V28.782
		C100.191,30.539,99.274,32.825,99.274,35.328z"/>
	<path opacity="0.47" fill="#8C5889" d="M103.758,26.969v16.717c0.764,0.508,1.604,0.915,2.497,1.2V25.769
		C105.362,26.053,104.522,26.46,103.758,26.969z"/>
	<path opacity="0.47" fill="#8C5889" d="M119.338,35.328c0-2.259-0.747-4.343-2.007-6.02v12.04
		C118.591,39.671,119.338,37.586,119.338,35.328z"/>
	<path opacity="0.47" fill="#8C5889" d="M115.369,43.319V27.337c-0.754-0.575-1.594-1.043-2.496-1.386v18.754
		C113.775,44.362,114.615,43.893,115.369,43.319z"/>
	<path opacity="0.47" fill="#8C5889" d="M110.555,25.376c-0.41-0.052-0.825-0.081-1.249-0.081c-0.423,0-0.838,0.029-1.249,0.081
		V45.28c0.41,0.05,0.826,0.08,1.249,0.08c0.424,0,0.839-0.029,1.249-0.08V25.376z"/>
	<path fill="#8C5889" d="M109.449,21.573c-7.602,0-13.766,6.164-13.766,13.767s6.164,13.766,13.766,13.766
		c7.603,0,13.767-6.163,13.767-13.766S117.052,21.573,109.449,21.573z M109.449,47.5c-6.716,0-12.16-5.445-12.16-12.161
		s5.444-12.162,12.16-12.162c6.717,0,12.162,5.446,12.162,12.162S116.166,47.5,109.449,47.5z"/>
	<path fill="#8C5889" d="M109.449,18.184c-9.474,0-17.155,7.682-17.155,17.155c0,9.474,7.681,17.155,17.155,17.155
		c9.476,0,17.157-7.681,17.157-17.155C126.606,25.866,118.925,18.184,109.449,18.184z M109.449,50.889
		c-8.587,0-15.55-6.961-15.55-15.549s6.963-15.55,15.55-15.55c8.588,0,15.55,6.962,15.55,15.55S118.038,50.889,109.449,50.889z"/>
	<path fill="#8C5889" d="M109.449,14.795c-11.345,0-20.543,9.198-20.543,20.544c0,11.346,9.198,20.544,20.543,20.544
		s20.544-9.198,20.544-20.544C129.994,23.993,120.794,14.795,109.449,14.795z M109.449,54.189c-10.41,0-18.849-8.439-18.849-18.85
		c0-10.41,8.439-18.85,18.849-18.85c10.411,0,18.849,8.44,18.849,18.85C128.298,45.75,119.86,54.189,109.449,54.189z"/>
	<polygon opacity="0.47" fill="#8C5889" points="109.46,12.614 112.003,12.677 112.662,6.338 109.326,6.256 	"/>
	<polygon opacity="0.47" fill="#8C5889" points="114.254,13.125 116.743,13.652 118.551,7.541 115.285,6.849 	"/>
	<polygon opacity="0.47" fill="#8C5889" points="118.678,14.537 120.957,15.668 124.232,10.202 121.243,8.717 	"/>
	<polygon opacity="0.47" fill="#8C5889" points="122.847,16.955 124.891,18.471 129.081,13.67 126.399,11.68 	"/>
	<polygon opacity="0.47" fill="#8C5889" points="126.345,20.148 128.019,22.064 133.132,18.262 130.936,15.749 	"/>
	<polygon opacity="0.47" fill="#8C5889" points="129.089,23.908 130.296,26.147 136.127,23.577 134.544,20.639 	"/>
	<polygon opacity="0.47" fill="#8C5889" points="131.076,28.19 131.721,30.649 137.994,29.521 137.147,26.293 	"/>
	<polygon opacity="0.47" fill="#8C5889" points="132.086,32.859 132.234,35.398 138.606,35.53 138.412,32.199 	"/>
	<polygon opacity="0.47" fill="#8C5889" points="132.035,37.738 131.793,40.271 138.072,41.371 138.387,38.048 	"/>
	<polygon opacity="0.47" fill="#8C5889" points="131.148,42.257 130.269,44.644 136.056,47.313 137.211,44.181 	"/>
	<polygon opacity="0.47" fill="#8C5889" points="129.11,46.745 127.874,48.969 133.182,52.495 134.804,49.577 	"/>
	<polygon opacity="0.47" fill="#8C5889" points="126.372,50.499 124.604,52.328 128.824,57.104 131.144,54.704 	"/>
	<polygon opacity="0.47" fill="#8C5889" points="122.886,53.691 120.792,55.136 123.991,60.649 126.736,58.752 	"/>
	<polygon opacity="0.47" fill="#8C5889" points="118.936,56.052 116.547,56.928 118.261,63.066 121.397,61.917 	"/>
	<polygon opacity="0.47" fill="#8C5889" points="114.418,57.551 111.901,57.924 112.333,64.282 115.635,63.794 	"/>
	<polygon opacity="0.47" fill="#8C5889" points="109.474,58.067 106.931,58 106.266,64.34 109.603,64.425 	"/>
	<polygon opacity="0.47" fill="#8C5889" points="104.774,57.583 102.31,56.951 100.244,62.979 103.478,63.81 	"/>
	<polygon opacity="0.47" fill="#8C5889" points="100.244,56.156 97.945,55.068 94.773,60.596 97.79,62.023 	"/>
	<polygon opacity="0.47" fill="#8C5889" points="96.114,53.777 94.093,52.232 89.835,56.973 92.485,59 	"/>
	<polygon opacity="0.47" fill="#8C5889" points="92.554,50.518 90.862,48.618 85.784,52.467 88.003,54.96 	"/>
	<polygon opacity="0.47" fill="#8C5889" points="89.788,46.84 88.62,44.58 82.746,47.053 84.278,50.017 	"/>
	<polygon opacity="0.47" fill="#8C5889" points="87.803,42.482 87.175,40.016 80.894,41.099 81.718,44.333 	"/>
	<polygon opacity="0.47" fill="#8C5889" points="86.779,37.895 86.699,35.353 80.333,35.052 80.439,38.388 	"/>
	<polygon opacity="0.47" fill="#8C5889" points="86.848,32.968 87.199,30.449 80.975,29.076 80.516,32.382 	"/>
	<polygon opacity="0.47" fill="#8C5889" points="87.798,28.38 88.66,25.987 82.854,23.36 81.722,26.5 	"/>
	<polygon opacity="0.47" fill="#8C5889" points="89.756,24.036 91.108,21.879 85.993,18.079 84.22,20.906 	"/>
	<polygon opacity="0.47" fill="#8C5889" points="92.515,20.181 94.267,18.336 90.01,13.595 87.71,16.013 	"/>
	<polygon opacity="0.47" fill="#8C5889" points="96.065,16.945 98.156,15.497 94.953,9.988 92.209,11.888 	"/>
	<polygon opacity="0.47" fill="#8C5889" points="100.176,14.589 102.549,13.676 100.738,7.566 97.624,8.765 	"/>
	<polygon opacity="0.47" fill="#8C5889" points="104.626,13.108 107.134,12.689 106.586,6.34 103.294,6.888 	"/>
</g>
<polygon fill="#E6E6E6" points="111.255,84.675 107.189,80.491 100.086,81.3 102.706,86.892 "/>
<polygon fill="#CABA9F" points="58.405,63.249 54.341,60.564 52.074,63.249 55.24,66.859 "/>
<polygon fill="#E6E6E6" points="204.375,35.282 201.957,30.655 197.725,35.282 "/>
<polygon fill="#E6E6E6" points="144.361,64.228 139.672,59.64 135.091,63.459 137.672,67.981 "/>
<polygon fill="#E6E6E6" points="44.162,111.277 37.311,107.497 34.287,111.277 36.705,115.357 "/>
<polygon fill="#E6E6E6" points="8.77,81.859 3.933,79.907 3.127,83.164 5.948,85.648 "/>
<polygon fill="#E6E6E6" points="226.624,83.748 224.206,81.417 221.182,83.748 222.189,85.965 "/>
<polygon fill="#E6E6E6" points="175.472,21.477 170.783,18.35 169.83,22.261 170.783,24.688 "/>
<polygon fill="#E6E6E6" points="41.584,41.874 39.225,41.874 39.225,43.392 41.584,44.702 "/>
<polygon fill="#B1B1B1" points="120.515,274.569 198.807,244.339 198.807,135.819 120.515,166.049 "/>
<polygon fill="#C6C6C5" points="132.607,213.679 210.897,183.452 198.807,135.389 120.515,165.618 "/>
<path fill="#D099C4" d="M183.109,31.015l-19.887,0.124l4.781,14.315l20.05-0.505L183.109,31.015z M178.259,80.405
	c-0.257-0.157-0.457-0.4-0.561-0.701l-3.913-11.522l-12.046,1.723c-0.313,0.043-0.622-0.027-0.877-0.183
	c-0.214-0.133-0.392-0.324-0.504-0.562l-3.537-7.494l-1.4,2.28l9.337,18.94l21.112-0.242l1.399-2.28l-8.284,0.235
	C178.725,80.607,178.474,80.536,178.259,80.405z M211.601,60.849l-8.883-17.793l-14.665,1.893l8.617,18.11L211.601,60.849z
	 M176.836,63.215l4.358,12.837l19.922-0.566l-4.446-12.427L176.836,63.215z M163.417,65.133l13.419-1.918l-8.833-17.761
	l-13.095,1.657L163.417,65.133z"/>
<path fill="#E84E1B" d="M78.214,59.523c0.152-1.063-1.195-6.558-4.59-11.292c0,0-4.661,1.717-10.673,8.496
	c-1.625-0.042-4.25,0.389-6.821,1.029c-2.573,0.639-5.094,1.489-6.51,2.287c-8.488-3.172-13.409-2.504-13.409-2.504
	c-0.781,5.774,0.603,11.258,1.235,12.127c-1.792,3.275-2.495,6.849-1.406,11.222c4.729,19.01,20.576,15.392,24.557,14.401
	c0.9-0.225,2.693-0.668,4.587-1.136c1.892-0.474,3.684-0.922,4.583-1.146c3.981-0.991,19.677-5.218,14.947-24.23
	C83.626,64.405,81.332,61.577,78.214,59.523z M64.675,91.793l-0.149,0.037c-9.979,2.482-18.043,3.224-20.456-6.473
	c-0.578-2.321-0.295-4.682,1.206-6.956c2.507-3.79,8.396-3.578,14.634-5.13c0.023-0.006,0.048-0.013,0.073-0.021
	c0.026-0.005,0.052-0.01,0.076-0.016c6.237-1.552,11.34-4.499,15.331-2.325c2.391,1.305,3.748,3.258,4.325,5.58
	C82.126,86.187,74.653,89.31,64.675,91.793z"/>
<polygon fill="#D9D9D9" points="120.515,274.569 42.224,244.339 42.224,135.819 120.515,166.049 "/>
<g>
	<polygon fill="#ECECEC" points="87.468,248.762 87.468,218.576 108.565,226.723 108.565,256.909 	"/>
	<path fill="#9C9B9B" d="M88.968,220.763l18.097,6.989v26.97l-18.097-6.989V220.763 M85.968,216.388v33.402l24.097,9.306v-33.401
		L85.968,216.388L85.968,216.388z"/>
</g>
<polygon fill="#ECECEC" points="90.285,208.064 11.994,177.834 42.224,135.819 120.515,166.049 "/>
<ellipse transform="matrix(-0.2414 -0.9704 0.9704 -0.2414 10.5962 167.5863)" fill="#E84E1B" cx="70.803" cy="79.651" rx="4.906" ry="3.545"/>
<ellipse transform="matrix(-0.2415 -0.9704 0.9704 -0.2415 -14.3378 156.4657)" fill="#E84E1B" cx="53.982" cy="83.836" rx="4.905" ry="3.543"/>
</svg>
