<?xml version="1.0" encoding="utf-8"?>
<!-- Generator: Adobe Illustrator 15.0.0, SVG Export Plug-In . SVG Version: 6.00 Build 0)  -->
<!DOCTYPE svg PUBLIC "-//W3C//DTD SVG 1.1//EN" "http://www.w3.org/Graphics/SVG/1.1/DTD/svg11.dtd">
<svg version="1.1" id="Layer_1" xmlns="http://www.w3.org/2000/svg" xmlns:xlink="http://www.w3.org/1999/xlink" x="0px" y="0px"
	 width="679.667px" height="231.667px" viewBox="0 0 679.667 231.667" enable-background="new 0 0 679.667 231.667"
	 xml:space="preserve">
<polygon fill="#D9D9D9" points="423.367,223.685 408.545,223.685 408.646,131.078 431.271,134.172 "/>
<polygon fill="#D9D9D9" points="232.618,223.685 217.797,223.685 217.896,131.078 240.521,134.172 "/>
<polygon fill="#D9D9D9" points="328.126,223.685 313.305,223.685 313.404,131.078 336.029,134.172 "/>
<polygon fill="#D9D9D9" points="362.904,223.685 348.082,223.685 340.178,136.74 363.328,131.078 "/>
<path fill="none" stroke="#C6C6C5" stroke-width="2" stroke-miterlimit="10" stroke-dasharray="5" d="M568.639,51.729
	c0,0,45.844,133.227-66.037,146.928c-108.596,13.298-263.646-46.744-385.396-37.018"/>
<path fill="#F8B133" d="M90.067,26.308L65.381,129.661c3.555,2.376,7.084,4.813,10.334,7.548l26.618-111.438
	C98.299,25.54,94.195,25.709,90.067,26.308z"/>
<path fill="#6F6F6E" d="M138.252,188.897c3.227-0.722,5.362-3.561,4.746-6.312c-0.614-2.75-3.754-4.411-6.982-3.688L102.91,186.3
	c-3.225,0.721-5.36,3.562-4.746,6.311c0.615,2.751,3.758,4.411,6.982,3.689c-3.225,0.722-5.361,3.561-4.746,6.312
	c0.613,2.748,3.757,4.411,6.983,3.69l6.513-1.458c0.004,0.016,0.002,0.029,0.005,0.045c1.241,5.549,6.745,9.04,12.292,7.801
	c5.547-1.241,9.038-6.745,7.799-12.291c-0.005-0.018-0.01-0.029-0.013-0.044l6.509-1.455c3.228-0.723,5.361-3.565,4.746-6.312
	C144.619,189.835,141.479,188.176,138.252,188.897z"/>
<path fill="#F8B133" d="M137.198,134.854c3.452-22.384,26.739-37.641,21.464-61.232c-4.898-21.906-20.953-38.423-40.845-44.931
	L88.132,152.979c6.299,12.387,7.601,24.683,7.601,24.683l22.225-4.969l22.223-4.97C140.18,167.724,134.604,151.693,137.198,134.854z
	"/>
<path fill="#F7C57C" d="M85.412,27.145c-33.066,7.393-53.873,40.188-46.48,73.25c3.251,14.541,14.971,21.597,26.449,29.267
	L90.067,26.308C88.517,26.532,86.965,26.797,85.412,27.145z"/>
<path fill="#F7C57C" d="M102.333,25.771L75.715,137.209c3.281,2.761,6.277,5.824,8.717,9.444c1.395,2.07,2.619,4.199,3.7,6.326
	l29.686-124.289C112.856,27.068,107.658,26.076,102.333,25.771z"/>
<path fill="#F8B133" d="M20.071,7.924L14.923,29.48c0.742,0.496,1.478,1.005,2.156,1.576l5.552-23.246
	C21.789,7.762,20.933,7.799,20.071,7.924z"/>
<path fill="#F8B133" d="M29.908,30.563c0.721-4.671,5.58-7.854,4.479-12.775c-1.021-4.571-4.375-8.006-8.525-9.365l-6.192,25.925
	c1.313,2.583,1.587,5.148,1.587,5.148l4.637-1.038l4.639-1.037C30.531,37.421,29.367,34.077,29.908,30.563z"/>
<path fill="#F7C57C" d="M19.104,8.09c-6.9,1.542-11.242,8.386-9.699,15.283c0.678,3.034,3.124,4.507,5.519,6.107l5.148-21.557
	C19.749,7.971,19.427,8.018,19.104,8.09z"/>
<path fill="#F7C57C" d="M22.631,7.811l-5.552,23.246c0.685,0.576,1.311,1.215,1.819,1.97c0.292,0.433,0.544,0.877,0.771,1.322
	l6.192-25.925C24.826,8.084,23.743,7.874,22.631,7.811z"/>
<path fill="#FFFFFF" d="M128.039,67.895c-2.012-9-10.939-14.662-19.939-12.649c-9.002,2.012-14.668,10.939-12.655,19.939
	c-2.013-9-10.942-14.664-19.94-12.651c-9.002,2.014-14.668,10.939-12.654,19.939c5.835,26.099,42.738,38.081,42.738,38.081
	S133.876,93.995,128.039,67.895z"/>
<path fill="#E84E1B" d="M671.298,85.304c4.285-22.516-10.493-44.239-33.006-48.524c-22.517-4.289-44.247,10.481-48.532,32.997
	c4.285-22.516-10.492-44.237-33.008-48.526c-22.512-4.285-44.242,10.485-48.529,33.001C495.791,119.537,568.15,183.27,568.15,183.27
	S658.864,150.591,671.298,85.304z"/>
<polygon fill="#FFFFFF" points="623.503,76.774 571.822,111.922 556.42,89.287 541.947,99.124 557.354,121.77 567.193,136.235 
	633.35,91.246 "/>
<circle fill="#D9D9D9" cx="338.368" cy="50.586" r="18.048"/>
<g>
	<path fill="#D9D9D9" d="M363.328,145.162c0,6.236-5.103,11.339-11.338,11.339h-27.247c-6.236,0-11.338-5.103-11.338-11.339v-56.89
		c0-6.236,5.103-11.338,11.338-11.338h27.247c6.236,0,11.338,5.103,11.338,11.338V145.162z"/>
</g>
<polygon fill="#D9D9D9" points="290.166,137.917 282.516,128.078 315.713,81.433 333.761,89.352 "/>
<polygon fill="#D9D9D9" points="385.744,137.901 394.194,128.078 361.479,82.261 342.949,89.352 "/>
<circle fill="#D9D9D9" cx="242.86" cy="50.586" r="18.048"/>
<polygon fill="#D9D9D9" points="267.396,223.685 252.574,223.685 244.67,136.74 267.82,131.078 "/>
<polygon fill="#D9D9D9" points="195.834,137.565 187.008,128.078 219.958,81.875 238.253,89.352 "/>
<circle fill="#D9D9D9" cx="433.608" cy="50.586" r="18.048"/>
<g>
	<path fill="#D9D9D9" d="M458.568,145.162c0,6.236-5.103,11.339-11.338,11.339h-27.246c-6.236,0-11.338-5.103-11.338-11.339v-56.89
		c0-6.236,5.103-11.338,11.338-11.338h27.246c6.236,0,11.338,5.103,11.338,11.338V145.162z"/>
</g>
<polygon fill="#D9D9D9" points="385.744,137.901 377.756,128.078 410.791,81.698 429.002,89.352 "/>
<polygon fill="#D9D9D9" points="480.609,137.565 489.436,128.078 456.416,81.698 438.189,89.352 "/>
<g>
	<g>
		<path fill="#E84E1B" d="M355.77,103.031c-1.611,0.663-3.518,0.335-4.83-0.999c-1.764-1.797-1.786-4.729-0.041-6.549
			c0.17-0.179,0.352-0.33,0.541-0.474c-2.262-2.464-5.166-4.29-8.445-5.188c-0.123,0.96-0.539,1.889-1.248,2.634
			c-0.873,0.906-2.02,1.368-3.17,1.374c-0.865,0.006-1.729-0.241-2.481-0.744c-0.249-0.17-0.489-0.362-0.708-0.587
			c-0.111-0.114-0.215-0.229-0.312-0.35c-0.564-0.709-0.896-1.552-0.996-2.415c-3.293,0.827-6.234,2.594-8.537,5.007
			c0.148,0.115,0.294,0.24,0.43,0.378c1.768,1.796,1.786,4.726,0.04,6.544c-1.329,1.395-3.302,1.728-4.948,1.013
			c-0.441,1.604-0.682,3.296-0.682,5.045c0,1.621,0.202,3.189,0.584,4.687c1.609-0.663,3.516-0.33,4.828,1.002
			c1.767,1.796,1.787,4.729,0.042,6.549c-0.17,0.178-0.353,0.331-0.54,0.475c2.262,2.464,5.17,4.291,8.449,5.187
			c0.126-0.96,0.54-1.89,1.252-2.632c1.742-1.82,4.592-1.84,6.358-0.042c0.758,0.771,1.192,1.749,1.306,2.759
			c3.291-0.827,6.23-2.592,8.531-5.003c-0.15-0.116-0.293-0.239-0.428-0.377c-1.77-1.797-1.786-4.728-0.041-6.547
			c1.328-1.393,3.303-1.728,4.949-1.013c0.439-1.604,0.68-3.295,0.68-5.044C356.352,106.1,356.15,104.53,355.77,103.031z
			 M338.367,116.099c-4.702,0-8.512-3.812-8.512-8.512c0-4.703,3.81-8.513,8.512-8.513c4.699,0,8.511,3.81,8.511,8.513
			C346.878,112.287,343.066,116.099,338.367,116.099z"/>
	</g>
</g>
<g>
	<g>
		<path fill="#8C5889" d="M451.011,103.031c-1.612,0.663-3.519,0.335-4.831-0.999c-1.764-1.797-1.785-4.729-0.041-6.549
			c0.17-0.179,0.352-0.33,0.542-0.474c-2.262-2.464-5.167-4.29-8.446-5.188c-0.123,0.96-0.539,1.889-1.247,2.634
			c-0.874,0.906-2.019,1.368-3.171,1.374c-0.865,0.006-1.728-0.241-2.48-0.744c-0.249-0.17-0.49-0.362-0.709-0.587
			c-0.111-0.114-0.215-0.229-0.312-0.35c-0.564-0.709-0.896-1.552-0.995-2.415c-3.293,0.827-6.235,2.594-8.537,5.007
			c0.148,0.115,0.294,0.24,0.429,0.378c1.768,1.796,1.787,4.726,0.041,6.544c-1.33,1.395-3.303,1.728-4.947,1.013
			c-0.442,1.604-0.684,3.296-0.684,5.045c0,1.621,0.203,3.189,0.584,4.687c1.61-0.663,3.517-0.33,4.829,1.002
			c1.767,1.796,1.786,4.729,0.042,6.549c-0.17,0.178-0.353,0.331-0.541,0.475c2.262,2.464,5.17,4.291,8.449,5.187
			c0.127-0.96,0.541-1.89,1.252-2.632c1.743-1.82,4.593-1.84,6.359-0.042c0.758,0.771,1.191,1.749,1.306,2.759
			c3.291-0.827,6.23-2.592,8.53-5.003c-0.149-0.116-0.293-0.239-0.428-0.377c-1.769-1.797-1.785-4.728-0.041-6.547
			c1.329-1.393,3.303-1.728,4.949-1.013c0.439-1.604,0.681-3.295,0.681-5.044C451.593,106.1,451.391,104.53,451.011,103.031z
			 M433.607,116.099c-4.701,0-8.512-3.812-8.512-8.512c0-4.703,3.811-8.513,8.512-8.513c4.699,0,8.512,3.81,8.512,8.513
			C442.119,112.287,438.307,116.099,433.607,116.099z"/>
	</g>
</g>
<path fill="none" stroke="#C6C6C5" stroke-width="2" stroke-miterlimit="10" stroke-dasharray="5" d="M296.586,109.594
	c0,0-287.509-133.893-288.149-5.26c-0.122,24.503,5.997,67.975,83.007,58.807"/>
<g>
	<path fill="#D9D9D9" d="M267.82,145.162c0,6.236-5.103,11.339-11.338,11.339h-27.247c-6.236,0-11.338-5.103-11.338-11.339v-56.89
		c0-6.236,5.103-11.338,11.338-11.338h27.247c6.236,0,11.338,5.103,11.338,11.338V145.162z"/>
</g>
<polygon fill="#D9D9D9" points="290.166,137.917 298.687,128.078 265.979,82.167 247.441,89.352 "/>
<g>
	<g>
		<path fill="#D099C4" d="M260.262,103.031c-1.611,0.663-3.518,0.335-4.83-0.999c-1.764-1.797-1.786-4.729-0.041-6.549
			c0.17-0.179,0.352-0.33,0.541-0.474c-2.262-2.464-5.166-4.29-8.445-5.188c-0.123,0.96-0.539,1.889-1.248,2.634
			c-0.873,0.906-2.02,1.368-3.17,1.374c-0.865,0.006-1.729-0.241-2.481-0.744c-0.249-0.17-0.489-0.362-0.708-0.587
			c-0.111-0.114-0.215-0.229-0.312-0.35c-0.564-0.709-0.896-1.552-0.996-2.415c-3.293,0.827-6.234,2.594-8.537,5.007
			c0.148,0.115,0.294,0.24,0.43,0.378c1.768,1.796,1.786,4.726,0.04,6.544c-1.329,1.395-3.302,1.728-4.948,1.013
			c-0.441,1.604-0.682,3.296-0.682,5.045c0,1.621,0.202,3.189,0.584,4.687c1.609-0.663,3.516-0.33,4.828,1.002
			c1.767,1.796,1.787,4.729,0.042,6.549c-0.17,0.178-0.353,0.331-0.54,0.475c2.262,2.464,5.17,4.291,8.449,5.187
			c0.126-0.96,0.54-1.89,1.252-2.632c1.742-1.82,4.592-1.84,6.358-0.042c0.758,0.771,1.192,1.749,1.306,2.759
			c3.291-0.827,6.23-2.592,8.531-5.003c-0.15-0.116-0.293-0.239-0.428-0.377c-1.77-1.797-1.786-4.728-0.041-6.547
			c1.328-1.393,3.303-1.728,4.949-1.013c0.439-1.604,0.68-3.295,0.68-5.044C260.844,106.1,260.643,104.53,260.262,103.031z
			 M242.859,116.099c-4.702,0-8.512-3.812-8.512-8.512c0-4.703,3.81-8.513,8.512-8.513c4.699,0,8.511,3.81,8.511,8.513
			C251.37,112.287,247.559,116.099,242.859,116.099z"/>
	</g>
</g>
<path fill="#E84E1B" d="M522.289,144.402c-1.457-5.153-6.818-8.149-11.972-6.692c-5.155,1.457-8.151,6.817-6.694,11.971
	c-1.457-5.153-6.816-8.15-11.971-6.691c-5.154,1.458-8.15,6.816-6.693,11.971c4.227,14.943,26.015,20.7,26.015,20.7
	S526.515,159.348,522.289,144.402z"/>
<path fill="#E84E1B" d="M621.648,7.349c-0.822-2.908-3.848-4.601-6.757-3.777c-2.911,0.822-4.602,3.849-3.778,6.757
	c-0.823-2.908-3.85-4.601-6.76-3.777c-2.908,0.822-4.6,3.849-3.777,6.757c2.385,8.437,14.685,11.685,14.685,11.685
	S624.033,15.785,621.648,7.349z"/>
<path fill="#6F6F6E" d="M23.724,193.417c1.085,0.533,2.345,0.212,2.799-0.715c0.455-0.925-0.062-2.119-1.148-2.652l-11.147-5.463
	c-1.084-0.532-2.344-0.21-2.797,0.715c-0.455,0.927,0.063,2.119,1.148,2.652c-1.085-0.533-2.346-0.213-2.801,0.715
	c-0.453,0.925,0.064,2.119,1.15,2.652l2.193,1.075c-0.002,0.005-0.005,0.01-0.009,0.014c-0.917,1.868-0.144,4.124,1.725,5.04
	c1.868,0.914,4.122,0.143,5.039-1.725c0.002-0.006,0.005-0.011,0.006-0.015l2.191,1.075c1.089,0.531,2.348,0.209,2.802-0.716
	C25.327,195.143,24.809,193.95,23.724,193.417z"/>
<path fill="#F8B133" d="M47.181,135.97l-30.703,23.857c0.471,1.491,0.921,2.995,1.223,4.52l33.105-25.723
	C49.707,137.635,48.497,136.744,47.181,135.97z"/>
<path fill="#F8B133" d="M17.63,171.697c-1.038,4.974-3.473,8.779-3.473,8.779l7.481,3.668l7.481,3.67c0,0,2.079-5.854,6.673-10.066
	c6.11-5.6,16.25-4.624,20.144-12.569c3.616-7.374,2.813-15.764-1.376-22.176L17.63,171.697z"/>
<path fill="#F7C57C" d="M45.663,135.145c-11.133-5.459-24.581-0.858-30.035,10.273c-2.401,4.896-0.671,9.592,0.85,14.409
	l30.703-23.857C46.688,135.681,46.185,135.401,45.663,135.145z"/>
<path fill="#F7C57C" d="M50.806,138.624l-33.105,25.723c0.304,1.539,0.458,3.1,0.326,4.691c-0.076,0.913-0.218,1.802-0.397,2.659
	l36.93-28.694C53.515,141.404,52.257,139.931,50.806,138.624z"/>
<path fill="#6F6F6E" d="M30.129,41.839c0.674-0.149,1.118-0.742,0.99-1.316c-0.129-0.572-0.785-0.92-1.457-0.769l-6.909,1.544
	c-0.673,0.151-1.118,0.744-0.989,1.316c0.128,0.574,0.784,0.92,1.457,0.771c-0.673,0.149-1.119,0.742-0.99,1.316
	c0.127,0.574,0.783,0.921,1.457,0.771l1.359-0.304c0,0.003,0,0.006,0,0.009c0.26,1.158,1.408,1.887,2.564,1.627
	c1.158-0.259,1.887-1.406,1.629-2.563c-0.002-0.003-0.004-0.007-0.004-0.01l1.359-0.304c0.673-0.15,1.117-0.744,0.989-1.317
	C31.457,42.035,30.803,41.689,30.129,41.839z"/>
<path fill="#FFFFFF" d="M27.997,16.593c-0.419-1.879-2.283-3.06-4.16-2.64c-1.879,0.42-3.062,2.281-2.642,4.16
	c-0.42-1.879-2.283-3.06-4.16-2.64s-3.061,2.281-2.641,4.16c1.217,5.445,8.918,7.946,8.918,7.946S29.215,22.037,27.997,16.593z"/>
<path fill="#FFFFFF" d="M48.505,156.534c1.485-3.029,0.233-6.688-2.796-8.176c-3.033-1.485-6.693-0.232-8.178,2.797
	c1.485-3.029,0.231-6.691-2.796-8.175c-3.033-1.487-6.693-0.235-8.178,2.796c-4.309,8.786,3.485,20.654,3.485,20.654
	S44.196,165.321,48.505,156.534z"/>
<polygon fill="#D9D9D9" points="458.145,223.685 443.322,223.685 435.419,136.74 458.568,131.078 "/>
<path fill="none" stroke="#C6C6C5" stroke-width="2" stroke-miterlimit="10" stroke-dasharray="5" d="M592.309,51.729
	c0,0,14.232-82.29-47.303-5.082c-42.412,53.215-99.801,132.776-180.15,90.317"/>
</svg>
