<?xml version="1.0" encoding="utf-8"?>
<!-- Generator: Adobe Illustrator 15.0.0, SVG Export Plug-In . SVG Version: 6.00 Build 0)  -->
<!DOCTYPE svg PUBLIC "-//W3C//DTD SVG 1.1//EN" "http://www.w3.org/Graphics/SVG/1.1/DTD/svg11.dtd">
<svg version="1.1" id="Layer_1" xmlns="http://www.w3.org/2000/svg" xmlns:xlink="http://www.w3.org/1999/xlink" x="0px" y="0px"
	 width="234px" height="279.333px" viewBox="0 0 234 279.333" enable-background="new 0 0 234 279.333" xml:space="preserve">
<path fill="none" stroke="#C6C6C5" stroke-width="2" stroke-miterlimit="10" stroke-dasharray="5" d="M129.441,150.5
	c12.986-2.539,25.674-4.035,37.226-3.035c101,8.744,61.5,186.201-91.369,109.32"/>
<path fill="none" stroke="#C6C6C5" stroke-width="2" stroke-miterlimit="10" stroke-dasharray="5" d="M39.266,70.34
	c-16.451,9.221-27.455,26.115-27.455,54.813c0,53.941,40.289,44.379,85.339,32.95"/>
<path fill="none" stroke="#C6C6C5" stroke-width="2" stroke-miterlimit="10" stroke-dasharray="5" d="M182.553,83.048
	c0,0-54.586-22.626-102.389-22.243"/>
<g>
	<path fill="#F8B133" d="M210.447,109.44c-5.363-5.445-5.42-14.337-0.129-19.855c4.035-4.221,10.02-5.236,15.014-3.07
		c1.335-4.866,2.062-9.993,2.062-15.298c0-4.914-0.61-9.678-1.767-14.227c-4.883,2.019-10.666,1.016-14.647-3.028
		c-5.354-5.446-5.416-14.339-0.123-19.859c0.514-0.542,1.062-1.003,1.641-1.439c-6.857-7.471-15.675-13.011-25.613-15.732
		c-0.376,2.913-1.635,5.731-3.787,7.987c-2.647,2.751-6.125,4.149-9.619,4.167c-2.617,0.021-5.235-0.729-7.52-2.251
		c-0.754-0.518-1.482-1.104-2.148-1.783c-0.338-0.343-0.647-0.697-0.949-1.061c-1.715-2.148-2.717-4.707-3.016-7.325
		c-9.992,2.512-18.908,7.866-25.893,15.183c0.449,0.354,0.889,0.735,1.297,1.148c5.361,5.446,5.42,14.334,0.129,19.847
		c-4.035,4.227-10.02,5.242-15.014,3.076c-1.336,4.861-2.064,9.993-2.064,15.298c0,4.914,0.613,9.673,1.768,14.218
		c4.884-2.016,10.668-1.003,14.646,3.037c5.357,5.446,5.418,14.339,0.128,19.859c-0.514,0.539-1.065,1.004-1.643,1.439
		c6.86,7.475,15.687,13.015,25.631,15.732c0.381-2.913,1.633-5.731,3.795-7.986c5.287-5.518,13.926-5.576,19.285-0.125
		c2.298,2.335,3.616,5.305,3.964,8.368c9.98-2.512,18.893-7.862,25.87-15.177C211.291,110.231,210.857,109.859,210.447,109.44z"/>
</g>
<g>
	<circle fill="#FFFFFF" cx="172.848" cy="70.808" r="25.815"/>
	<path fill="#6F6F6E" d="M198.664,70.808h-3c-0.002,6.31-2.549,11.995-6.684,16.133c-4.138,4.133-9.822,6.681-16.133,6.682
		c-6.311-0.001-11.994-2.549-16.133-6.682c-4.134-4.138-6.681-9.823-6.683-16.133c0.002-6.31,2.549-11.995,6.683-16.133
		c4.139-4.133,9.822-6.681,16.133-6.682c6.311,0.001,11.995,2.549,16.133,6.682c4.135,4.138,6.682,9.823,6.684,16.133H198.664h3
		c0.002-7.948-3.229-15.171-8.439-20.375c-5.205-5.21-12.428-8.441-20.375-8.44c-7.949-0.001-15.172,3.23-20.377,8.44
		c-5.209,5.205-8.44,12.428-8.438,20.375c-0.002,7.948,3.229,15.17,8.438,20.375c5.205,5.21,12.428,8.441,20.377,8.44
		c7.947,0.001,15.17-3.23,20.375-8.44c5.211-5.205,8.44-12.428,8.439-20.375H198.664z"/>
</g>
<g>
	<path fill="#F15A24" d="M165.555,219.143c-1.311-3.784,0.666-8.002,4.412-9.42c2.859-1.088,5.92-0.219,7.792,1.932
		c1.729-2,3.229-4.262,4.425-6.771c1.106-2.323,1.892-4.713,2.369-7.125c-2.764-0.146-5.273-1.924-6.246-4.733
		c-1.303-3.782,0.672-8.002,4.418-9.42c0.365-0.142,0.729-0.233,1.102-0.312c-1.561-5.078-4.48-9.686-8.568-13.213
		c-0.835,1.293-2.064,2.342-3.591,2.924c-1.873,0.705-3.832,0.584-5.487-0.195c-1.244-0.58-2.312-1.523-3.051-2.76
		c-0.24-0.414-0.452-0.856-0.613-1.327c-0.082-0.237-0.149-0.478-0.209-0.716c-0.328-1.401-0.226-2.84,0.225-4.145
		c-5.293-1.062-10.717-0.539-15.668,1.346c0.133,0.271,0.254,0.549,0.354,0.836c1.308,3.783-0.668,8-4.413,9.416
		c-2.859,1.09-5.918,0.222-7.793-1.93c-1.728,1.998-3.228,4.262-4.423,6.77c-1.108,2.324-1.892,4.715-2.368,7.123
		c2.764,0.147,5.271,1.931,6.241,4.736c1.308,3.783-0.668,8.004-4.414,9.422c-0.364,0.14-0.729,0.234-1.103,0.311
		c1.562,5.082,4.486,9.689,8.576,13.217c0.838-1.292,2.064-2.343,3.596-2.922c3.744-1.418,7.843,0.501,9.148,4.287
		c0.562,1.622,0.517,3.322-0.012,4.852c5.287,1.061,10.707,0.538,15.655-1.349C165.775,219.708,165.654,219.433,165.555,219.143z"/>
</g>
<circle fill="#FFFFFF" stroke="#6F6F6E" stroke-width="4" stroke-miterlimit="10" cx="156.477" cy="192.4" r="13.524"/>
<path fill="none" d="M41.359,41.782c-0.659,1-0.771,2.25-0.312,3.354l2.792-4.933C42.832,40.35,41.928,40.916,41.359,41.782z"/>
<path fill="#F8B133" d="M42.075,84.702c4.213,10.768,2.894,21.964,2.894,21.964h11.698V81.554L45.078,54.591L34.399,73.369
	C37.511,76.804,40.366,80.335,42.075,84.702z"/>
<path fill="#F8B133" d="M102.047,47.575c0-19.057-12.809-35.357-30.284-40.297L53.288,39.667h22.253
	c1.202,0,2.312,0.838,2.983,1.835c0.672,0.998,0.664,2.372,0.211,3.487L63.667,81.876v24.79h12.208c0,0-1.319-11.197,2.893-21.964
	C84.367,70.39,102.047,63.978,102.047,47.575z"/>
<path fill="#F8B133" d="M41.359,41.782c0.569-0.866,1.473-1.432,2.48-1.579L63.176,6.048c-0.912-0.06-1.828-0.101-2.754-0.101
	c-1.483,0-2.946,0.081-4.389,0.232L24.269,62.288c1.302,1.71,2.75,3.347,4.259,4.961l12.52-22.114
	C40.588,44.031,40.7,42.781,41.359,41.782z"/>
<polygon fill="#F8B133" points="70.197,47.667 49.833,47.667 60.321,71.984 "/>
<path fill="#6F6F6E" d="M75.542,117.28c0-1.914-1.836-3.613-4.08-3.613H48.444c-2.244,0-4.08,1.699-4.08,3.613
	c0,1.911,1.836,3.544,4.08,3.544c-2.244,0-4.08,1.51-4.08,3.421c0,1.913,1.836,3.422,4.08,3.422h4.527c0,0-0.003,0.109-0.003,0.12
	c0,3.857,3.128,7.03,6.985,7.03s6.984-3.195,6.984-7.052c0-0.011-0.002-0.097-0.002-0.097h4.525c2.244,0,4.08-1.475,4.08-3.388
	c0-1.911-1.836-3.5-4.08-3.5C73.706,120.779,75.542,119.191,75.542,117.28z"/>
<path fill="#FFFFFF" d="M57.204,82.567c-0.029-0.061-0.07-0.115-0.096-0.179l0.01,0.023C57.141,82.468,57.178,82.512,57.204,82.567z
	"/>
<path fill="#FFFFFF" d="M63.652,82.534c0.032-0.065,0.074-0.125,0.103-0.193l0.188-0.464V81.7
	C63.883,81.991,63.78,82.267,63.652,82.534z"/>
<path fill="#F7C574" d="M18.794,47.575c0,5.895,2.289,10.528,5.474,14.713L56.032,6.18C35.105,8.373,18.794,26.067,18.794,47.575z"
	/>
<path fill="#FFFFFF" d="M43.839,39.956l-2.792,5.056c0.007,0.016,0.007,0.094,0.014,0.11l4.058,9.191l8.169-14.646h-8.924
	C44.187,39.667,44.012,39.93,43.839,39.956z"/>
<path fill="#F7C574" d="M63.176,6.048L43.839,39.956c0.172-0.025,0.347-0.289,0.524-0.289h8.924L71.764,7.278
	C69.006,6.499,66.134,6.242,63.176,6.048z"/>
<path fill="#F7C574" d="M41.047,45.135l-12.52,22.114c1.938,2.075,3.967,4.117,5.892,6.242l10.699-18.9l-4.058-9.408
	C41.054,45.167,41.054,45.151,41.047,45.135z"/>
<polygon fill="none" points="105.434,145.61 105.477,150.163 109.476,148.394 109.469,147.692 110.286,148.036 115.335,145.803 
	110.035,143.577 "/>
<path fill="#F15A24" d="M122.404,148.774l1.843,0.773c0.616,0.262,1.062,0.806,1.19,1.463c0.129,0.658-0.073,1.328-0.549,1.806
	l-15.629,15.681l-5.463,13.002l6.137,2.578c0,0,1.794-6.17,6.288-10.797c5.976-6.15,16.506-5.75,20.053-14.188
	c2.32-5.522,2.346-11.436,0.509-16.676L122.404,148.774z"/>
<path fill="#F15A24" d="M115.335,145.803l18.987-8.395c-0.783-1.203-1.684-2.336-2.687-3.384l-21.602,9.551L115.335,145.803z"/>
<path fill="#F15A24" d="M105.434,145.61l-12.038,5.322c0.401,1.316,0.898,2.63,1.405,3.949l10.676-4.721L105.434,145.61z"/>
<path fill="#F15A24" d="M97.352,165.348c-0.161,6.447-3.312,12.047-3.312,12.047l6.058,2.547l5.534-13.166l-0.098-10.542
	l-8.895,3.933C97.1,161.852,97.396,163.571,97.352,165.348z"/>
<polygon fill="#E84E1B" points="109.476,148.394 110.286,148.036 109.469,147.692 "/>
<polygon fill="#E84E1B" points="109.604,162.465 119.941,152.092 117.356,151.006 109.531,154.465 "/>
<path fill="#6F6F6E" d="M106.199,186.612l-11.838-4.977c-1.155-0.485-2.438-0.077-2.853,0.906c-0.412,0.981,0.192,2.185,1.348,2.67
	c-1.155-0.485-2.438-0.078-2.85,0.906c-0.414,0.982,0.192,2.186,1.347,2.67l2.329,0.979c-0.004,0.005-0.006,0.009-0.01,0.017
	c-0.833,1.982,0.101,4.268,2.084,5.102s4.268-0.098,5.101-2.082c0.003-0.006,0.005-0.012,0.008-0.018l2.326,0.979
	c1.153,0.483,2.437,0.077,2.851-0.906c0.413-0.981-0.193-2.187-1.347-2.67c1.153,0.483,2.437,0.077,2.849-0.905
	C107.958,188.295,107.351,187.096,106.199,186.612z"/>
<path fill="#FFFFFF" d="M105.647,167.395c-0.002-0.038-0.012-0.075-0.011-0.111l-0.001,0.012
	C105.636,167.331,105.645,167.362,105.647,167.395z"/>
<path fill="#FFFFFF" d="M108.97,168.771c0.03-0.024,0.064-0.048,0.095-0.076l0.195-0.198l0.039-0.09
	C109.207,168.542,109.093,168.663,108.97,168.771z"/>
<path fill="#FFFFFF" d="M108.21,142.809c-0.625-0.264-1.334-0.193-1.896,0.184s-0.895,1.008-0.889,1.684l0.009,0.935l4.601-2.034
	L108.21,142.809z"/>
<path fill="#F98764" d="M105.425,144.676c-0.006-0.678,0.326-1.307,0.889-1.684s1.271-0.447,1.896-0.185l1.824,0.767l21.603-9.551
	c-2.135-2.229-4.746-4.068-7.771-5.34c-11.825-4.971-25.438,0.586-30.408,12.41c-1.438,3.419-1.035,6.643-0.062,9.838l12.038-5.322
	L105.425,144.676z"/>
<polygon fill="#FFFFFF" points="110.286,148.036 117.356,151.006 122.404,148.774 115.335,145.803 "/>
<polygon fill="#FFFFFF" points="105.477,150.163 105.533,156.234 109.531,154.465 109.476,148.394 "/>
<path fill="#F98764" d="M134.322,137.409l-18.987,8.395l7.069,2.971l14.38-6.356C136.167,140.659,135.341,138.975,134.322,137.409z"
	/>
<path fill="#F98764" d="M94.801,154.881c0.667,1.74,1.346,3.494,1.837,5.285l8.895-3.934l-0.057-6.072L94.801,154.881z"/>
<polygon fill="#F98764" points="109.476,148.394 109.531,154.465 117.356,151.006 110.286,148.036 "/>
<path fill="none" d="M98.391,230.551c-0.431,0.119-0.77,0.443-0.907,0.869c-0.138,0.424-0.052,0.886,0.227,1.233l1.766,2.203
	l0.25-4.673L98.391,230.551z"/>
<path fill="#D099C4" d="M109.446,227.512c0.426-0.117,0.877-0.016,1.213,0.271c0.335,0.288,0.503,0.719,0.451,1.159l-1.709,14.49
	l2.464,8.961l4.23-1.164c0,0-1.583-3.927-1.14-8.153c0.59-5.621,6.209-9.705,4.609-15.521c-1.949-7.09-8.579-11.633-15.636-11.221
	l-0.691,12.883L109.446,227.512z"/>
<path fill="#D099C4" d="M97.71,232.655c-0.278-0.349-0.364-0.811-0.227-1.234c0.138-0.424,0.477-0.75,0.907-0.867l1.335-0.367
	l0.709-13.225c-0.93,0.275-1.818,0.625-2.651,1.056l-1.305,24.325c0.848,0.506,1.7,1.017,2.51,1.578l0.486-9.062L97.71,232.655z"/>
<path fill="#D099C4" d="M109.314,253.096l-2.495-9.076l-4.101-5.117l-0.441,8.221c2.267,3.31,2.861,7.121,2.861,7.121
	L109.314,253.096z"/>
<polygon fill="#D099C4" points="107.123,240.168 108.252,230.584 103.088,232.004 102.931,234.938 "/>
<path fill="#6F6F6E" d="M115.871,256.534c0.794-0.221,1.293-0.953,1.107-1.632c-0.188-0.68-0.99-1.055-1.784-0.835l-8.162,2.244
	c-0.796,0.219-1.294,0.953-1.107,1.632c0.187,0.677,0.989,1.054,1.785,0.834c-0.796,0.22-1.293,0.952-1.107,1.63
	s0.99,1.055,1.786,0.836l1.604-0.441c0.001,0.004,0.001,0.008,0.002,0.012c0.376,1.367,1.791,2.171,3.158,1.795
	c1.367-0.376,2.171-1.79,1.795-3.156c-0.001-0.005-0.002-0.008-0.003-0.013l1.604-0.44c0.795-0.219,1.293-0.951,1.105-1.631
	C117.469,256.69,116.665,256.313,115.871,256.534z"/>
<path fill="#FFFFFF" d="M107.08,244.334c-0.017-0.02-0.037-0.035-0.052-0.053l0.005,0.006
	C107.047,244.307,107.065,244.318,107.08,244.334z"/>
<path fill="#FFFFFF" d="M109.362,243.694c0.005-0.025,0.015-0.051,0.018-0.076l0.021-0.184l-0.018-0.062
	C109.391,243.48,109.381,243.586,109.362,243.694z"/>
<path fill="#EABBE4" d="M90.049,235.674c0.929,3.375,3.65,5.007,6.431,6.666l1.305-24.324
	C91.486,221.26,88.096,228.571,90.049,235.674z"/>
<polygon fill="#FFFFFF" points="99.476,234.858 102.718,238.903 102.931,234.938 101.033,232.57 103.088,232.004 103.238,229.219 
	99.727,230.185 "/>
<path fill="#EABBE4" d="M99.476,234.858l-0.486,9.062c1.109,0.77,2.138,1.636,2.957,2.732c0.115,0.154,0.223,0.312,0.33,0.469
	l0.441-8.22L99.476,234.858z"/>
<path fill="#EABBE4" d="M103.238,229.219l0.691-12.883c-1.056,0.062-2.12,0.229-3.181,0.521c-0.107,0.028-0.207,0.071-0.312,0.104
	l-0.709,13.225L103.238,229.219z"/>
<polygon fill="#EABBE4" points="102.931,234.938 103.088,232.004 101.033,232.57 "/>
<g>
	<path fill="#D099C4" d="M83.279,266.125c-1.852-1.881-1.87-4.951-0.044-6.855c1.393-1.458,3.46-1.809,5.184-1.061
		c0.461-1.681,0.713-3.451,0.713-5.283c0-1.695-0.211-3.34-0.609-4.91c-1.688,0.695-3.684,0.352-5.059-1.047
		c-1.848-1.881-1.871-4.95-0.043-6.856c0.178-0.188,0.367-0.346,0.567-0.495c-2.369-2.58-5.412-4.494-8.845-5.434
		c-0.129,1.006-0.564,1.979-1.307,2.758c-0.914,0.949-2.115,1.434-3.321,1.439c-0.905,0.007-1.809-0.252-2.597-0.778
		c-0.261-0.179-0.512-0.381-0.743-0.615c-0.115-0.118-0.224-0.241-0.326-0.366c-0.592-0.742-0.938-1.625-1.042-2.529
		c-3.449,0.867-6.529,2.717-8.94,5.242c0.155,0.123,0.308,0.254,0.449,0.396c1.851,1.881,1.871,4.949,0.043,6.854
		c-1.393,1.459-3.458,1.81-5.183,1.062c-0.461,1.681-0.714,3.451-0.714,5.282c0,1.697,0.212,3.341,0.61,4.908
		c1.687-0.695,3.684-0.346,5.058,1.049c1.85,1.882,1.87,4.951,0.044,6.857c-0.178,0.187-0.369,0.348-0.566,0.498
		c2.368,2.579,5.415,4.492,8.849,5.432c0.132-1.006,0.564-1.979,1.311-2.758c1.825-1.904,4.81-1.927,6.658-0.043
		c0.794,0.807,1.249,1.832,1.369,2.89c3.446-0.867,6.523-2.716,8.933-5.24C83.571,266.398,83.42,266.269,83.279,266.125z"/>
</g>
<circle fill="#FFFFFF" stroke="#6F6F6E" stroke-width="3" stroke-miterlimit="10" cx="70.297" cy="252.786" r="8.914"/>
</svg>
