<?xml version="1.0" encoding="utf-8"?>
<!-- Generator: Adobe Illustrator 15.0.0, SVG Export Plug-In . SVG Version: 6.00 Build 0)  -->
<!DOCTYPE svg PUBLIC "-//W3C//DTD SVG 1.1//EN" "http://www.w3.org/Graphics/SVG/1.1/DTD/svg11.dtd">
<svg version="1.1" id="Layer_1" xmlns="http://www.w3.org/2000/svg" xmlns:xlink="http://www.w3.org/1999/xlink" x="0px" y="0px"
	 width="234px" height="279.333px" viewBox="0 0 234 279.333" enable-background="new 0 0 234 279.333" xml:space="preserve">
<g>
	<g>
		<path fill="#D099C4" d="M64.848,75.284c-1.748,0-3.169-1.422-3.169-3.169V12.107c0-1.748,1.422-3.169,3.169-3.169h103.827
			c1.748,0,3.17,1.422,3.17,3.169v60.008c0,1.748-1.422,3.169-3.17,3.169H64.848z"/>
		<path fill="#1D1D1B" d="M168.674,11.438c0.357,0,0.67,0.313,0.67,0.669v60.008c0,0.356-0.312,0.669-0.67,0.669H64.848
			c-0.356,0-0.669-0.313-0.669-0.669V12.107c0-0.356,0.313-0.669,0.669-0.669H168.674 M168.674,6.438H64.848
			c-3.118,0-5.669,2.551-5.669,5.669v60.008c0,3.118,2.551,5.669,5.669,5.669h103.827c3.119,0,5.67-2.551,5.67-5.669V12.107
			C174.344,8.989,171.793,6.438,168.674,6.438L168.674,6.438z"/>
	</g>
	<rect x="51.428" y="77.947" fill="#D9D9D9" width="130.666" height="5.737"/>
	<polygon fill="#B1B1B1" points="177.094,86.553 56.428,86.553 51.428,83.685 182.094,83.685 	"/>
	<rect x="102.928" y="77.947" fill="#F5F5F5" width="27.666" height="2.869"/>
	<g>
		<path fill="#FFFFFF" d="M132.022,59.738c-7.071-2.578-9.332-4.752-9.332-9.406c0-2.793,2.16-1.881,3.107-6.998
			c0.394-2.123,2.301-0.033,2.666-4.879c0-1.933-1.041-2.412-1.041-2.412s0.528-2.857,0.736-5.058
			c0.256-2.739-1.584-9.821-11.397-9.821s-11.655,7.082-11.397,9.821c0.207,2.2,0.736,5.058,0.736,5.058s-1.041,0.479-1.041,2.412
			c0.364,4.846,2.271,2.756,2.664,4.879c0.949,5.117,3.107,4.205,3.107,6.998c0,4.654-2.259,6.828-9.33,9.406
			c-7.094,2.585-11.701,5.221-11.701,7.018s0,6.039,0,6.039h26.962h26.962c0,0,0-4.242,0-6.039S139.115,62.323,132.022,59.738z"/>
	</g>
	<g opacity="0.3">
		<polygon fill="#FFFFFF" points="98.818,77.784 69.871,77.784 110.262,6.438 139.208,6.438 		"/>
		<polyline fill="#FFFFFF" points="105.885,77.784 146.278,6.438 155.702,6.438 115.311,77.784 		"/>
	</g>
</g>
<g>
	<g>
		<path fill="#F8B133" d="M64.848,168.456c-1.748,0-3.169-1.422-3.169-3.169v-60.008c0-1.748,1.422-3.169,3.169-3.169h103.827
			c1.748,0,3.17,1.422,3.17,3.169v60.008c0,1.747-1.422,3.169-3.17,3.169H64.848z"/>
		<path fill="#1D1D1B" d="M168.674,104.609c0.357,0,0.67,0.313,0.67,0.669v60.008c0,0.356-0.312,0.669-0.67,0.669H64.848
			c-0.356,0-0.669-0.312-0.669-0.669v-60.008c0-0.356,0.313-0.669,0.669-0.669H168.674 M168.674,99.609H64.848
			c-3.118,0-5.669,2.551-5.669,5.669v60.008c0,3.118,2.551,5.669,5.669,5.669h103.827c3.119,0,5.67-2.551,5.67-5.669v-60.008
			C174.344,102.161,171.793,99.609,168.674,99.609L168.674,99.609z"/>
	</g>
	<rect x="51.428" y="171.12" fill="#D9D9D9" width="130.666" height="5.736"/>
	<polygon fill="#B1B1B1" points="177.094,179.725 56.428,179.725 51.428,176.856 182.094,176.856 	"/>
	<rect x="102.928" y="171.12" fill="#F5F5F5" width="27.666" height="2.869"/>
	<g>
		<path fill="#FFFFFF" d="M132.022,152.911c-7.071-2.578-9.332-4.752-9.332-9.406c0-2.793,2.16-1.881,3.107-6.999
			c0.394-2.123,2.301-0.033,2.666-4.879c0-1.933-1.041-2.412-1.041-2.412s0.528-2.857,0.736-5.058
			c0.256-2.739-1.584-9.821-11.397-9.821s-11.655,7.082-11.397,9.821c0.207,2.2,0.736,5.058,0.736,5.058s-1.041,0.479-1.041,2.412
			c0.364,4.846,2.271,2.756,2.664,4.879c0.949,5.118,3.107,4.206,3.107,6.999c0,4.654-2.259,6.828-9.33,9.406
			c-7.094,2.584-11.701,5.221-11.701,7.018s0,6.039,0,6.039h26.962h26.962c0,0,0-4.242,0-6.039S139.115,155.495,132.022,152.911z"/>
	</g>
	<g opacity="0.3">
		<polygon fill="#FFFFFF" points="98.818,170.956 69.871,170.956 110.262,99.609 139.208,99.609 		"/>
		<polyline fill="#FFFFFF" points="105.885,170.956 146.278,99.609 155.702,99.609 115.311,170.956 		"/>
	</g>
</g>
<g>
	<g>
		<path fill="#E84E1B" d="M64.848,261.627c-1.748,0-3.169-1.422-3.169-3.168v-60.01c0-1.746,1.422-3.168,3.169-3.168h103.827
			c1.748,0,3.17,1.422,3.17,3.168v60.01c0,1.746-1.422,3.168-3.17,3.168H64.848z"/>
		<path fill="#1D1D1B" d="M168.674,197.782c0.357,0,0.67,0.312,0.67,0.668v60.01c0,0.355-0.312,0.668-0.67,0.668H64.848
			c-0.356,0-0.669-0.312-0.669-0.668v-60.01c0-0.355,0.313-0.668,0.669-0.668H168.674 M168.674,192.782H64.848
			c-3.118,0-5.669,2.551-5.669,5.668v60.01c0,3.117,2.551,5.668,5.669,5.668h103.827c3.119,0,5.67-2.551,5.67-5.668v-60.01
			C174.344,195.333,171.793,192.782,168.674,192.782L168.674,192.782z"/>
	</g>
	<rect x="51.428" y="264.292" fill="#D9D9D9" width="130.666" height="5.736"/>
	<polygon fill="#B1B1B1" points="177.094,272.897 56.428,272.897 51.428,270.028 182.094,270.028 	"/>
	<rect x="102.928" y="264.292" fill="#F5F5F5" width="27.666" height="2.869"/>
	<g>
		<path fill="#FFFFFF" d="M132.022,246.083c-7.071-2.578-9.332-4.752-9.332-9.406c0-2.793,2.16-1.881,3.107-6.998
			c0.394-2.123,2.301-0.033,2.666-4.879c0-1.934-1.041-2.412-1.041-2.412s0.528-2.857,0.736-5.059
			c0.256-2.738-1.584-9.82-11.397-9.82s-11.655,7.082-11.397,9.82c0.207,2.201,0.736,5.059,0.736,5.059s-1.041,0.479-1.041,2.412
			c0.364,4.846,2.271,2.756,2.664,4.879c0.949,5.117,3.107,4.205,3.107,6.998c0,4.654-2.259,6.828-9.33,9.406
			c-7.094,2.584-11.701,5.221-11.701,7.018s0,6.039,0,6.039h26.962h26.962c0,0,0-4.242,0-6.039S139.115,248.667,132.022,246.083z"/>
	</g>
	<g opacity="0.3">
		<polygon fill="#FFFFFF" points="98.818,264.127 69.871,264.127 110.262,192.782 139.208,192.782 		"/>
		<polyline fill="#FFFFFF" points="105.885,264.127 146.278,192.782 155.702,192.782 115.311,264.127 		"/>
	</g>
</g>
<path fill="none" stroke="#1D1D1B" stroke-width="2" stroke-miterlimit="10" d="M51.583,175.127
	c-26.043,0-47.155-21.113-47.155-47.156c0-26.043,21.112-47.156,47.155-47.156"/>
<path fill="none" stroke="#1D1D1B" stroke-width="2" stroke-miterlimit="10" d="M181.844,267.625
	c26.043,0,47.155-21.113,47.155-47.156s-21.112-47.156-47.155-47.156"/>
</svg>
