<?xml version="1.0" encoding="utf-8"?>
<!-- Generator: Adobe Illustrator 15.0.0, SVG Export Plug-In . SVG Version: 6.00 Build 0)  -->
<!DOCTYPE svg PUBLIC "-//W3C//DTD SVG 1.1//EN" "http://www.w3.org/Graphics/SVG/1.1/DTD/svg11.dtd">
<svg version="1.1" id="Layer_1" xmlns="http://www.w3.org/2000/svg" xmlns:xlink="http://www.w3.org/1999/xlink" x="0px" y="0px"
	 width="388.332px" height="279.333px" viewBox="0 0 388.332 279.333" enable-background="new 0 0 388.332 279.333"
	 xml:space="preserve">
<g>
	<g>
		<path fill="#ECECEC" d="M219.55,272.629c-5.701,0-10.338-4.638-10.338-10.339V76.137c0-5.701,4.638-10.338,10.338-10.338h150
			c5.701,0,10.339,4.638,10.339,10.338v186.154c0,5.701-4.638,10.339-10.339,10.339H219.55z"/>
		<path fill="#D9D9D9" d="M369.551,66.798c5.149,0,9.339,4.189,9.339,9.338v186.154c0,5.149-4.189,9.339-9.339,9.339h-150
			c-5.149,0-9.338-4.189-9.338-9.339V76.137c0-5.149,4.189-9.338,9.338-9.338H369.551 M369.551,64.798h-150
			c-6.236,0-11.338,5.103-11.338,11.338v186.154c0,6.236,5.103,11.339,11.338,11.339h150c6.236,0,11.339-5.103,11.339-11.339V76.137
			C380.89,69.901,375.787,64.798,369.551,64.798L369.551,64.798z"/>
	</g>
	<rect x="231.822" y="89.467" fill="#D9D9D9" width="125.457" height="86.482"/>
	
		<line fill="none" stroke="#D9D9D9" stroke-width="8" stroke-miterlimit="10" x1="357.279" y1="197.259" x2="231.822" y2="197.259"/>
	
		<line fill="none" stroke="#D9D9D9" stroke-width="8" stroke-miterlimit="10" x1="357.279" y1="216.728" x2="231.822" y2="216.728"/>
	
		<line fill="none" stroke="#D9D9D9" stroke-width="8" stroke-miterlimit="10" x1="294.551" y1="236.196" x2="231.822" y2="236.196"/>
</g>
<g>
	<g>
		<path fill="#ECECEC" d="M178.55,272.629c-5.701,0-10.338-4.638-10.338-10.339V76.137c0-5.701,4.638-10.338,10.338-10.338h150
			c5.701,0,10.339,4.638,10.339,10.338v186.154c0,5.701-4.638,10.339-10.339,10.339H178.55z"/>
		<path fill="#D9D9D9" d="M328.551,66.798c5.149,0,9.339,4.189,9.339,9.338v186.154c0,5.149-4.189,9.339-9.339,9.339h-150
			c-5.149,0-9.338-4.189-9.338-9.339V76.137c0-5.149,4.189-9.338,9.338-9.338H328.551 M328.551,64.798h-150
			c-6.236,0-11.338,5.103-11.338,11.338v186.154c0,6.236,5.103,11.339,11.338,11.339h150c6.236,0,11.339-5.103,11.339-11.339V76.137
			C339.89,69.901,334.787,64.798,328.551,64.798L328.551,64.798z"/>
	</g>
	<rect x="190.822" y="89.467" fill="#D9D9D9" width="125.457" height="86.482"/>
	
		<line fill="none" stroke="#D9D9D9" stroke-width="8" stroke-miterlimit="10" x1="316.279" y1="197.259" x2="190.822" y2="197.259"/>
	
		<line fill="none" stroke="#D9D9D9" stroke-width="8" stroke-miterlimit="10" x1="316.279" y1="216.728" x2="190.822" y2="216.728"/>
	
		<line fill="none" stroke="#D9D9D9" stroke-width="8" stroke-miterlimit="10" x1="253.551" y1="236.196" x2="190.822" y2="236.196"/>
</g>
<g>
	<g>
		<path fill="#FFFFFF" d="M298.822,204.012c0,6.236-5.103,11.339-11.339,11.339h-150c-6.236,0-11.338-5.103-11.338-11.339V17.858
			c0-6.236,5.103-11.338,11.338-11.338h150c6.236,0,11.339,5.103,11.339,11.338V204.012z"/>
		<path fill="#D9D9D9" d="M287.483,6.52h-5v2h5V6.52L287.483,6.52L287.483,6.52z M277.483,6.52h-5v2h5V6.52L277.483,6.52z
			 M267.483,6.52h-5v2h5V6.52L267.483,6.52z M257.484,6.52h-5v2h5V6.52L257.484,6.52z M247.484,6.52h-5v2h5V6.52L247.484,6.52z
			 M237.484,6.52h-5v2h5V6.52L237.484,6.52z M227.484,6.52h-5v2h5V6.52L227.484,6.52z M217.484,6.52h-5v2h5V6.52L217.484,6.52z
			 M207.484,6.52h-5v2h5V6.52L207.484,6.52z M197.484,6.52h-5v2h5V6.52L197.484,6.52z M187.484,6.52h-5v2h5V6.52L187.484,6.52z
			 M177.484,6.52h-5v2h5V6.52L177.484,6.52z M167.484,6.52h-5v2h5V6.52L167.484,6.52z M157.484,6.52h-5v2h5V6.52L157.484,6.52z
			 M147.484,6.52h-5v2h5V6.52L147.484,6.52z M137.483,6.52c0,0,0,0-0.001,0c-0.004,0-0.008,0-0.013,0c-0.003,0-0.007,0-0.011,0
			c-0.002,0-0.004,0-0.005,0c-1.137,0.003-2.235,0.176-3.271,0.493c0,0,0,0-0.001,0c-0.005,0.001-0.011,0.003-0.016,0.005
			c-0.001,0-0.003,0-0.004,0.001c-0.004,0.001-0.008,0.003-0.013,0.004c-0.001,0-0.004,0.001-0.005,0.002
			c-0.003,0.001-0.007,0.002-0.01,0.003c-0.002,0.001-0.006,0.002-0.008,0.002c-0.002,0.001-0.004,0.001-0.007,0.002
			c-0.003,0.001-0.007,0.002-0.011,0.003c-0.002,0-0.004,0.001-0.006,0.001c-0.004,0.001-0.008,0.002-0.012,0.004
			c-0.001,0-0.003,0.001-0.004,0.001c-0.004,0.001-0.008,0.002-0.013,0.004c0,0-0.001,0-0.002,0
			c-0.005,0.001-0.009,0.003-0.014,0.004c-0.001,0-0.002,0.001-0.003,0.001c-0.005,0.001-0.009,0.003-0.014,0.004
			c-0.001,0-0.002,0.001-0.002,0.001c-0.005,0.001-0.01,0.003-0.015,0.005c0,0-0.001,0-0.002,0c-0.005,0.001-0.01,0.003-0.016,0.005
			l0,0c-0.467,0.152-0.92,0.333-1.359,0.542l0.859,1.806c1.25-0.595,2.589-0.896,3.979-0.896L137.483,6.52L137.483,6.52z
			 M128.737,10.664c-0.374,0.454-0.714,0.937-1.015,1.444l0,0c-0.012,0.02-0.023,0.039-0.035,0.059c0,0,0,0,0,0
			c-0.008,0.015-0.017,0.029-0.025,0.043c0,0,0,0,0,0.001c-0.002,0.004-0.005,0.009-0.008,0.013c0,0.001,0,0.001-0.001,0.002
			c-0.002,0.004-0.005,0.009-0.008,0.013c0,0,0,0.001-0.001,0.001c-0.005,0.009-0.01,0.018-0.016,0.027c0,0.001,0,0.001-0.001,0.002
			c-0.002,0.004-0.005,0.009-0.007,0.013c0,0.001-0.001,0.002-0.001,0.003c-0.002,0.004-0.005,0.008-0.007,0.012
			c0,0.001-0.001,0.002-0.001,0.003c-0.002,0.004-0.005,0.008-0.007,0.013c0,0,0,0.001-0.001,0.002
			c-0.002,0.004-0.004,0.008-0.007,0.012c0,0,0,0.001-0.001,0.002c-0.002,0.004-0.005,0.008-0.007,0.012
			c-0.001,0.001-0.001,0.002-0.002,0.004c-0.002,0.004-0.005,0.008-0.007,0.012c-0.001,0.001-0.001,0.002-0.002,0.003
			c-0.002,0.004-0.004,0.008-0.007,0.012c0,0.001-0.001,0.002-0.001,0.003c-0.002,0.004-0.004,0.007-0.006,0.011
			c0,0.001-0.001,0.002-0.001,0.003c-0.002,0.004-0.004,0.008-0.006,0.012c-0.001,0.001-0.001,0.003-0.002,0.004
			c-0.002,0.003-0.004,0.007-0.006,0.011c0,0.001-0.001,0.003-0.002,0.004c-0.002,0.004-0.004,0.008-0.006,0.012
			c-0.001,0.001-0.002,0.003-0.002,0.004c-0.002,0.003-0.003,0.006-0.005,0.009c-0.001,0.001-0.002,0.003-0.003,0.005
			c-0.002,0.003-0.003,0.006-0.005,0.01c-0.001,0.001-0.002,0.003-0.003,0.005c-0.002,0.003-0.004,0.007-0.006,0.01
			c0,0.002-0.001,0.003-0.002,0.005c-0.002,0.003-0.004,0.007-0.006,0.01c-0.001,0.002-0.002,0.004-0.003,0.005
			c-0.001,0.002-0.003,0.006-0.004,0.008s-0.002,0.005-0.004,0.007c-0.001,0.003-0.003,0.005-0.004,0.008
			c-0.001,0.002-0.002,0.004-0.003,0.006c-0.002,0.003-0.003,0.006-0.005,0.01c-0.001,0.002-0.002,0.004-0.003,0.006
			c-0.002,0.003-0.003,0.006-0.005,0.01c-0.001,0.002-0.002,0.004-0.003,0.006c-0.001,0.002-0.002,0.004-0.003,0.007
			c-0.002,0.003-0.003,0.006-0.005,0.009c-0.001,0.002-0.002,0.004-0.003,0.006c-0.001,0.003-0.003,0.005-0.004,0.008
			s-0.002,0.005-0.004,0.008c-0.001,0.002-0.002,0.004-0.003,0.006c-0.002,0.003-0.003,0.006-0.005,0.01
			c-0.001,0.002-0.002,0.004-0.003,0.006c-0.001,0.002-0.002,0.004-0.003,0.006c-0.001,0.003-0.003,0.006-0.005,0.01
			c-0.001,0.002-0.002,0.003-0.003,0.005c-0.001,0.003-0.003,0.007-0.005,0.01c-0.001,0.002-0.002,0.004-0.003,0.006
			c-0.001,0.002-0.002,0.004-0.003,0.006c-0.002,0.003-0.003,0.006-0.005,0.01c-0.001,0.002-0.002,0.004-0.004,0.007
			c-0.001,0.002-0.002,0.003-0.003,0.005c-0.001,0.004-0.003,0.007-0.005,0.011c-0.001,0.002-0.001,0.003-0.002,0.005
			c-0.002,0.004-0.004,0.008-0.006,0.012c0,0.001-0.001,0.002-0.002,0.004c-0.001,0.003-0.003,0.006-0.005,0.01
			c-0.001,0.002-0.002,0.004-0.003,0.007c-0.001,0.002-0.002,0.005-0.004,0.007c-0.001,0.001-0.001,0.003-0.002,0.005
			c-0.002,0.004-0.004,0.008-0.006,0.012c-0.001,0.001-0.001,0.002-0.002,0.004c-0.002,0.004-0.004,0.008-0.006,0.013
			c-0.001,0.001-0.001,0.002-0.002,0.004c-0.003,0.005-0.005,0.011-0.008,0.016l0,0c-0.001,0.003-0.003,0.005-0.004,0.008
			c0,0.001,0,0.001-0.001,0.002c-0.002,0.005-0.005,0.01-0.007,0.015c0,0-0.001,0.001-0.001,0.002
			c-0.002,0.005-0.005,0.01-0.008,0.015c0,0,0,0.001,0,0.002c-0.007,0.014-0.014,0.028-0.021,0.042c0,0,0,0.001,0,0.001
			c-0.343,0.697-0.617,1.434-0.812,2.201l1.938,0.492c0.335-1.32,0.976-2.579,1.852-3.641L128.737,10.664L128.737,10.664z
			 M128.145,20.056h-2v5h2V20.056L128.145,20.056z M128.145,30.056h-2v5h2V30.056L128.145,30.056z M128.145,40.056h-2v5h2V40.056
			L128.145,40.056z M128.145,50.056h-2v5h2V50.056L128.145,50.056z M128.145,60.056h-2v5h2V60.056L128.145,60.056z M128.145,70.056
			h-2v5h2V70.056L128.145,70.056z M128.145,80.056h-2v5h2V80.056L128.145,80.056z M128.145,90.056h-2v5h2V90.056L128.145,90.056z
			 M128.145,100.056h-2v5h2V100.056L128.145,100.056z M128.145,110.056h-2v5h2V110.056L128.145,110.056z M128.145,120.056h-2v5h2
			V120.056L128.145,120.056z M128.145,130.056h-2v5h2V130.056L128.145,130.056z M128.145,140.056h-2v5h2V140.056L128.145,140.056z
			 M128.145,150.056h-2v5h2V150.056L128.145,150.056z M128.145,160.056h-2v5h2V160.056L128.145,160.056z M128.145,170.056h-2v5h2
			V170.056L128.145,170.056z M128.145,180.056h-2v5h2V180.056L128.145,180.056z M128.145,190.056h-2v5h2V190.056L128.145,190.056z
			 M128.145,200.056h-2v3.956l0,0c0,0.006,0,0.012,0,0.018c0,0.002,0,0.004,0,0.006c0,0.004,0,0.008,0,0.012
			c0,0.002,0,0.005,0,0.007c0,0.004,0,0.007,0,0.01s0,0.006,0,0.008c0,0.004,0,0.007,0,0.01s0,0.006,0,0.008c0,0.003,0,0.007,0,0.01
			s0,0.005,0,0.008c0,0.004,0,0.006,0,0.01c0,0.003,0,0.005,0,0.008s0,0.007,0,0.01s0,0.005,0,0.008c0,0.003,0,0.007,0,0.01
			s0,0.005,0,0.008c0,0.004,0,0.007,0,0.011c0,0.003,0,0.007,0,0.01c0,0.005,0,0.009,0,0.014c0,0.003,0,0.006,0,0.009
			c0,0.002,0,0.006,0,0.008c0,0.004,0,0.007,0,0.01c0,0.002,0,0.005,0,0.008s0,0.006,0,0.01c0,0.002,0,0.005,0,0.007
			c0,0.004,0,0.007,0,0.011c0,0.002,0,0.004,0,0.007c0,0.003,0,0.007,0,0.01s0,0.005,0,0.007c0,0.004,0,0.008,0,0.011
			c0,0.002,0,0.004,0,0.005c0,0.005,0,0.009,0,0.013c0,0.001,0,0.002,0,0.003c0,0.026,0.001,0.053,0.002,0.079c0,0,0,0,0,0.001
			c0,0.005,0,0.01,0,0.015c0,0.001,0,0.001,0,0.002c0,0.005,0,0.01,0,0.015c0,0,0,0.001,0,0.002c0,0.005,0,0.01,0,0.015
			c0,0.001,0,0.001,0,0.001c0.006,0.152,0.015,0.304,0.026,0.454v0.001c0,0.005,0.001,0.009,0.001,0.014c0,0.001,0,0.003,0,0.004
			c0,0.004,0,0.008,0.001,0.012c0,0.002,0,0.004,0,0.006c0,0.003,0,0.007,0.001,0.011c0,0.002,0,0.004,0,0.006
			c0,0.004,0,0.007,0,0.011c0,0.003,0,0.005,0.001,0.008c0,0.003,0,0.006,0,0.009c0,0.003,0,0.007,0.001,0.011
			c0,0.002,0,0.004,0,0.006c0.002,0.021,0.004,0.044,0.006,0.065l1.992-0.184c-0.026-0.284-0.04-0.573-0.04-0.859V200.056
			L128.145,200.056z M129.446,208.75l-1.72,1.021c0.001,0.001,0.001,0.002,0.002,0.003c0.002,0.003,0.004,0.007,0.006,0.01
			c0.001,0.002,0.002,0.004,0.003,0.006c0.002,0.004,0.004,0.008,0.007,0.011c0.001,0.002,0.002,0.004,0.003,0.005
			c0.003,0.006,0.006,0.011,0.009,0.016c0,0,0,0,0,0.001c0.003,0.005,0.006,0.01,0.01,0.016c0.001,0.002,0.002,0.003,0.003,0.005
			c0.002,0.004,0.004,0.008,0.006,0.011c0.001,0.002,0.002,0.004,0.004,0.006c0.002,0.004,0.004,0.007,0.006,0.01
			c0.001,0.002,0.003,0.005,0.004,0.007c0.002,0.003,0.004,0.006,0.006,0.01c0.001,0.002,0.002,0.004,0.004,0.006
			c0.002,0.003,0.004,0.006,0.005,0.01c0.001,0.002,0.003,0.004,0.004,0.007c0.002,0.003,0.004,0.006,0.005,0.009
			c0.001,0.002,0.003,0.005,0.004,0.007c0.002,0.004,0.004,0.007,0.007,0.011c0.001,0.003,0.003,0.005,0.005,0.008
			c0.002,0.004,0.005,0.008,0.007,0.012c0.001,0.003,0.003,0.005,0.004,0.008c0.002,0.003,0.003,0.005,0.005,0.008
			c0.002,0.003,0.003,0.006,0.005,0.008c0.001,0.003,0.003,0.005,0.004,0.008c0.002,0.003,0.003,0.005,0.005,0.008
			c0.001,0.003,0.003,0.005,0.004,0.008c0.002,0.003,0.003,0.006,0.005,0.008c0.001,0.003,0.003,0.005,0.004,0.008
			c0.002,0.003,0.003,0.005,0.005,0.008c0.001,0.003,0.002,0.004,0.004,0.007c0.002,0.003,0.004,0.006,0.006,0.009
			c0,0.001,0.001,0.002,0.001,0.003c0.005,0.008,0.01,0.016,0.015,0.023c0,0.001,0.001,0.002,0.002,0.003
			c0.002,0.004,0.004,0.007,0.006,0.01c0.001,0.002,0.002,0.004,0.004,0.006c0.002,0.004,0.003,0.006,0.006,0.01
			c0.001,0.002,0.002,0.004,0.004,0.006c0.002,0.003,0.003,0.006,0.006,0.009c0.001,0.002,0.002,0.005,0.004,0.007
			c0.002,0.003,0.004,0.006,0.006,0.009c0.001,0.002,0.002,0.004,0.003,0.006c0.002,0.003,0.004,0.007,0.006,0.01
			c0.001,0.001,0.002,0.003,0.003,0.004c0.008,0.014,0.017,0.026,0.026,0.04l0,0c0.002,0.004,0.005,0.008,0.007,0.011
			c0.001,0.002,0.002,0.003,0.002,0.005c0.002,0.003,0.005,0.007,0.007,0.01c0.001,0.002,0.002,0.003,0.003,0.005
			c0.002,0.003,0.004,0.007,0.006,0.01c0.001,0.002,0.002,0.004,0.003,0.005c0.002,0.004,0.004,0.008,0.007,0.011
			c0.001,0.001,0.001,0.003,0.002,0.004c0.002,0.004,0.005,0.008,0.007,0.012c0,0,0.001,0.001,0.001,0.002
			c0.012,0.018,0.024,0.035,0.036,0.053c0,0.001,0.001,0.002,0.002,0.003c0.002,0.004,0.005,0.008,0.008,0.012
			c0,0.001,0.001,0.002,0.002,0.003c0.002,0.004,0.005,0.008,0.008,0.011c0,0.002,0.001,0.003,0.002,0.004
			c0.002,0.004,0.005,0.008,0.007,0.012c0.001,0.001,0.001,0.002,0.002,0.002c0.016,0.023,0.031,0.046,0.047,0.068
			c0,0,0,0.001,0,0.001c0.003,0.005,0.006,0.009,0.009,0.013c0,0.001,0.001,0.001,0.001,0.002c0.003,0.004,0.006,0.008,0.009,0.012
			c0,0.001,0.001,0.002,0.001,0.003c0.003,0.004,0.006,0.008,0.009,0.013h0c0.016,0.023,0.032,0.047,0.048,0.069c0,0,0,0,0,0
			c0.003,0.005,0.006,0.01,0.009,0.014c0,0,0,0.001,0.001,0.001c0.002,0.004,0.006,0.009,0.009,0.013
			c0,0.001,0.001,0.001,0.001,0.002c0.023,0.032,0.046,0.063,0.069,0.096l0,0c0.003,0.005,0.007,0.009,0.01,0.014c0,0,0,0,0,0
			c0.55,0.754,1.191,1.437,1.905,2.034l0,0c0.004,0.004,0.009,0.008,0.013,0.012l0,0c0.03,0.024,0.061,0.05,0.091,0.075
			c0,0,0.001,0,0.001,0.001c0.004,0.003,0.008,0.006,0.013,0.01c0,0,0,0,0,0.001c0.031,0.024,0.061,0.049,0.092,0.073
			c0,0.001,0.001,0.001,0.001,0.001c0.004,0.004,0.008,0.007,0.012,0.01c0,0.001,0.001,0.001,0.001,0.001
			c0.004,0.004,0.008,0.007,0.012,0.011h0c0.022,0.018,0.044,0.035,0.066,0.052l0,0.001c0.004,0.003,0.008,0.006,0.012,0.01
			c0,0,0.001,0,0.002,0.001c0.004,0.003,0.008,0.006,0.012,0.01c0,0,0.001,0,0.001,0.001c0.004,0.003,0.008,0.006,0.012,0.01
			c0,0,0,0,0.001,0c0.022,0.018,0.044,0.034,0.066,0.051c0,0.001,0,0.001,0.001,0.001c0.004,0.003,0.008,0.006,0.012,0.009
			c0.001,0.001,0.002,0.002,0.002,0.002c0.004,0.003,0.008,0.006,0.012,0.009c0,0.001,0.001,0.001,0.002,0.002
			c0.004,0.003,0.008,0.006,0.012,0.009c0,0.001,0.001,0.001,0.001,0.001c0.018,0.014,0.036,0.027,0.053,0.04h0
			c0.004,0.003,0.008,0.007,0.012,0.01c0,0,0.001,0.001,0.002,0.001c0.004,0.003,0.007,0.006,0.011,0.009
			c0.001,0.001,0.002,0.002,0.003,0.002c0.003,0.003,0.007,0.006,0.011,0.009c0.001,0.001,0.002,0.001,0.003,0.002
			c0.004,0.003,0.008,0.006,0.012,0.009c0,0,0.001,0.001,0.002,0.001c0.017,0.013,0.035,0.025,0.052,0.038
			c0,0.001,0.001,0.001,0.001,0.001c0.004,0.003,0.008,0.006,0.012,0.009c0.001,0.001,0.002,0.001,0.003,0.002
			c0.004,0.003,0.007,0.005,0.011,0.008c0.001,0.001,0.003,0.002,0.004,0.003c0.003,0.003,0.007,0.005,0.011,0.008
			c0.001,0.001,0.002,0.002,0.003,0.003c0.004,0.002,0.008,0.005,0.011,0.008c0.001,0,0.002,0.001,0.003,0.002
			c0.017,0.012,0.034,0.023,0.05,0.036c0.001,0,0.002,0.001,0.003,0.002c0.004,0.003,0.007,0.005,0.011,0.008
			c0.001,0.001,0.003,0.002,0.004,0.003c0.003,0.002,0.006,0.005,0.01,0.007c0.001,0.001,0.003,0.002,0.005,0.004
			c0.003,0.002,0.007,0.004,0.01,0.007c0.002,0.001,0.003,0.002,0.005,0.003c0.003,0.002,0.007,0.005,0.01,0.007
			c0.002,0.001,0.003,0.002,0.005,0.003c0.012,0.009,0.023,0.017,0.036,0.025c0.001,0.001,0.002,0.001,0.003,0.002
			c0.003,0.002,0.006,0.005,0.01,0.007c0.001,0.001,0.003,0.002,0.005,0.004c0.003,0.002,0.006,0.004,0.009,0.006
			c0.002,0.002,0.004,0.003,0.006,0.004c0.003,0.002,0.006,0.004,0.009,0.007c0.002,0.001,0.004,0.002,0.006,0.004
			c0.003,0.002,0.006,0.004,0.009,0.006c0.002,0.002,0.004,0.003,0.006,0.004c0.002,0.002,0.004,0.003,0.006,0.005l1.127-1.652
			C131.116,210.96,130.146,209.928,129.446,208.75L129.446,208.75z M136.042,213.24l-0.31,1.976
			c0.337,0.053,0.679,0.091,1.025,0.112h0c0.018,0.002,0.035,0.003,0.053,0.004c0,0,0,0,0.001,0
			c0.018,0.001,0.035,0.002,0.053,0.003c0,0,0.001,0,0.002,0c0.005,0,0.011,0.001,0.017,0.001h0
			c0.012,0.001,0.023,0.001,0.035,0.002c0,0,0.001,0,0.002,0c0.005,0,0.01,0,0.016,0.001c0.001,0,0.001,0,0.002,0
			c0.011,0,0.023,0.001,0.035,0.001c0.001,0,0.001,0,0.002,0c0.005,0.001,0.01,0.001,0.015,0.001c0.001,0,0.001,0,0.002,0
			c0.012,0.001,0.023,0.001,0.035,0.002c0,0,0.001,0,0.001,0c0.005,0,0.01,0,0.016,0c0.001,0,0.002,0,0.003,0
			c0.006,0.001,0.011,0.001,0.017,0.001l0,0c0.006,0,0.012,0.001,0.018,0.001c0,0,0.001,0,0.001,0c0.005,0,0.01,0,0.016,0
			c0.001,0,0.002,0,0.003,0c0.004,0.001,0.01,0.001,0.015,0.001c0,0,0.001,0,0.002,0c0.005,0,0.012,0,0.017,0.001c0,0,0,0,0.001,0
			c0.005,0,0.01,0,0.016,0c0.001,0,0.003,0,0.004,0c0.004,0,0.009,0,0.014,0.001c0.001,0,0.002,0,0.003,0c0.006,0,0.011,0,0.017,0
			l0,0c0.006,0,0.011,0,0.017,0.001c0.001,0,0.003,0,0.004,0c0.004,0,0.008,0,0.013,0c0.001,0,0.003,0,0.004,0
			c0.011,0,0.022,0.001,0.034,0.001c0.001,0,0.002,0,0.003,0c0.004,0,0.009,0,0.013,0c0.001,0,0.003,0,0.004,0
			c0.004,0,0.01,0,0.015,0c0,0.001,0.001,0.001,0.002,0.001c0.006,0,0.011,0,0.017,0c0.001,0,0.002,0,0.003,0
			c0.004,0,0.008,0,0.013,0c0.001,0,0.003,0,0.005,0c0.004,0,0.009,0,0.013,0c0.001,0,0.002,0,0.003,0c0.005,0,0.011,0,0.017,0
			c0.001,0,0.002,0,0.003,0c0.005,0.001,0.009,0.001,0.013,0.001c0.002,0,0.003,0,0.005,0c0.004,0,0.008,0,0.012,0
			c0.001,0,0.003,0,0.004,0c0.006,0,0.011,0,0.017,0c0.001,0,0.001,0,0.002,0c0.004,0,0.009,0,0.014,0c0.001,0,0.003,0,0.005,0
			c0.004,0,0.008,0,0.012,0c0.001,0,0.003,0,0.005,0c0.005,0,0.011,0,0.017,0l0,0h3.243v-2h-3.243
			C137,213.351,136.516,213.313,136.042,213.24L136.042,213.24z M150.726,213.351h-5v2h5V213.351L150.726,213.351z M160.726,213.351
			h-5v2h5V213.351L160.726,213.351z M170.726,213.351h-5v2h5V213.351L170.726,213.351z M180.726,213.351h-5v2h5V213.351
			L180.726,213.351z M190.726,213.351h-5v2h5V213.351L190.726,213.351z M200.726,213.351h-5v2h5V213.351L200.726,213.351z
			 M210.726,213.351h-5v2h5V213.351L210.726,213.351z M220.726,213.351h-5v2h5V213.351L220.726,213.351z M230.726,213.351h-5v2h5
			V213.351L230.726,213.351z M240.726,213.351h-5v2h5V213.351L240.726,213.351z M250.726,213.351h-5v2h5V213.351L250.726,213.351z
			 M260.726,213.351h-5v2h5V213.351L260.726,213.351z M270.726,213.351h-5v2h5V213.351L270.726,213.351z M280.726,213.351h-5v2h5
			V213.351L280.726,213.351z M290.114,212.971c-0.852,0.252-1.736,0.38-2.631,0.38h-1.758v2h1.758l0,0c0.006,0,0.012,0,0.017,0
			c0.001,0,0.003,0,0.005,0c0.004,0,0.008,0,0.013,0c0.001,0,0.003,0,0.004,0c0.005,0,0.011,0,0.017,0c0.001,0,0.002,0,0.004,0
			c0.004,0,0.008,0,0.012,0c0.002,0,0.004,0,0.006,0c0.005,0,0.01,0,0.016,0c0,0,0.001,0,0.002,0c0.004,0,0.01,0,0.014-0.001
			c0.002,0,0.004,0,0.006,0c0.004,0,0.008,0,0.013,0c0.001,0,0.002,0,0.003,0c0.006,0,0.011,0,0.016,0c0.002,0,0.004,0,0.005,0
			c0.005,0,0.009,0,0.013,0c0.002,0,0.003,0,0.004,0c0.006,0,0.012,0,0.017,0c0.001,0,0.001,0,0.001,0
			c0.005-0.001,0.011-0.001,0.016-0.001c0.002,0,0.002,0,0.004,0c0.005,0,0.01,0,0.016,0c0,0,0,0,0.001,0
			c0.005,0,0.011,0,0.017-0.001c0.001,0,0.002,0,0.003,0c0.005,0,0.01,0,0.015,0c0.001,0,0.002,0,0.003,0c0.006,0,0.011,0,0.017,0
			h0.001c0.005,0,0.011-0.001,0.016-0.001c0.001,0,0.003,0,0.004,0c0.005,0,0.011,0,0.017,0l0,0c0.006,0,0.012-0.001,0.017-0.001
			c0.001,0,0.002,0,0.003,0c0.004,0,0.01,0,0.015,0c0.001,0,0.002,0,0.003,0c0.006-0.001,0.012-0.001,0.017-0.001
			c0.001,0,0.001,0,0.001,0c0.006,0,0.01,0,0.016-0.001c0.002,0,0.002,0,0.004,0c0.011,0,0.021,0,0.033-0.001
			c0.001,0,0.002,0,0.002,0c0.006,0,0.01,0,0.016-0.001c0.001,0,0.002,0,0.002,0c0.012,0,0.023,0,0.035-0.001c0,0,0.001,0,0.002,0
			c0.012-0.001,0.022-0.001,0.034-0.002c0.001,0,0.001,0,0.002,0c0.005,0,0.011,0,0.017,0c0,0,0,0,0-0.001c0.006,0,0.012,0,0.018,0
			h0.001c0.006-0.001,0.011-0.001,0.017-0.001h0.002c0.012-0.001,0.023-0.001,0.035-0.002c0,0,0,0,0.001,0
			c0.018-0.001,0.035-0.002,0.053-0.003h0.001c0.012-0.001,0.023-0.002,0.035-0.002c0,0,0,0,0.001,0
			c0.714-0.044,1.411-0.154,2.084-0.325l0,0c0.011-0.003,0.022-0.006,0.033-0.009c0.001,0,0.001,0,0.001,0
			c0.012-0.003,0.022-0.006,0.033-0.009c0,0,0.001,0,0.002,0c0.004-0.001,0.01-0.003,0.014-0.004c0.001,0,0.002,0,0.003,0
			c0.005-0.002,0.011-0.003,0.016-0.005c0.001,0,0.001,0,0.001,0c0.005-0.001,0.01-0.003,0.014-0.004
			c0.002,0,0.003-0.001,0.004-0.001c0.006-0.001,0.01-0.002,0.014-0.004c0.001,0,0.002,0,0.002,0
			c0.005-0.001,0.01-0.003,0.016-0.004c0.001-0.001,0.002-0.001,0.004-0.001c0.004-0.001,0.007-0.002,0.01-0.003
			c0.002-0.001,0.004-0.001,0.006-0.002c0.005-0.001,0.01-0.002,0.014-0.004c0.002,0,0.004-0.001,0.006-0.001
			c0.004-0.001,0.006-0.002,0.01-0.003c0.002,0,0.004-0.001,0.006-0.002c0.003,0,0.006-0.001,0.01-0.002
			c0.002-0.001,0.006-0.002,0.008-0.003c0.004,0,0.008-0.002,0.01-0.002c0.003-0.001,0.006-0.002,0.008-0.002
			c0.002-0.001,0.004-0.002,0.007-0.002c0.003-0.001,0.005-0.002,0.009-0.003c0.002,0,0.004-0.001,0.006-0.002
			c0.005-0.001,0.01-0.002,0.014-0.004c0.002,0,0.004-0.001,0.006-0.001c0.004-0.001,0.006-0.002,0.01-0.003
			c0.001,0,0.002-0.001,0.003-0.001c0.007-0.002,0.015-0.004,0.021-0.006c0.001,0,0,0,0.001,0c0.003-0.001,0.007-0.002,0.011-0.003
			c0.001-0.001,0.002-0.001,0.002-0.001c0.012-0.003,0.023-0.007,0.035-0.01l0,0c0.02-0.006,0.039-0.012,0.06-0.018L290.114,212.971
			L290.114,212.971z M296.075,207.661c-0.539,1.255-1.366,2.403-2.394,3.319l1.331,1.492c0.482-0.43,0.927-0.899,1.33-1.403l0,0
			c0.004-0.005,0.008-0.009,0.011-0.014l0,0c0.018-0.022,0.035-0.044,0.053-0.066c0,0,0,0,0-0.001
			c0.003-0.004,0.007-0.008,0.01-0.012c0.001-0.001,0.001-0.001,0.001-0.002c0.004-0.004,0.006-0.008,0.01-0.012
			c0-0.001,0.001-0.001,0.002-0.002c0.002-0.004,0.006-0.008,0.009-0.012c0.001-0.001,0.001-0.001,0.001-0.002
			c0.018-0.021,0.034-0.044,0.051-0.065c0,0,0-0.001,0.001-0.001c0.003-0.004,0.005-0.008,0.009-0.012
			c0-0.001,0.002-0.002,0.002-0.003c0.003-0.004,0.006-0.007,0.008-0.011c0.002-0.001,0.002-0.002,0.004-0.004
			c0.002-0.003,0.004-0.007,0.008-0.01c0-0.002,0.002-0.003,0.002-0.004c0.003-0.004,0.006-0.007,0.008-0.011
			c0.002-0.001,0.002-0.002,0.002-0.003c0.01-0.012,0.019-0.023,0.027-0.036c0.001-0.001,0.002-0.002,0.003-0.003
			c0.003-0.003,0.005-0.006,0.007-0.01c0.002-0.001,0.002-0.003,0.004-0.004c0.002-0.004,0.004-0.007,0.007-0.01
			c0.001-0.002,0.003-0.004,0.004-0.005c0.002-0.003,0.005-0.007,0.007-0.01c0.002-0.002,0.002-0.003,0.004-0.005
			c0.002-0.003,0.004-0.006,0.007-0.01c0.001-0.001,0.003-0.003,0.004-0.005c0.003-0.003,0.005-0.006,0.007-0.01
			c0.001-0.001,0.002-0.003,0.004-0.004c0.002-0.004,0.004-0.007,0.007-0.01c0.001-0.001,0.001-0.001,0.001-0.002
			c0.006-0.007,0.011-0.015,0.016-0.021c0.002-0.002,0.003-0.004,0.004-0.005c0.002-0.003,0.004-0.006,0.006-0.009
			c0.002-0.002,0.004-0.004,0.005-0.006c0.002-0.003,0.005-0.006,0.007-0.009c0.001-0.002,0.002-0.004,0.004-0.006
			c0.002-0.003,0.004-0.006,0.006-0.009c0.002-0.002,0.004-0.004,0.004-0.006c0.003-0.003,0.005-0.006,0.007-0.009
			c0.002-0.002,0.003-0.005,0.005-0.007c0.002-0.003,0.004-0.005,0.006-0.008c0.002-0.002,0.003-0.005,0.005-0.007
			c0.002-0.003,0.004-0.005,0.006-0.008c0.001-0.003,0.003-0.005,0.005-0.007c0.003-0.005,0.006-0.01,0.01-0.015
			c0.002-0.002,0.004-0.005,0.006-0.008c0.002-0.002,0.004-0.005,0.005-0.007c0.002-0.003,0.004-0.006,0.006-0.008
			c0.001-0.003,0.003-0.005,0.005-0.007c0.002-0.003,0.004-0.006,0.006-0.009c0.002-0.002,0.003-0.004,0.005-0.007
			s0.004-0.006,0.006-0.008c0.001-0.003,0.003-0.005,0.005-0.007c0.002-0.003,0.004-0.006,0.006-0.009
			c0.002-0.002,0.003-0.004,0.004-0.007c0.003-0.003,0.005-0.006,0.008-0.009c0.001-0.002,0.002-0.004,0.004-0.006
			c0.003-0.005,0.006-0.01,0.01-0.015c0-0.001,0.001-0.002,0.002-0.002c0.002-0.005,0.006-0.009,0.009-0.014
			c0.001-0.001,0.003-0.003,0.003-0.005c0.003-0.003,0.005-0.007,0.008-0.01c0.001-0.002,0.002-0.005,0.004-0.006
			c0.002-0.003,0.004-0.007,0.006-0.01c0.002-0.002,0.003-0.004,0.004-0.006c0.003-0.003,0.005-0.006,0.007-0.01
			c0.001-0.001,0.003-0.004,0.005-0.006c0.002-0.003,0.004-0.007,0.006-0.01c0.002-0.002,0.003-0.003,0.004-0.005
			c0.002-0.004,0.005-0.008,0.008-0.011c0-0.002,0.002-0.003,0.002-0.005c0.008-0.01,0.015-0.021,0.021-0.031
			c0.001-0.001,0.002-0.002,0.002-0.003c0.004-0.004,0.006-0.008,0.008-0.012c0.002-0.002,0.003-0.003,0.004-0.005
			c0.002-0.004,0.005-0.007,0.008-0.011c0-0.002,0.002-0.004,0.003-0.005c0.003-0.004,0.005-0.008,0.007-0.011
			c0.002-0.002,0.002-0.003,0.004-0.005c0.002-0.004,0.004-0.008,0.007-0.011c0.001-0.002,0.002-0.003,0.003-0.005
			c0.003-0.004,0.006-0.009,0.009-0.013c0.001-0.001,0.001-0.002,0.001-0.003c0.008-0.01,0.015-0.021,0.021-0.031
			c0-0.001,0.001-0.002,0.002-0.003c0.002-0.004,0.006-0.008,0.008-0.013c0.002-0.001,0.002-0.003,0.003-0.004
			c0.003-0.004,0.005-0.008,0.008-0.012c0.001-0.002,0.002-0.003,0.003-0.005c0.002-0.003,0.005-0.007,0.008-0.011
			c0-0.002,0.002-0.003,0.002-0.005c0.003-0.004,0.006-0.008,0.008-0.012c0.001-0.001,0.002-0.003,0.003-0.004
			c0.003-0.004,0.006-0.009,0.009-0.013c0-0.001,0.001-0.002,0.002-0.003c0.006-0.011,0.014-0.021,0.02-0.031
			c0.001-0.001,0.002-0.003,0.002-0.003c0.003-0.005,0.006-0.009,0.008-0.013c0.002-0.002,0.002-0.003,0.004-0.005
			c0.002-0.004,0.004-0.008,0.007-0.011c0.001-0.002,0.002-0.004,0.003-0.005c0.002-0.004,0.005-0.008,0.008-0.012
			c0-0.002,0.001-0.003,0.002-0.005c0.003-0.003,0.006-0.007,0.008-0.011c0.001-0.002,0.002-0.003,0.002-0.005
			c0.004-0.004,0.006-0.009,0.01-0.014c0,0,0-0.001,0-0.002c0.008-0.011,0.014-0.021,0.021-0.032c0,0,0-0.001,0.001-0.002
			c0.003-0.005,0.005-0.009,0.009-0.014c0-0.001,0.001-0.003,0.002-0.004c0.002-0.004,0.005-0.008,0.008-0.012
			c0-0.002,0.002-0.003,0.002-0.005c0.003-0.004,0.006-0.008,0.008-0.012c0-0.001,0.002-0.003,0.002-0.004
			c0.003-0.004,0.006-0.009,0.008-0.013c0.001-0.001,0.002-0.002,0.002-0.003c0.004-0.005,0.006-0.01,0.01-0.015
			c0-0.001,0-0.001,0-0.002c0.008-0.011,0.014-0.021,0.021-0.032c0.001-0.001,0.001-0.001,0.001-0.002
			c0.003-0.005,0.006-0.009,0.009-0.014c0.001-0.002,0.001-0.003,0.003-0.004c0.002-0.004,0.004-0.009,0.006-0.012
			c0.002-0.002,0.003-0.004,0.004-0.006c0.002-0.003,0.004-0.007,0.007-0.011c0.001-0.002,0.001-0.003,0.003-0.005
			c0.002-0.004,0.004-0.008,0.007-0.012c0.001-0.001,0.002-0.003,0.003-0.004c0.002-0.005,0.006-0.01,0.008-0.015
			c0,0,0.001-0.001,0.001-0.002c0.007-0.011,0.013-0.021,0.02-0.032c0.001-0.001,0.001-0.002,0.002-0.003
			c0.003-0.004,0.005-0.009,0.008-0.013c0.001-0.002,0.002-0.004,0.003-0.005c0.002-0.004,0.004-0.008,0.006-0.012
			c0.002-0.001,0.002-0.003,0.004-0.005c0.002-0.004,0.004-0.008,0.006-0.011c0.002-0.002,0.002-0.004,0.004-0.006
			c0.002-0.004,0.004-0.008,0.006-0.012c0.001-0.001,0.002-0.003,0.003-0.004c0.003-0.005,0.005-0.009,0.008-0.014
			c0.001-0.001,0.001-0.002,0.001-0.003c0.007-0.011,0.014-0.021,0.02-0.032c0-0.001,0.002-0.003,0.002-0.004
			c0.002-0.004,0.005-0.008,0.008-0.012c0-0.002,0.002-0.004,0.002-0.006c0.002-0.003,0.004-0.007,0.007-0.011
			c0.001-0.002,0.002-0.004,0.003-0.006c0.002-0.003,0.004-0.007,0.006-0.011c0.002-0.002,0.002-0.004,0.004-0.005
			c0.002-0.004,0.004-0.008,0.006-0.011c0.001-0.003,0.002-0.004,0.003-0.006c0.003-0.004,0.005-0.008,0.007-0.012
			c0.001-0.002,0.002-0.003,0.002-0.005c0.004-0.005,0.006-0.011,0.01-0.016c0-0.001,0-0.001,0-0.001
			c0.003-0.005,0.006-0.011,0.009-0.016c0.001-0.001,0.002-0.003,0.003-0.004c0.002-0.004,0.004-0.008,0.006-0.012
			c0.002-0.002,0.003-0.005,0.004-0.006c0.002-0.004,0.004-0.007,0.006-0.011c0.001-0.002,0.002-0.004,0.003-0.006
			c0.002-0.004,0.004-0.007,0.006-0.011c0.001-0.002,0.003-0.004,0.003-0.006c0.002-0.004,0.004-0.007,0.006-0.011
			c0.002-0.002,0.002-0.004,0.004-0.006c0.002-0.004,0.004-0.007,0.006-0.011c0.001-0.002,0.002-0.004,0.003-0.006
			c0.003-0.005,0.006-0.01,0.009-0.016c0-0.001,0-0.001,0.001-0.002c0.003-0.005,0.005-0.01,0.008-0.015
			c0.001-0.002,0.002-0.003,0.003-0.006c0.002-0.003,0.004-0.006,0.006-0.01c0.002-0.003,0.002-0.005,0.004-0.007
			c0.002-0.003,0.003-0.006,0.005-0.009c0.001-0.003,0.003-0.006,0.004-0.008c0.001-0.003,0.003-0.006,0.005-0.009
			c0.001-0.003,0.002-0.005,0.004-0.008s0.004-0.006,0.005-0.009s0.003-0.005,0.004-0.008s0.003-0.006,0.005-0.009
			c0.001-0.002,0.002-0.005,0.004-0.007c0.002-0.003,0.003-0.006,0.004-0.009c0.004-0.005,0.006-0.011,0.009-0.016
			c0.001-0.002,0.003-0.005,0.004-0.008s0.003-0.006,0.005-0.009c0.001-0.002,0.002-0.005,0.004-0.007
			c0.002-0.003,0.003-0.006,0.004-0.009c0.002-0.003,0.004-0.005,0.004-0.008c0.002-0.003,0.004-0.006,0.006-0.009
			c0.001-0.003,0.002-0.005,0.003-0.007c0.002-0.003,0.003-0.007,0.005-0.01c0.002-0.002,0.002-0.005,0.004-0.007
			c0.002-0.003,0.004-0.006,0.005-0.01c0.001-0.002,0.002-0.004,0.003-0.006c0.002-0.003,0.004-0.007,0.006-0.01
			c0-0.001,0-0.002,0.001-0.003c0.005-0.008,0.009-0.017,0.013-0.025c0.001-0.001,0.002-0.002,0.002-0.003
			c0.002-0.004,0.004-0.008,0.006-0.012c0-0.001,0.002-0.003,0.002-0.005c0.002-0.003,0.004-0.007,0.006-0.011
			c0.001-0.001,0.002-0.003,0.003-0.005c0.002-0.004,0.003-0.007,0.005-0.011c0.002-0.002,0.002-0.004,0.003-0.005
			c0.002-0.004,0.004-0.008,0.006-0.012c0.001-0.001,0.001-0.003,0.002-0.004c0.003-0.004,0.005-0.009,0.007-0.013
			c0,0,0-0.001,0-0.002c0.01-0.02,0.021-0.039,0.03-0.059c0-0.001,0-0.001,0.001-0.001c0.002-0.005,0.004-0.01,0.006-0.014
			c0.001-0.001,0.001-0.002,0.002-0.003c0.002-0.004,0.004-0.009,0.006-0.014c0,0,0.001-0.001,0.002-0.002
			c0.002-0.004,0.004-0.009,0.006-0.014c0,0,0.001-0.001,0.001-0.002c0.085-0.174,0.167-0.35,0.243-0.528L296.075,207.661
			L296.075,207.661z M298.822,198.572h-2v5h2V198.572L298.822,198.572z M298.822,188.572h-2v5h2V188.572L298.822,188.572z
			 M298.822,178.572h-2v5h2V178.572L298.822,178.572z M298.822,168.572h-2v5h2V168.572L298.822,168.572z M298.822,158.572h-2v5h2
			V158.572L298.822,158.572z M298.822,148.572h-2v5h2V148.572L298.822,148.572z M298.822,138.572h-2v5h2V138.572L298.822,138.572z
			 M298.822,128.572h-2v5h2V128.572L298.822,128.572z M298.822,118.572h-2v5h2V118.572L298.822,118.572z M298.822,108.572h-2v5h2
			V108.572L298.822,108.572z M298.822,98.572h-2v5h2V98.572L298.822,98.572z M298.822,88.572h-2v5h2V88.572L298.822,88.572z
			 M298.822,78.572h-2v5h2V78.572L298.822,78.572z M298.822,68.572h-2v5h2V68.572L298.822,68.572z M298.822,58.572h-2v5h2V58.572
			L298.822,58.572z M298.822,48.572h-2v5h2V48.572L298.822,48.572z M298.822,38.572h-2v5h2V38.572L298.822,38.572z M298.822,28.572
			h-2v5h2V28.572L298.822,28.572z M298.822,18.572h-2v5h2V18.572L298.822,18.572z M295.214,9.583l-1.365,1.461
			c1.006,0.94,1.805,2.107,2.312,3.374l1.856-0.743c-0.122-0.305-0.257-0.604-0.404-0.896c-0.001,0-0.001-0.001-0.001-0.001
			c-0.003-0.005-0.006-0.011-0.008-0.016c0,0,0,0-0.001-0.001c-0.003-0.005-0.005-0.011-0.009-0.016c0,0,0,0,0-0.001
			c-0.012-0.023-0.023-0.046-0.035-0.069c0,0-0.001-0.001-0.002-0.002c-0.002-0.005-0.004-0.01-0.007-0.015
			c-0.001-0.001-0.001-0.002-0.001-0.003c-0.003-0.004-0.006-0.009-0.008-0.014c0-0.001-0.002-0.002-0.002-0.003
			c-0.002-0.005-0.005-0.01-0.008-0.014c0-0.001,0-0.002-0.001-0.002c-0.003-0.005-0.005-0.011-0.009-0.016c0,0,0,0,0,0
			c-0.006-0.012-0.012-0.023-0.018-0.035v0c-0.004-0.005-0.006-0.011-0.01-0.016c0-0.001,0-0.002-0.001-0.003
			c-0.003-0.004-0.005-0.009-0.007-0.013c-0.001-0.001-0.002-0.003-0.002-0.004c-0.003-0.004-0.006-0.008-0.008-0.013
			c0-0.001-0.001-0.003-0.002-0.004c-0.002-0.004-0.004-0.009-0.007-0.013c-0.001-0.001-0.001-0.003-0.002-0.004
			c-0.003-0.005-0.005-0.01-0.008-0.015c-0.001,0-0.001-0.001-0.001-0.002c-0.006-0.011-0.012-0.022-0.019-0.034
			c0,0-0.001-0.001-0.001-0.001c-0.002-0.005-0.006-0.01-0.008-0.015c-0.001-0.001-0.002-0.003-0.002-0.004
			c-0.003-0.004-0.005-0.008-0.008-0.012c0-0.002-0.001-0.003-0.002-0.005c-0.002-0.003-0.004-0.007-0.006-0.011
			c-0.002-0.001-0.002-0.004-0.004-0.005c-0.002-0.004-0.004-0.007-0.006-0.011c-0.001-0.002-0.002-0.003-0.003-0.005
			c-0.002-0.004-0.005-0.008-0.007-0.012c0-0.001-0.002-0.003-0.002-0.004c-0.006-0.011-0.012-0.021-0.019-0.032
			c-0.001-0.001-0.001-0.003-0.003-0.004c-0.002-0.004-0.004-0.008-0.006-0.012c-0.001-0.002-0.002-0.004-0.004-0.006
			c-0.002-0.003-0.004-0.007-0.006-0.01c0-0.002-0.002-0.004-0.003-0.006c-0.002-0.003-0.004-0.007-0.006-0.01
			c-0.001-0.002-0.003-0.004-0.003-0.006c-0.002-0.003-0.004-0.007-0.006-0.01c-0.002-0.002-0.003-0.004-0.004-0.007
			c-0.002-0.003-0.004-0.007-0.006-0.01c-0.002-0.002-0.002-0.003-0.004-0.005c-0.002-0.005-0.005-0.01-0.008-0.014
			c0,0,0-0.001-0.001-0.002c-0.003-0.005-0.006-0.011-0.009-0.016c-0.001-0.001-0.002-0.003-0.004-0.005
			c-0.002-0.003-0.004-0.007-0.006-0.011c-0.001-0.002-0.002-0.004-0.004-0.007c-0.002-0.003-0.004-0.006-0.005-0.009
			c-0.001-0.002-0.003-0.004-0.005-0.007c-0.001-0.003-0.003-0.006-0.005-0.009c-0.001-0.002-0.003-0.005-0.004-0.007
			c-0.002-0.003-0.003-0.006-0.005-0.009c-0.002-0.002-0.003-0.005-0.004-0.007c-0.002-0.002-0.004-0.006-0.006-0.008
			s-0.003-0.005-0.004-0.008c-0.002-0.003-0.004-0.007-0.007-0.01c-0.001-0.002-0.001-0.003-0.003-0.005
			c-0.003-0.005-0.006-0.011-0.009-0.016c-0.001-0.002-0.003-0.004-0.004-0.006c-0.002-0.003-0.004-0.006-0.006-0.01
			c-0.001-0.002-0.003-0.004-0.004-0.007c-0.002-0.003-0.003-0.006-0.005-0.008s-0.004-0.005-0.005-0.008
			c-0.002-0.003-0.003-0.005-0.005-0.008c-0.002-0.002-0.003-0.005-0.005-0.008c-0.001-0.002-0.003-0.005-0.005-0.008
			c-0.002-0.002-0.003-0.005-0.004-0.008c-0.002-0.002-0.004-0.005-0.006-0.008c-0.001-0.003-0.002-0.005-0.004-0.008
			c-0.002-0.003-0.004-0.005-0.005-0.008c-0.003-0.005-0.007-0.01-0.01-0.016c-0.001-0.002-0.003-0.004-0.005-0.006
			c-0.001-0.003-0.003-0.006-0.004-0.009c-0.002-0.002-0.004-0.005-0.005-0.007c-0.002-0.003-0.003-0.005-0.005-0.009
			c-0.002-0.002-0.004-0.005-0.005-0.007c-0.002-0.003-0.003-0.005-0.005-0.008c-0.002-0.002-0.003-0.005-0.005-0.007
			c-0.001-0.003-0.003-0.006-0.005-0.009c-0.002-0.002-0.003-0.004-0.004-0.007c-0.002-0.003-0.004-0.005-0.006-0.009
			c-0.002-0.002-0.003-0.004-0.004-0.006c-0.002-0.003-0.004-0.006-0.006-0.009c-0.002-0.002-0.002-0.004-0.004-0.006
			c-0.007-0.011-0.014-0.022-0.021-0.033c-0.001-0.002-0.003-0.004-0.004-0.006c-0.002-0.003-0.004-0.006-0.006-0.009
			c-0.001-0.002-0.003-0.004-0.004-0.006c-0.002-0.003-0.004-0.006-0.005-0.009c-0.002-0.002-0.004-0.004-0.005-0.006
			c-0.002-0.003-0.004-0.006-0.005-0.009c-0.002-0.002-0.004-0.004-0.005-0.006c-0.002-0.003-0.004-0.006-0.006-0.009
			c-0.001-0.002-0.003-0.004-0.004-0.006c-0.002-0.003-0.004-0.006-0.006-0.009c-0.001-0.002-0.003-0.004-0.003-0.006
			c-0.008-0.011-0.016-0.023-0.022-0.034c-0.001-0.001-0.002-0.003-0.003-0.004c-0.002-0.003-0.004-0.007-0.007-0.01
			c-0.001-0.001-0.002-0.003-0.003-0.005c-0.002-0.003-0.004-0.006-0.006-0.009c-0.002-0.002-0.004-0.004-0.004-0.006
			c-0.002-0.003-0.004-0.006-0.006-0.009c-0.002-0.002-0.004-0.004-0.005-0.006c-0.002-0.003-0.004-0.006-0.006-0.009
			c-0.001-0.002-0.003-0.004-0.004-0.006c-0.002-0.003-0.004-0.006-0.006-0.009c-0.001-0.002-0.002-0.003-0.003-0.005
			c-0.008-0.011-0.016-0.023-0.023-0.035c-0.001-0.001-0.002-0.003-0.003-0.005c-0.002-0.003-0.005-0.006-0.007-0.01
			c-0.001-0.001-0.002-0.003-0.003-0.005c-0.002-0.003-0.005-0.007-0.007-0.01c-0.001-0.002-0.002-0.004-0.004-0.006
			c-0.002-0.003-0.004-0.006-0.006-0.009c-0.002-0.002-0.002-0.003-0.004-0.005c-0.002-0.003-0.004-0.006-0.006-0.009
			c-0.002-0.002-0.003-0.004-0.004-0.006c-0.002-0.003-0.004-0.006-0.006-0.009c-0.002-0.001-0.003-0.003-0.004-0.004
			c-0.008-0.012-0.016-0.024-0.023-0.036c-0.002-0.001-0.002-0.002-0.003-0.003c-0.002-0.003-0.005-0.007-0.007-0.011
			c-0.002-0.001-0.002-0.003-0.004-0.004c-0.002-0.003-0.004-0.006-0.006-0.01c-0.002-0.002-0.002-0.003-0.004-0.005
			c-0.002-0.004-0.004-0.007-0.007-0.01c-0.001-0.001-0.002-0.003-0.003-0.004c-0.002-0.003-0.005-0.007-0.007-0.01
			c-0.001-0.001-0.003-0.003-0.003-0.004c-0.003-0.003-0.006-0.007-0.008-0.011c0-0.001-0.001-0.001-0.002-0.002
			c-0.009-0.013-0.018-0.025-0.025-0.038c-0.001-0.001-0.002-0.002-0.002-0.002c-0.003-0.004-0.005-0.007-0.008-0.011
			c-0.001-0.001-0.002-0.003-0.003-0.004c-0.003-0.003-0.005-0.006-0.007-0.01c-0.002-0.001-0.002-0.003-0.004-0.005
			c-0.002-0.003-0.004-0.006-0.006-0.01c-0.002-0.001-0.003-0.003-0.004-0.005c-0.002-0.003-0.005-0.006-0.008-0.01
			c0-0.001-0.002-0.002-0.002-0.004c-0.003-0.003-0.006-0.007-0.008-0.011c-0.001-0.001-0.002-0.002-0.002-0.003
			c-0.01-0.013-0.019-0.025-0.027-0.038c0,0,0,0-0.001-0.001c-0.003-0.004-0.005-0.007-0.008-0.011
			c-0.001-0.001-0.002-0.002-0.003-0.003c-0.002-0.003-0.005-0.007-0.008-0.01c0-0.001-0.002-0.003-0.002-0.004
			c-0.003-0.003-0.006-0.007-0.008-0.01c-0.001-0.001-0.002-0.003-0.003-0.004c-0.003-0.004-0.005-0.007-0.008-0.011
			c-0.001-0.001-0.001-0.002-0.003-0.003c-0.002-0.004-0.005-0.008-0.008-0.011c0,0,0-0.001-0.001-0.001
			c-0.009-0.014-0.019-0.027-0.028-0.04l-0.001,0c-0.003-0.004-0.006-0.008-0.009-0.012c0-0.001-0.001-0.002-0.002-0.003
			c-0.002-0.003-0.005-0.007-0.008-0.01c-0.001-0.001-0.002-0.003-0.003-0.004c-0.003-0.003-0.005-0.006-0.007-0.01
			c-0.002-0.001-0.003-0.003-0.004-0.004c-0.002-0.003-0.005-0.007-0.008-0.01c0-0.001-0.002-0.003-0.003-0.004
			c-0.003-0.003-0.005-0.007-0.007-0.011c-0.002,0-0.002-0.001-0.002-0.002c-0.01-0.012-0.02-0.025-0.029-0.038c0,0,0-0.001,0-0.001
			c-0.004-0.003-0.006-0.007-0.009-0.01c-0.001-0.001-0.002-0.003-0.003-0.004c-0.002-0.003-0.005-0.006-0.008-0.01
			c0-0.002-0.002-0.003-0.003-0.005c-0.003-0.003-0.005-0.006-0.007-0.01c-0.002-0.001-0.003-0.003-0.004-0.004
			c-0.002-0.003-0.005-0.007-0.008-0.01c0-0.001-0.002-0.002-0.003-0.004c-0.003-0.004-0.005-0.007-0.008-0.011
			c-0.001,0-0.001-0.001-0.002-0.002c-0.013-0.017-0.025-0.034-0.038-0.05c-0.001,0-0.002-0.002-0.002-0.003
			c-0.003-0.003-0.006-0.007-0.008-0.01c-0.002-0.001-0.003-0.002-0.004-0.004c-0.002-0.003-0.005-0.007-0.008-0.01
			c-0.001-0.001-0.002-0.003-0.003-0.004c-0.003-0.004-0.005-0.007-0.008-0.01c-0.001-0.001-0.002-0.002-0.003-0.004
			c-0.002-0.003-0.006-0.007-0.008-0.01c-0.001-0.001-0.002-0.002-0.002-0.002c-0.014-0.017-0.026-0.033-0.039-0.05
			c-0.001,0-0.002-0.001-0.002-0.002c-0.004-0.003-0.006-0.007-0.009-0.01c-0.001-0.001-0.002-0.003-0.003-0.004
			c-0.003-0.003-0.006-0.007-0.008-0.01c-0.002-0.001-0.002-0.002-0.004-0.004c-0.002-0.003-0.005-0.006-0.008-0.01
			c-0.001-0.001-0.002-0.002-0.003-0.004c-0.003-0.003-0.005-0.007-0.009-0.01c0-0.001,0-0.001-0.002-0.002
			c-0.013-0.017-0.025-0.033-0.039-0.049c0,0-0.002-0.001-0.002-0.002c-0.003-0.003-0.006-0.007-0.008-0.01
			c-0.002-0.001-0.003-0.002-0.004-0.004c-0.002-0.003-0.006-0.006-0.008-0.01c-0.001-0.001-0.002-0.002-0.004-0.004
			c-0.002-0.003-0.005-0.006-0.008-0.01c0-0.001-0.002-0.002-0.003-0.004c-0.003-0.003-0.005-0.007-0.009-0.01
			c0-0.001-0.001-0.002-0.002-0.003c-0.013-0.016-0.026-0.032-0.039-0.048c-0.001-0.001-0.002-0.002-0.003-0.003
			c-0.003-0.003-0.005-0.006-0.009-0.009c0-0.001-0.002-0.003-0.003-0.004c-0.003-0.003-0.005-0.006-0.008-0.01
			c-0.001-0.001-0.003-0.002-0.003-0.004c-0.003-0.003-0.006-0.006-0.009-0.01c-0.001-0.001-0.002-0.002-0.003-0.003
			c-0.003-0.003-0.006-0.007-0.009-0.01c-0.001-0.001-0.001-0.001-0.002-0.002c-0.013-0.016-0.026-0.032-0.04-0.048
			c-0.002-0.001-0.002-0.002-0.003-0.003c-0.003-0.003-0.005-0.006-0.009-0.01c0-0.001-0.002-0.002-0.003-0.004
			c-0.003-0.003-0.005-0.006-0.009-0.01c0-0.001-0.002-0.002-0.002-0.003c-0.004-0.003-0.006-0.006-0.01-0.01
			c0-0.001-0.002-0.002-0.002-0.003c-0.004-0.003-0.006-0.007-0.01-0.01c0-0.001-0.001-0.002-0.002-0.003
			c-0.014-0.016-0.027-0.031-0.041-0.047c0-0.001-0.002-0.002-0.002-0.003c-0.003-0.003-0.006-0.006-0.009-0.009
			c-0.001-0.001-0.002-0.003-0.003-0.004c-0.004-0.003-0.006-0.006-0.009-0.009c-0.001-0.001-0.002-0.002-0.003-0.004
			c-0.004-0.003-0.006-0.006-0.009-0.009c-0.001-0.001-0.002-0.003-0.003-0.004c-0.003-0.003-0.006-0.007-0.009-0.01
			c-0.001-0.001-0.002-0.002-0.003-0.003c-0.014-0.016-0.027-0.031-0.041-0.046c-0.001-0.001-0.002-0.002-0.003-0.003
			c-0.003-0.003-0.005-0.006-0.008-0.009c-0.001-0.001-0.003-0.003-0.004-0.004c-0.003-0.003-0.005-0.006-0.009-0.009
			c-0.001-0.001-0.002-0.003-0.004-0.004c-0.002-0.003-0.005-0.006-0.008-0.009c-0.001-0.001-0.002-0.003-0.004-0.004
			c-0.002-0.003-0.006-0.006-0.008-0.009c-0.001-0.001-0.002-0.002-0.004-0.003c-0.002-0.003-0.006-0.006-0.008-0.01
			c-0.001,0-0.002-0.001-0.002-0.001c-0.007-0.007-0.014-0.016-0.021-0.023c0,0,0,0,0-0.001c-0.003-0.003-0.006-0.006-0.009-0.009
			c-0.001-0.001-0.003-0.002-0.003-0.004c-0.004-0.003-0.006-0.006-0.009-0.009c-0.001-0.001-0.003-0.003-0.004-0.004
			c-0.003-0.003-0.005-0.006-0.009-0.009c-0.001-0.001-0.002-0.003-0.004-0.004c-0.002-0.003-0.005-0.006-0.008-0.009
			c-0.001-0.001-0.002-0.003-0.004-0.004c-0.003-0.003-0.006-0.006-0.008-0.009c-0.002-0.001-0.003-0.003-0.004-0.004
			c-0.004-0.003-0.006-0.006-0.009-0.009c-0.001,0-0.001-0.001-0.002-0.002c-0.011-0.011-0.021-0.021-0.03-0.032
			c-0.001-0.001-0.002-0.003-0.004-0.004c-0.002-0.003-0.005-0.006-0.008-0.009c-0.002-0.001-0.003-0.003-0.004-0.005
			c-0.003-0.002-0.006-0.005-0.008-0.008c-0.002-0.002-0.004-0.003-0.005-0.005c-0.003-0.003-0.005-0.005-0.008-0.008
			c-0.001-0.002-0.003-0.003-0.005-0.005c-0.002-0.003-0.005-0.005-0.008-0.008c-0.001-0.001-0.002-0.003-0.004-0.005
			c-0.003-0.002-0.006-0.005-0.008-0.008c-0.002-0.001-0.003-0.002-0.004-0.003c-0.01-0.01-0.02-0.02-0.029-0.03
			c-0.001-0.001-0.002-0.003-0.004-0.004c-0.002-0.003-0.005-0.005-0.008-0.008c-0.002-0.002-0.003-0.003-0.005-0.005
			c-0.003-0.002-0.005-0.005-0.007-0.008c-0.002-0.001-0.004-0.003-0.006-0.005c-0.002-0.002-0.005-0.005-0.008-0.008
			c-0.001-0.002-0.002-0.003-0.004-0.005c-0.003-0.002-0.006-0.005-0.008-0.008c-0.002-0.001-0.004-0.003-0.006-0.005
			c-0.002-0.003-0.004-0.005-0.007-0.008c-0.002-0.001-0.003-0.003-0.005-0.005c-0.006-0.006-0.012-0.012-0.018-0.018
			c-0.001,0-0.002-0.001-0.002-0.002c-0.003-0.003-0.006-0.006-0.008-0.008c-0.002-0.001-0.004-0.003-0.005-0.005
			c-0.003-0.002-0.005-0.005-0.008-0.007c-0.001-0.002-0.003-0.004-0.005-0.005c-0.003-0.003-0.006-0.005-0.008-0.008
			c-0.002-0.001-0.004-0.003-0.006-0.005c-0.002-0.002-0.004-0.005-0.007-0.007c-0.002-0.002-0.004-0.004-0.005-0.005
			c-0.003-0.002-0.006-0.005-0.008-0.007c-0.002-0.002-0.004-0.004-0.006-0.006c-0.002-0.002-0.004-0.005-0.007-0.007
			c-0.002-0.002-0.004-0.004-0.006-0.006c-0.005-0.005-0.011-0.011-0.017-0.016c0-0.001-0.002-0.002-0.002-0.003
			c-0.004-0.003-0.006-0.005-0.009-0.008c-0.001-0.001-0.003-0.003-0.005-0.004c-0.002-0.002-0.005-0.005-0.008-0.008
			c-0.002-0.001-0.003-0.003-0.005-0.005c-0.003-0.003-0.005-0.005-0.008-0.008c-0.001-0.001-0.003-0.003-0.005-0.005
			c-0.002-0.003-0.005-0.005-0.008-0.008c-0.002-0.001-0.004-0.003-0.006-0.005c-0.002-0.002-0.004-0.005-0.007-0.007
			c-0.002-0.001-0.004-0.003-0.005-0.005c-0.004-0.002-0.006-0.004-0.008-0.007c-0.002-0.002-0.004-0.004-0.006-0.006
			c-0.006-0.005-0.012-0.011-0.017-0.016c-0.001-0.001-0.002-0.002-0.003-0.003c-0.002-0.002-0.006-0.005-0.008-0.007
			c-0.002-0.001-0.004-0.003-0.006-0.005c-0.002-0.002-0.004-0.005-0.007-0.007c-0.002-0.002-0.004-0.004-0.006-0.006
			c-0.003-0.002-0.005-0.004-0.007-0.007c-0.002-0.002-0.004-0.003-0.006-0.005c-0.003-0.002-0.005-0.005-0.008-0.007
			c-0.002-0.002-0.004-0.003-0.006-0.005c-0.002-0.002-0.005-0.005-0.007-0.007s-0.004-0.004-0.006-0.006
			c-0.003-0.002-0.005-0.005-0.007-0.007s-0.004-0.004-0.006-0.006c-0.01-0.009-0.02-0.017-0.028-0.026
			c-0.001-0.002-0.003-0.003-0.005-0.005c-0.003-0.002-0.005-0.005-0.008-0.007c-0.002-0.001-0.004-0.003-0.006-0.005
			c-0.002-0.002-0.005-0.005-0.008-0.007c-0.002-0.001-0.003-0.003-0.005-0.005c-0.003-0.002-0.005-0.005-0.008-0.007
			c-0.002-0.002-0.003-0.003-0.005-0.005S295.216,9.584,295.214,9.583L295.214,9.583z M287.483,6.52v2
			c0.971,0,1.928,0.15,2.844,0.446l0.615-1.903c-0.386-0.124-0.779-0.229-1.181-0.311c-0.001,0,0,0-0.001,0
			c-0.022-0.005-0.045-0.009-0.068-0.014l0,0c-0.023-0.004-0.046-0.009-0.069-0.014l0,0c-0.018-0.003-0.034-0.006-0.052-0.01l0,0
			c-0.018-0.003-0.035-0.006-0.052-0.01c-0.001,0-0.001,0-0.001,0c-0.018-0.003-0.034-0.006-0.052-0.009l0,0
			c-0.006-0.001-0.011-0.002-0.017-0.003h-0.001c-0.017-0.003-0.034-0.006-0.052-0.009c0,0,0,0-0.001,0
			c-0.017-0.003-0.034-0.006-0.052-0.009c0,0,0,0-0.001,0c-0.005-0.001-0.011-0.002-0.017-0.003l0,0
			c-0.012-0.002-0.023-0.004-0.035-0.006l0,0c-0.006-0.001-0.011-0.002-0.017-0.002c-0.001,0-0.001,0-0.001,0
			c-0.018-0.002-0.035-0.005-0.051-0.008c-0.002,0-0.002,0-0.002,0c-0.006-0.001-0.012-0.001-0.016-0.002c-0.001,0-0.002,0-0.002,0
			c-0.012-0.002-0.022-0.003-0.033-0.005c-0.002,0-0.002,0-0.002,0c-0.006-0.001-0.011-0.002-0.016-0.002c-0.001,0-0.002,0-0.002,0
			c-0.012-0.001-0.023-0.003-0.035-0.005l0,0c-0.005-0.001-0.01-0.001-0.016-0.002c-0.001,0-0.002,0-0.002,0
			c-0.006,0-0.012-0.001-0.017-0.002c-0.001,0-0.001,0-0.001,0c-0.011-0.001-0.022-0.003-0.033-0.004c-0.002,0-0.002,0-0.003,0
			c-0.005-0.001-0.01-0.001-0.015-0.002c-0.001,0-0.002,0-0.002,0c-0.012-0.001-0.023-0.003-0.034-0.004c-0.001,0-0.001,0-0.002,0
			c-0.005,0-0.01-0.001-0.015-0.002c-0.001,0-0.002,0-0.003,0c-0.005,0-0.011-0.001-0.017-0.002l0,0
			c-0.006-0.001-0.012-0.001-0.018-0.002c0,0,0,0-0.001,0c-0.005,0-0.011-0.001-0.015-0.002c-0.002,0-0.003,0-0.004,0
			c-0.004,0-0.01-0.001-0.014-0.002c-0.002,0-0.002,0-0.003,0c-0.011-0.001-0.022-0.003-0.034-0.004c0,0-0.002,0-0.002,0
			c-0.005,0-0.01-0.001-0.014-0.001c-0.002,0-0.003,0-0.004,0c-0.012-0.001-0.022-0.003-0.033-0.004c-0.001,0-0.002,0-0.002,0
			c-0.006,0-0.01-0.001-0.015-0.001c-0.001,0-0.003,0-0.004,0c-0.005,0-0.009-0.001-0.013-0.001c-0.002,0-0.003,0-0.004,0
			c-0.006,0-0.012-0.001-0.017-0.002c-0.001,0-0.001,0-0.001,0c-0.006,0-0.01-0.001-0.016-0.002c-0.001,0-0.002,0-0.004,0
			c-0.004,0-0.008-0.001-0.013-0.001c-0.001,0-0.003,0-0.004,0c-0.011-0.001-0.022-0.002-0.032-0.004c-0.002,0-0.004,0-0.005,0
			c-0.004,0-0.009,0-0.013-0.001c-0.001,0-0.003,0-0.004,0c-0.005,0-0.01-0.001-0.014-0.001c-0.002,0-0.002,0-0.003,0
			c-0.006,0-0.011-0.001-0.017-0.001c-0.001,0-0.002,0-0.004,0c-0.004,0-0.008-0.001-0.013-0.001c-0.001,0-0.003,0-0.005,0
			c-0.004,0-0.008,0-0.012-0.001c-0.002,0-0.003,0-0.004,0c-0.006,0-0.012-0.001-0.018-0.001v0c-0.005,0-0.011-0.001-0.016-0.001
			c-0.002,0-0.003,0-0.004,0c-0.005,0-0.01,0-0.014-0.001c-0.001,0-0.002,0-0.004,0c-0.005,0-0.01-0.001-0.016-0.001l0,0
			c-0.006,0-0.012-0.001-0.018-0.001c-0.001,0-0.002,0-0.003,0c-0.005,0-0.009,0-0.013-0.001c-0.002,0-0.004,0-0.006,0
			c-0.004,0-0.008-0.001-0.013-0.001c-0.001,0-0.002,0-0.003,0c-0.006,0-0.012-0.001-0.017-0.001c-0.001,0-0.002,0-0.003,0
			c-0.004,0-0.009-0.001-0.014-0.001c-0.002,0-0.003,0-0.004,0c-0.005,0-0.009,0-0.013-0.001c-0.001,0-0.003,0-0.005,0
			c-0.012-0.001-0.021-0.002-0.033-0.003c-0.001,0-0.002,0-0.004,0c-0.004,0-0.008,0-0.012-0.001c-0.002,0-0.004,0-0.005,0
			c-0.005,0-0.009-0.001-0.014-0.001c-0.001,0-0.002,0-0.003,0c-0.006,0-0.012-0.001-0.017-0.001c-0.001,0-0.003,0-0.003,0
			c-0.006,0-0.01,0-0.014-0.001c-0.002,0-0.004,0-0.005,0c-0.005,0-0.009,0-0.013-0.001c-0.001,0-0.002,0-0.004,0
			c-0.006,0-0.011-0.001-0.016-0.001c-0.002,0-0.002,0-0.004,0c-0.004,0-0.009,0-0.014-0.001c-0.002,0-0.003,0-0.004,0
			c-0.004,0-0.009,0-0.013,0c-0.001,0-0.003,0-0.005,0c-0.004,0-0.009,0-0.014-0.001c-0.001,0-0.002,0-0.003,0
			c-0.005,0-0.011-0.001-0.017-0.001c-0.001,0-0.002,0-0.004,0c-0.004,0-0.008,0-0.012-0.001c-0.002,0-0.004,0-0.006,0
			c-0.004,0-0.008,0-0.012-0.001c-0.002,0-0.004,0-0.004,0c-0.006,0-0.012-0.001-0.018-0.001c0,0-0.002,0-0.002,0
			c-0.005,0-0.01,0-0.014,0c-0.002,0-0.004,0-0.006,0c-0.004,0-0.008,0-0.012,0c-0.002,0-0.003,0-0.005,0
			c-0.005,0-0.011,0-0.016-0.001h-0.001c-0.005,0-0.01,0-0.016-0.001c-0.002,0-0.004,0-0.006,0c-0.004,0-0.007,0-0.011,0
			c-0.002,0-0.004,0-0.006,0c-0.005,0-0.009,0-0.013,0c-0.001,0-0.002,0-0.004,0c-0.005,0-0.011,0-0.016,0c-0.002,0-0.003,0-0.004,0
			c-0.005,0-0.009,0-0.014,0c-0.001,0-0.003,0-0.004,0c-0.005,0-0.009,0-0.013,0c-0.001,0-0.003,0-0.005,0c-0.006,0-0.011,0-0.016,0
			c-0.001,0-0.002,0-0.002,0c-0.006,0-0.01,0-0.016-0.001c-0.001,0-0.003,0-0.004,0c-0.004,0-0.009,0-0.013,0
			c-0.001,0-0.003,0-0.005,0c-0.004,0-0.01,0-0.014,0c-0.001,0-0.002,0-0.003,0c-0.006,0-0.011,0-0.017,0c-0.001,0-0.003,0-0.004,0
			c-0.004,0-0.008,0-0.012,0c-0.002,0-0.004,0-0.006,0c-0.004,0-0.008,0-0.013,0c-0.001,0-0.003,0-0.004,0c-0.005,0-0.011,0-0.017,0
			c-0.001,0-0.002,0-0.004,0c-0.004,0-0.008,0-0.013,0c-0.001,0-0.003,0-0.005,0c-0.004,0-0.009,0-0.012,0c-0.002,0-0.004,0-0.006,0
			c-0.006,0-0.01,0-0.016,0l0,0c-0.006,0-0.012,0-0.017,0c-0.002,0-0.004,0-0.005,0c-0.004,0-0.009,0-0.012,0
			c-0.002,0-0.004,0-0.006,0c-0.004,0-0.009,0-0.014,0c0,0-0.002,0-0.003,0c-0.005,0-0.011,0-0.017,0c-0.001,0-0.002,0-0.004,0
			c-0.004,0-0.008,0-0.013,0c-0.002,0-0.003,0-0.005,0c-0.004,0-0.008,0-0.013,0c-0.001,0-0.003,0-0.005,0c-0.005,0-0.01,0-0.016,0
			c-0.001,0-0.002,0-0.003,0c-0.005,0-0.009,0-0.015,0c-0.001,0-0.003,0-0.004,0c-0.004,0-0.008,0-0.012,0c-0.002,0-0.004,0-0.006,0
			c-0.006,0-0.01,0-0.015,0c-0.001,0-0.001,0-0.002,0c-0.006,0-0.011,0-0.017,0c-0.002,0-0.003,0-0.004,0c-0.004,0-0.009,0-0.013,0
			c-0.002,0-0.004,0-0.005,0c-0.005,0-0.009,0-0.013,0c-0.002,0-0.003,0-0.005,0c-0.006,0-0.011,0-0.016,0c-0.002,0-0.003,0-0.004,0
			c-0.004,0-0.01,0-0.014,0c-0.002,0-0.004,0-0.006,0c-0.004,0-0.008,0-0.011,0c-0.002,0-0.004,0-0.005,0
			C287.495,6.52,287.489,6.52,287.483,6.52L287.483,6.52z"/>
	</g>
	<rect x="149.755" y="31.189" fill="#D099C4" width="125.457" height="86.482"/>
	
		<line fill="none" stroke="#D9D9D9" stroke-width="8" stroke-miterlimit="10" x1="275.212" y1="138.981" x2="149.755" y2="138.981"/>
	<line fill="none" stroke="#D9D9D9" stroke-width="8" stroke-miterlimit="10" x1="275.212" y1="158.45" x2="149.755" y2="158.45"/>
	
		<line fill="none" stroke="#D9D9D9" stroke-width="8" stroke-miterlimit="10" x1="212.483" y1="177.917" x2="149.755" y2="177.917"/>
</g>
<path fill="#8C5889" d="M243.725,51.056c-56.888,20.902-43.42,45.855-38.724,52.236c5.36-9.912,20.705-25.757,20.705-25.757
	c-5.734,7.908-11.21,20.167-14.711,28.812C246.079,114.909,243.725,51.056,243.725,51.056z"/>
<path fill="#8C5889" d="M213.489,40.834c-21.272,18.029-11.507,26.681-8.469,28.695c0.748-5.131,4.873-14.404,4.873-14.404
	c-1.228,4.324-1.654,10.486-1.799,14.775C224.606,68.051,213.489,40.834,213.489,40.834z"/>
<g>
	<g>
		<path fill="#ECECEC" d="M96.55,272.629c-5.701,0-10.338-4.638-10.338-10.339V76.137c0-5.701,4.638-10.338,10.338-10.338h150.001
			c5.701,0,10.338,4.638,10.338,10.338v186.154c0,5.701-4.638,10.339-10.338,10.339H96.55z"/>
		<path fill="#D9D9D9" d="M246.551,66.798c5.149,0,9.338,4.189,9.338,9.338v186.154c0,5.149-4.189,9.339-9.338,9.339H96.55
			c-5.149,0-9.338-4.189-9.338-9.339V76.137c0-5.149,4.189-9.338,9.338-9.338H246.551 M246.551,64.798H96.55
			c-6.236,0-11.338,5.103-11.338,11.338v186.154c0,6.236,5.103,11.339,11.338,11.339h150.001c6.236,0,11.338-5.103,11.338-11.339
			V76.137C257.89,69.901,252.787,64.798,246.551,64.798L246.551,64.798z"/>
	</g>
	<rect x="108.822" y="89.467" fill="#D9D9D9" width="125.457" height="86.482"/>
	
		<line fill="none" stroke="#D9D9D9" stroke-width="8" stroke-miterlimit="10" x1="234.279" y1="197.259" x2="108.822" y2="197.259"/>
	
		<line fill="none" stroke="#D9D9D9" stroke-width="8" stroke-miterlimit="10" x1="234.279" y1="216.728" x2="108.822" y2="216.728"/>
	
		<line fill="none" stroke="#D9D9D9" stroke-width="8" stroke-miterlimit="10" x1="171.551" y1="236.196" x2="108.822" y2="236.196"/>
</g>
<g>
	<g>
		<path fill="#ECECEC" d="M57.55,272.629c-5.701,0-10.338-4.638-10.338-10.339V76.137c0-5.701,4.638-10.338,10.338-10.338h150.001
			c5.701,0,10.338,4.638,10.338,10.338v186.154c0,5.701-4.638,10.339-10.338,10.339H57.55z"/>
		<path fill="#D9D9D9" d="M207.551,66.798c5.149,0,9.338,4.189,9.338,9.338v186.154c0,5.149-4.189,9.339-9.338,9.339H57.55
			c-5.149,0-9.338-4.189-9.338-9.339V76.137c0-5.149,4.189-9.338,9.338-9.338H207.551 M207.551,64.798H57.55
			c-6.236,0-11.338,5.103-11.338,11.338v186.154c0,6.236,5.103,11.339,11.338,11.339h150.001c6.236,0,11.338-5.103,11.338-11.339
			V76.137C218.89,69.901,213.787,64.798,207.551,64.798L207.551,64.798z"/>
	</g>
	<rect x="69.822" y="89.467" fill="#D9D9D9" width="125.457" height="86.482"/>
	<line fill="none" stroke="#D9D9D9" stroke-width="8" stroke-miterlimit="10" x1="195.279" y1="197.259" x2="69.822" y2="197.259"/>
	<line fill="none" stroke="#D9D9D9" stroke-width="8" stroke-miterlimit="10" x1="195.279" y1="216.728" x2="69.822" y2="216.728"/>
	<line fill="none" stroke="#D9D9D9" stroke-width="8" stroke-miterlimit="10" x1="132.551" y1="236.196" x2="69.822" y2="236.196"/>
</g>
<g>
	<g>
		<path fill="#FFFFFF" d="M177.822,204.012c0,6.236-5.103,11.339-11.338,11.339H16.483c-6.236,0-11.338-5.103-11.338-11.339V17.858
			c0-6.236,5.103-11.338,11.338-11.338h150.001c6.236,0,11.338,5.103,11.338,11.338V204.012z"/>
		<path fill="#D9D9D9" d="M166.484,6.52h-5v2h5V6.52L166.484,6.52L166.484,6.52z M156.484,6.52h-5v2h5V6.52L156.484,6.52z
			 M146.484,6.52h-5v2h5V6.52L146.484,6.52z M136.484,6.52h-5v2h5V6.52L136.484,6.52z M126.484,6.52h-5v2h5V6.52L126.484,6.52z
			 M116.484,6.52h-5v2h5V6.52L116.484,6.52z M106.484,6.52h-5v2h5V6.52L106.484,6.52z M96.484,6.52h-5v2h5V6.52L96.484,6.52z
			 M86.484,6.52h-5v2h5V6.52L86.484,6.52z M76.484,6.52h-5v2h5V6.52L76.484,6.52z M66.484,6.52h-5v2h5V6.52L66.484,6.52z
			 M56.484,6.52h-5v2h5V6.52L56.484,6.52z M46.484,6.52h-5v2h5V6.52L46.484,6.52z M36.484,6.52h-5v2h5V6.52L36.484,6.52z
			 M26.484,6.52h-5v2h5V6.52L26.484,6.52z M16.483,6.52c0,0,0,0-0.001,0c-0.004,0-0.008,0-0.013,0c-0.003,0-0.007,0-0.011,0
			c-0.002,0-0.004,0-0.005,0c-1.137,0.003-2.235,0.176-3.271,0.493c0,0,0,0-0.001,0c-0.005,0.001-0.011,0.003-0.016,0.005
			c-0.001,0-0.003,0-0.004,0.001c-0.004,0.001-0.008,0.003-0.013,0.004c-0.001,0-0.004,0.001-0.005,0.002
			c-0.003,0.001-0.007,0.002-0.01,0.003c-0.002,0.001-0.006,0.002-0.008,0.002c-0.002,0.001-0.004,0.001-0.007,0.002
			c-0.003,0.001-0.007,0.002-0.011,0.003c-0.002,0-0.004,0.001-0.006,0.001c-0.004,0.001-0.008,0.002-0.012,0.004
			c-0.001,0-0.003,0.001-0.004,0.001c-0.004,0.001-0.008,0.002-0.013,0.004c0,0-0.001,0-0.002,0
			c-0.005,0.001-0.009,0.003-0.014,0.004c-0.001,0-0.002,0.001-0.003,0.001c-0.005,0.001-0.009,0.003-0.014,0.004
			c-0.001,0-0.002,0.001-0.002,0.001c-0.005,0.001-0.01,0.003-0.015,0.005c0,0-0.001,0-0.002,0c-0.005,0.001-0.01,0.003-0.016,0.005
			l0,0c-0.467,0.152-0.92,0.333-1.359,0.542l0.859,1.806c1.25-0.595,2.589-0.896,3.979-0.896L16.483,6.52L16.483,6.52z
			 M7.737,10.664c-0.374,0.454-0.714,0.937-1.015,1.444l0,0c-0.012,0.02-0.023,0.039-0.035,0.059c0,0,0,0,0,0
			c-0.008,0.015-0.017,0.029-0.025,0.043c0,0,0,0,0,0.001c-0.002,0.004-0.005,0.009-0.008,0.013c0,0.001,0,0.001-0.001,0.002
			c-0.002,0.004-0.005,0.009-0.008,0.013c0,0,0,0.001-0.001,0.001c-0.005,0.009-0.01,0.018-0.016,0.027c0,0.001,0,0.001-0.001,0.002
			c-0.002,0.004-0.005,0.009-0.007,0.013c0,0.001-0.001,0.002-0.001,0.003c-0.002,0.004-0.005,0.008-0.007,0.012
			c0,0.001-0.001,0.002-0.001,0.003c-0.002,0.004-0.005,0.008-0.007,0.013c0,0,0,0.001-0.001,0.002
			c-0.002,0.004-0.004,0.008-0.007,0.012c0,0,0,0.001-0.001,0.002c-0.002,0.004-0.005,0.008-0.007,0.012
			c-0.001,0.001-0.001,0.002-0.002,0.004c-0.002,0.004-0.005,0.008-0.007,0.012c0,0.001-0.001,0.002-0.002,0.003
			c-0.002,0.004-0.004,0.008-0.007,0.012c0,0.001-0.001,0.002-0.001,0.003c-0.002,0.004-0.004,0.007-0.006,0.011
			c0,0.001-0.001,0.002-0.001,0.003c-0.002,0.004-0.004,0.008-0.006,0.012c-0.001,0.001-0.001,0.003-0.002,0.004
			c-0.002,0.003-0.004,0.007-0.006,0.011c0,0.001-0.001,0.003-0.002,0.004c-0.002,0.004-0.004,0.008-0.006,0.012
			c-0.001,0.001-0.002,0.003-0.002,0.004c-0.002,0.003-0.003,0.006-0.005,0.009c-0.001,0.001-0.002,0.003-0.003,0.005
			c-0.002,0.003-0.003,0.006-0.005,0.01c-0.001,0.001-0.002,0.003-0.003,0.005c-0.002,0.003-0.004,0.007-0.006,0.01
			c0,0.002-0.001,0.003-0.002,0.005c-0.002,0.003-0.004,0.007-0.006,0.01c-0.001,0.002-0.002,0.004-0.003,0.005
			c-0.001,0.002-0.003,0.006-0.004,0.008s-0.002,0.005-0.004,0.007c-0.001,0.003-0.003,0.005-0.004,0.008
			c-0.001,0.002-0.002,0.004-0.003,0.006c-0.002,0.003-0.003,0.006-0.005,0.01c-0.001,0.002-0.002,0.004-0.003,0.006
			c-0.002,0.003-0.003,0.006-0.005,0.01c-0.001,0.002-0.002,0.004-0.003,0.006c-0.001,0.002-0.002,0.004-0.003,0.007
			c-0.002,0.003-0.003,0.006-0.005,0.009c-0.001,0.002-0.002,0.004-0.003,0.006c-0.001,0.003-0.003,0.005-0.004,0.008
			s-0.002,0.005-0.004,0.008c-0.001,0.002-0.002,0.004-0.003,0.006c-0.002,0.003-0.003,0.006-0.005,0.01
			c-0.001,0.002-0.002,0.004-0.003,0.006c-0.001,0.002-0.002,0.004-0.003,0.006c-0.001,0.003-0.003,0.006-0.005,0.01
			c-0.001,0.002-0.002,0.003-0.003,0.005c-0.001,0.003-0.003,0.007-0.005,0.01c-0.001,0.002-0.002,0.004-0.003,0.006
			c-0.001,0.002-0.002,0.004-0.003,0.006c-0.002,0.003-0.003,0.006-0.005,0.01c-0.001,0.002-0.002,0.004-0.004,0.007
			c-0.001,0.002-0.002,0.003-0.003,0.005c-0.001,0.004-0.003,0.007-0.005,0.011c-0.001,0.002-0.001,0.003-0.002,0.005
			c-0.002,0.004-0.004,0.008-0.006,0.012c0,0.001-0.001,0.002-0.002,0.004c-0.001,0.003-0.003,0.006-0.005,0.01
			c-0.001,0.002-0.002,0.004-0.003,0.007c-0.001,0.002-0.002,0.005-0.004,0.007c-0.001,0.001-0.001,0.003-0.002,0.005
			c-0.002,0.004-0.004,0.008-0.006,0.012c-0.001,0.001-0.001,0.002-0.002,0.004c-0.002,0.004-0.004,0.008-0.006,0.013
			c-0.001,0.001-0.001,0.002-0.002,0.004c-0.003,0.005-0.005,0.011-0.008,0.016l0,0c-0.001,0.003-0.003,0.005-0.004,0.008
			c0,0.001,0,0.001-0.001,0.002c-0.002,0.005-0.005,0.01-0.007,0.015c0,0-0.001,0.001-0.001,0.002
			c-0.002,0.005-0.005,0.01-0.008,0.015c0,0,0,0.001,0,0.002c-0.007,0.014-0.014,0.028-0.021,0.042c0,0,0,0.001,0,0.001
			c-0.343,0.697-0.617,1.434-0.812,2.201l1.938,0.492c0.335-1.32,0.976-2.579,1.852-3.641L7.737,10.664L7.737,10.664z M7.145,20.056
			h-2v5h2V20.056L7.145,20.056z M7.145,30.056h-2v5h2V30.056L7.145,30.056z M7.145,40.056h-2v5h2V40.056L7.145,40.056z
			 M7.145,50.056h-2v5h2V50.056L7.145,50.056z M7.145,60.056h-2v5h2V60.056L7.145,60.056z M7.145,70.056h-2v5h2V70.056L7.145,70.056
			z M7.145,80.056h-2v5h2V80.056L7.145,80.056z M7.145,90.056h-2v5h2V90.056L7.145,90.056z M7.145,100.056h-2v5h2V100.056
			L7.145,100.056z M7.145,110.056h-2v5h2V110.056L7.145,110.056z M7.145,120.056h-2v5h2V120.056L7.145,120.056z M7.145,130.056h-2v5
			h2V130.056L7.145,130.056z M7.145,140.056h-2v5h2V140.056L7.145,140.056z M7.145,150.056h-2v5h2V150.056L7.145,150.056z
			 M7.145,160.056h-2v5h2V160.056L7.145,160.056z M7.145,170.056h-2v5h2V170.056L7.145,170.056z M7.145,180.056h-2v5h2V180.056
			L7.145,180.056z M7.145,190.056h-2v5h2V190.056L7.145,190.056z M7.145,200.056h-2v3.956l0,0c0,0.006,0,0.012,0,0.018
			c0,0.002,0,0.004,0,0.006c0,0.004,0,0.008,0,0.012c0,0.002,0,0.005,0,0.007c0,0.004,0,0.007,0,0.01s0,0.006,0,0.008
			c0,0.004,0,0.007,0,0.01s0,0.006,0,0.008c0,0.003,0,0.007,0,0.01s0,0.005,0,0.008c0,0.004,0,0.006,0,0.01c0,0.003,0,0.005,0,0.008
			s0,0.007,0,0.01s0,0.005,0,0.008c0,0.003,0,0.007,0,0.01s0,0.005,0,0.008c0,0.004,0,0.007,0,0.011c0,0.003,0,0.007,0,0.01
			c0,0.005,0,0.009,0,0.014c0,0.003,0,0.006,0,0.009c0,0.002,0,0.006,0,0.008c0,0.004,0,0.007,0,0.01c0,0.002,0,0.005,0,0.008
			s0,0.006,0,0.01c0,0.002,0,0.005,0,0.007c0,0.004,0,0.007,0,0.011c0,0.002,0,0.004,0,0.007c0,0.003,0,0.007,0,0.01
			s0,0.005,0,0.007c0,0.004,0,0.008,0,0.011c0,0.002,0,0.004,0,0.005c0,0.005,0,0.009,0,0.013c0,0.001,0,0.002,0,0.003
			c0,0.026,0.001,0.053,0.002,0.079c0,0,0,0,0,0.001c0,0.005,0,0.01,0,0.015c0,0.001,0,0.001,0,0.002c0,0.005,0,0.01,0,0.015
			c0,0,0,0.001,0,0.002c0,0.005,0,0.01,0,0.015c0,0.001,0,0.001,0,0.001c0.006,0.152,0.015,0.304,0.026,0.454v0.001
			c0,0.005,0.001,0.009,0.001,0.014c0,0.001,0,0.003,0,0.004c0,0.004,0,0.008,0.001,0.012c0,0.002,0,0.004,0,0.006
			c0,0.003,0,0.007,0.001,0.011c0,0.002,0,0.004,0,0.006c0,0.004,0,0.007,0,0.011c0,0.003,0,0.005,0.001,0.008
			c0,0.003,0,0.006,0,0.009c0,0.003,0,0.007,0.001,0.011c0,0.002,0,0.004,0,0.006c0.002,0.021,0.004,0.044,0.006,0.065l1.992-0.184
			c-0.026-0.284-0.04-0.573-0.04-0.859V200.056L7.145,200.056z M8.446,208.75l-1.72,1.021c0.001,0.001,0.001,0.002,0.002,0.003
			c0.002,0.003,0.004,0.007,0.006,0.01c0.001,0.002,0.002,0.004,0.003,0.006c0.002,0.004,0.004,0.008,0.007,0.011
			c0.001,0.002,0.002,0.004,0.003,0.005c0.003,0.006,0.006,0.011,0.009,0.016c0,0,0,0,0,0.001c0.003,0.005,0.006,0.01,0.01,0.016
			c0.001,0.002,0.002,0.003,0.003,0.005c0.002,0.004,0.004,0.008,0.006,0.011c0.001,0.002,0.002,0.004,0.004,0.006
			c0.002,0.004,0.004,0.007,0.006,0.01c0.001,0.002,0.003,0.005,0.004,0.007c0.002,0.003,0.004,0.006,0.006,0.01
			c0.001,0.002,0.002,0.004,0.004,0.006c0.002,0.003,0.004,0.006,0.005,0.01c0.001,0.002,0.003,0.004,0.004,0.007
			c0.002,0.003,0.004,0.006,0.005,0.009c0.001,0.002,0.003,0.005,0.004,0.007c0.002,0.004,0.004,0.007,0.007,0.011
			c0.001,0.003,0.003,0.005,0.005,0.008c0.002,0.004,0.005,0.008,0.007,0.012c0.001,0.003,0.003,0.005,0.004,0.008
			c0.002,0.003,0.003,0.005,0.005,0.008c0.002,0.003,0.003,0.006,0.005,0.008c0.001,0.003,0.003,0.005,0.004,0.008
			c0.002,0.003,0.003,0.005,0.005,0.008c0.001,0.003,0.003,0.005,0.004,0.008c0.002,0.003,0.003,0.006,0.005,0.008
			c0.001,0.003,0.003,0.005,0.004,0.008c0.002,0.003,0.003,0.005,0.005,0.008c0.001,0.003,0.002,0.004,0.004,0.007
			c0.002,0.003,0.004,0.006,0.006,0.009c0,0.001,0.001,0.002,0.001,0.003c0.005,0.008,0.01,0.016,0.015,0.023
			c0,0.001,0.001,0.002,0.002,0.003c0.002,0.004,0.004,0.007,0.006,0.01c0.001,0.002,0.002,0.004,0.004,0.006
			c0.002,0.004,0.003,0.006,0.006,0.01c0.001,0.002,0.002,0.004,0.004,0.006c0.002,0.003,0.003,0.006,0.006,0.009
			c0.001,0.002,0.002,0.005,0.004,0.007c0.002,0.003,0.004,0.006,0.006,0.009c0.001,0.002,0.002,0.004,0.003,0.006
			c0.002,0.003,0.004,0.007,0.006,0.01c0.001,0.001,0.002,0.003,0.003,0.004c0.008,0.014,0.017,0.026,0.026,0.04l0,0
			c0.002,0.004,0.005,0.008,0.007,0.011c0.001,0.002,0.001,0.003,0.002,0.005c0.002,0.003,0.005,0.007,0.007,0.01
			c0.001,0.002,0.002,0.003,0.003,0.005c0.002,0.003,0.004,0.007,0.006,0.01c0.001,0.002,0.002,0.004,0.003,0.005
			c0.002,0.004,0.004,0.008,0.007,0.011c0.001,0.001,0.001,0.003,0.002,0.004c0.002,0.004,0.005,0.008,0.007,0.012
			c0,0,0.001,0.001,0.001,0.002c0.012,0.018,0.024,0.035,0.036,0.053c0,0.001,0.001,0.002,0.002,0.003
			c0.002,0.004,0.005,0.008,0.008,0.012c0,0.001,0.001,0.002,0.002,0.003c0.002,0.004,0.005,0.008,0.008,0.011
			c0,0.002,0.001,0.003,0.002,0.004c0.002,0.004,0.005,0.008,0.007,0.012c0.001,0.001,0.001,0.002,0.002,0.002
			c0.016,0.023,0.031,0.046,0.047,0.068c0,0,0,0.001,0,0.001c0.003,0.005,0.006,0.009,0.009,0.013c0,0.001,0.001,0.001,0.001,0.002
			c0.003,0.004,0.006,0.008,0.009,0.012c0,0.001,0.001,0.002,0.001,0.003c0.003,0.004,0.006,0.008,0.009,0.013h0
			c0.016,0.023,0.032,0.047,0.048,0.069c0,0,0,0,0,0c0.003,0.005,0.006,0.01,0.009,0.014c0,0,0,0.001,0.001,0.001
			c0.002,0.004,0.006,0.009,0.009,0.013c0,0.001,0.001,0.001,0.001,0.002c0.023,0.032,0.046,0.063,0.069,0.096l0,0
			c0.003,0.005,0.007,0.009,0.01,0.014l0,0c0.55,0.754,1.191,1.437,1.905,2.034l0,0c0.004,0.004,0.009,0.008,0.013,0.012l0,0
			c0.03,0.024,0.061,0.05,0.091,0.075c0,0,0.001,0,0.001,0.001c0.004,0.003,0.008,0.006,0.013,0.01c0,0,0,0,0,0.001
			c0.031,0.024,0.061,0.049,0.092,0.073c0,0.001,0.001,0.001,0.001,0.001c0.004,0.004,0.008,0.007,0.012,0.01
			c0,0.001,0.001,0.001,0.001,0.001c0.004,0.004,0.008,0.007,0.012,0.011h0c0.022,0.018,0.044,0.035,0.066,0.052l0,0.001
			c0.004,0.003,0.008,0.006,0.012,0.01c0,0,0.001,0,0.002,0.001c0.004,0.003,0.008,0.006,0.012,0.01c0,0,0.001,0,0.001,0.001
			c0.004,0.003,0.008,0.006,0.012,0.01c0,0,0,0,0.001,0c0.022,0.018,0.044,0.034,0.066,0.051c0,0.001,0,0.001,0.001,0.001
			c0.004,0.003,0.008,0.006,0.012,0.009c0.001,0.001,0.002,0.002,0.002,0.002c0.004,0.003,0.008,0.006,0.012,0.009
			c0,0.001,0.001,0.001,0.002,0.002c0.004,0.003,0.008,0.006,0.012,0.009c0,0.001,0.001,0.001,0.001,0.001
			c0.018,0.014,0.036,0.027,0.053,0.04h0c0.004,0.003,0.008,0.007,0.012,0.01c0,0,0.001,0.001,0.002,0.001
			c0.004,0.003,0.007,0.006,0.011,0.009c0.001,0.001,0.002,0.002,0.003,0.002c0.003,0.003,0.007,0.006,0.011,0.009
			c0.001,0.001,0.002,0.001,0.003,0.002c0.004,0.003,0.008,0.006,0.012,0.009c0,0,0.001,0.001,0.002,0.001
			c0.017,0.013,0.035,0.025,0.052,0.038c0,0.001,0.001,0.001,0.001,0.001c0.004,0.003,0.008,0.006,0.012,0.009
			c0.001,0.001,0.002,0.001,0.003,0.002c0.004,0.003,0.007,0.005,0.011,0.008c0.001,0.001,0.003,0.002,0.004,0.003
			c0.003,0.003,0.007,0.005,0.011,0.008c0.001,0.001,0.002,0.002,0.003,0.003c0.004,0.002,0.008,0.005,0.011,0.008
			c0.001,0,0.002,0.001,0.003,0.002c0.017,0.012,0.034,0.023,0.05,0.036c0.001,0,0.002,0.001,0.004,0.002
			c0.003,0.003,0.007,0.005,0.01,0.008c0.001,0.001,0.003,0.002,0.004,0.003c0.003,0.002,0.006,0.005,0.01,0.007
			c0.001,0.001,0.003,0.002,0.005,0.004c0.003,0.002,0.007,0.004,0.01,0.007c0.002,0.001,0.003,0.002,0.005,0.003
			c0.003,0.002,0.007,0.005,0.01,0.007c0.002,0.001,0.003,0.002,0.005,0.003c0.012,0.009,0.023,0.017,0.036,0.025
			c0.001,0.001,0.002,0.001,0.003,0.002c0.003,0.002,0.006,0.005,0.01,0.007c0.001,0.001,0.003,0.002,0.005,0.004
			c0.003,0.002,0.006,0.004,0.009,0.006c0.002,0.002,0.004,0.003,0.006,0.004c0.003,0.002,0.006,0.004,0.009,0.007
			c0.002,0.001,0.004,0.002,0.006,0.004c0.003,0.002,0.006,0.004,0.009,0.006c0.002,0.002,0.004,0.003,0.006,0.004
			c0.002,0.002,0.004,0.003,0.006,0.005l1.127-1.652C10.116,210.96,9.146,209.928,8.446,208.75L8.446,208.75z M15.042,213.24
			l-0.31,1.976c0.337,0.053,0.679,0.091,1.025,0.112h0c0.018,0.002,0.035,0.003,0.053,0.004c0,0,0,0,0.001,0
			c0.018,0.001,0.035,0.002,0.053,0.003c0,0,0.001,0,0.002,0c0.005,0,0.011,0.001,0.017,0.001h0
			c0.012,0.001,0.023,0.001,0.035,0.002c0,0,0.001,0,0.002,0c0.005,0,0.01,0,0.016,0.001c0,0,0.001,0,0.002,0
			c0.011,0,0.023,0.001,0.035,0.001c0.001,0,0.001,0,0.002,0c0.005,0.001,0.01,0.001,0.015,0.001c0.001,0,0.001,0,0.002,0
			c0.012,0.001,0.023,0.001,0.035,0.002c0,0,0.001,0,0.001,0c0.005,0,0.01,0,0.016,0c0.001,0,0.002,0,0.003,0
			c0.006,0.001,0.011,0.001,0.017,0.001l0,0c0.006,0,0.012,0.001,0.018,0.001c0,0,0.001,0,0.001,0c0.005,0,0.01,0,0.016,0
			c0.001,0,0.002,0,0.003,0c0.004,0.001,0.01,0.001,0.015,0.001c0,0,0.001,0,0.002,0c0.005,0,0.012,0,0.017,0.001c0,0,0,0,0.001,0
			c0.005,0,0.01,0,0.016,0c0.001,0,0.002,0,0.003,0c0.004,0,0.009,0,0.014,0.001c0.001,0,0.002,0,0.003,0c0.006,0,0.011,0,0.017,0
			l0,0c0.006,0,0.011,0,0.017,0.001c0.001,0,0.003,0,0.004,0c0.004,0,0.008,0,0.013,0c0.001,0,0.003,0,0.004,0
			c0.011,0,0.022,0.001,0.034,0.001c0.001,0,0.002,0,0.003,0c0.004,0,0.009,0,0.013,0c0.001,0,0.003,0,0.004,0
			c0.004,0,0.01,0,0.015,0c0,0.001,0.001,0.001,0.002,0.001c0.006,0,0.011,0,0.017,0c0.001,0,0.002,0,0.003,0
			c0.004,0,0.008,0,0.013,0c0.001,0,0.003,0,0.005,0c0.005,0,0.009,0,0.013,0c0.001,0,0.002,0,0.003,0c0.005,0,0.011,0,0.017,0
			c0.001,0,0.002,0,0.003,0c0.005,0.001,0.008,0.001,0.013,0.001c0.002,0,0.003,0,0.005,0c0.004,0,0.008,0,0.012,0
			c0.001,0,0.003,0,0.004,0c0.006,0,0.011,0,0.017,0c0.001,0,0.001,0,0.002,0c0.004,0,0.009,0,0.014,0c0.001,0,0.003,0,0.005,0
			c0.004,0,0.008,0,0.012,0c0.001,0,0.003,0,0.005,0c0.005,0,0.011,0,0.017,0l0,0h3.243v-2h-3.243
			C16,213.351,15.516,213.313,15.042,213.24L15.042,213.24z M29.726,213.351h-5v2h5V213.351L29.726,213.351z M39.726,213.351h-5v2h5
			V213.351L39.726,213.351z M49.726,213.351h-5v2h5V213.351L49.726,213.351z M59.726,213.351h-5v2h5V213.351L59.726,213.351z
			 M69.726,213.351h-5v2h5V213.351L69.726,213.351z M79.726,213.351h-5v2h5V213.351L79.726,213.351z M89.726,213.351h-5v2h5V213.351
			L89.726,213.351z M99.726,213.351h-5v2h5V213.351L99.726,213.351z M109.726,213.351h-5v2h5V213.351L109.726,213.351z
			 M119.726,213.351h-5v2h5V213.351L119.726,213.351z M129.726,213.351h-5v2h5V213.351L129.726,213.351z M139.726,213.351h-5v2h5
			V213.351L139.726,213.351z M149.726,213.351h-5v2h5V213.351L149.726,213.351z M159.726,213.351h-5v2h5V213.351L159.726,213.351z
			 M169.114,212.971c-0.851,0.252-1.736,0.38-2.63,0.38h-1.758v2h1.758l0,0c0.005,0,0.011,0,0.016,0c0.001,0,0.003,0,0.005,0
			c0.004,0,0.008,0,0.013,0c0.001,0,0.003,0,0.004,0c0.005,0,0.011,0,0.016,0c0.001,0,0.002,0,0.004,0c0.004,0,0.009,0,0.012,0
			c0.002,0,0.003,0,0.005,0c0.005,0,0.01,0,0.016,0c0.001,0,0.001,0,0.002,0c0.005,0,0.01,0,0.015-0.001c0.001,0,0.003,0,0.005,0
			c0.004,0,0.008,0,0.013,0c0.001,0,0.002,0,0.003,0c0.005,0,0.011,0,0.016,0c0.001,0,0.003,0,0.004,0c0.004,0,0.008,0,0.013,0
			c0.001,0,0.003,0,0.004,0c0.006,0,0.011,0,0.017,0c0,0,0,0,0.001,0c0.005-0.001,0.011-0.001,0.016-0.001c0.001,0,0.002,0,0.004,0
			c0.005,0,0.01,0,0.015,0c0,0,0.001,0,0.001,0c0.005,0,0.011,0,0.017-0.001c0.001,0,0.002,0,0.003,0c0.004,0,0.01,0,0.014,0
			c0.001,0,0.002,0,0.003,0c0.006,0,0.011,0,0.017,0c0,0,0.001,0,0.001,0c0.005,0,0.011-0.001,0.016-0.001c0.001,0,0.002,0,0.004,0
			c0.005,0,0.011,0,0.016,0l0,0c0.006,0,0.012-0.001,0.017-0.001c0.001,0,0.002,0,0.003,0c0.004,0,0.01,0,0.015,0
			c0.001,0,0.002,0,0.003,0c0.005-0.001,0.011-0.001,0.017-0.001c0,0,0,0,0,0c0.006,0,0.011,0,0.017-0.001c0.001,0,0.002,0,0.003,0
			c0.011,0,0.022,0,0.034-0.001c0,0,0.001,0,0.001,0c0.005,0,0.01,0,0.016-0.001c0.001,0,0.001,0,0.002,0
			c0.012,0,0.023,0,0.035-0.001c0,0,0.001,0,0.002,0c0.011-0.001,0.022-0.001,0.034-0.002c0,0,0.001,0,0.002,0
			c0.005,0,0.011,0,0.016,0c0,0,0,0,0.001-0.001c0.006,0,0.012,0,0.018,0h0c0.006-0.001,0.011-0.001,0.017-0.001
			c0,0,0.001,0,0.002,0c0.011-0.001,0.023-0.001,0.035-0.002c0,0,0.001,0,0.001,0c0.018-0.001,0.035-0.002,0.053-0.003
			c0,0,0,0,0.001,0c0.012-0.001,0.023-0.002,0.035-0.002c0,0,0,0,0.001,0c0.714-0.044,1.411-0.154,2.084-0.325l0,0
			c0.011-0.003,0.022-0.006,0.033-0.009c0,0,0.001,0,0.001,0c0.011-0.003,0.022-0.006,0.033-0.009c0,0,0.001,0,0.002,0
			c0.004-0.001,0.009-0.003,0.014-0.004c0.001,0,0.002,0,0.003,0c0.005-0.002,0.01-0.003,0.016-0.005c0,0,0.001,0,0.001,0
			c0.004-0.001,0.009-0.003,0.014-0.004c0.001,0,0.002-0.001,0.004-0.001c0.005-0.001,0.009-0.002,0.014-0.004c0,0,0.001,0,0.001,0
			c0.005-0.001,0.01-0.003,0.015-0.004c0.001-0.001,0.003-0.001,0.005-0.001c0.003-0.001,0.006-0.002,0.01-0.003
			c0.002-0.001,0.004-0.001,0.006-0.002c0.004-0.001,0.009-0.002,0.014-0.004c0.002,0,0.004-0.001,0.005-0.001
			c0.003-0.001,0.006-0.002,0.009-0.003c0.002,0,0.004-0.001,0.006-0.002c0.003,0,0.006-0.001,0.009-0.002s0.006-0.002,0.009-0.003
			c0.003,0,0.007-0.002,0.01-0.002c0.002-0.001,0.005-0.002,0.007-0.002c0.002-0.001,0.004-0.002,0.007-0.002
			c0.003-0.001,0.005-0.002,0.008-0.003c0.002,0,0.004-0.001,0.006-0.002c0.005-0.001,0.009-0.002,0.014-0.004
			c0.002,0,0.004-0.001,0.005-0.001c0.003-0.001,0.006-0.002,0.009-0.003c0.001,0,0.002-0.001,0.003-0.001
			c0.007-0.002,0.014-0.004,0.021-0.006c0,0,0,0,0,0c0.003-0.001,0.007-0.002,0.011-0.003c0.001-0.001,0.002-0.001,0.002-0.001
			c0.012-0.003,0.023-0.007,0.034-0.01h0c0.02-0.006,0.04-0.012,0.06-0.018L169.114,212.971L169.114,212.971z M175.075,207.661
			c-0.538,1.255-1.366,2.403-2.393,3.319l1.331,1.492c0.482-0.43,0.927-0.899,1.33-1.403l0,0c0.004-0.005,0.007-0.009,0.011-0.014
			l0,0c0.018-0.022,0.035-0.044,0.053-0.066c0,0,0,0,0-0.001c0.003-0.004,0.007-0.008,0.01-0.012c0-0.001,0.001-0.001,0.001-0.002
			c0.003-0.004,0.006-0.008,0.009-0.012c0-0.001,0.001-0.001,0.001-0.002c0.003-0.004,0.006-0.008,0.009-0.012
			c0-0.001,0.001-0.001,0.001-0.002c0.017-0.021,0.034-0.044,0.05-0.065c0,0,0.001-0.001,0.001-0.001
			c0.003-0.004,0.005-0.008,0.009-0.012c0-0.001,0.001-0.002,0.002-0.003c0.002-0.004,0.005-0.007,0.008-0.011
			c0.001-0.001,0.002-0.002,0.003-0.004c0.003-0.003,0.005-0.007,0.008-0.01c0.001-0.002,0.002-0.003,0.003-0.004
			c0.002-0.004,0.005-0.007,0.008-0.011c0.001-0.001,0.001-0.002,0.002-0.003c0.009-0.012,0.018-0.023,0.027-0.036
			c0-0.001,0.001-0.002,0.002-0.003c0.002-0.003,0.004-0.006,0.007-0.01c0.001-0.001,0.002-0.003,0.003-0.004
			c0.002-0.004,0.004-0.007,0.007-0.01c0.001-0.002,0.002-0.004,0.004-0.005c0.002-0.003,0.004-0.007,0.007-0.01
			c0.001-0.002,0.002-0.003,0.004-0.005c0.002-0.003,0.004-0.006,0.007-0.01c0.001-0.001,0.002-0.003,0.004-0.005
			c0.002-0.003,0.004-0.006,0.007-0.01c0.001-0.001,0.002-0.003,0.003-0.004c0.002-0.004,0.005-0.007,0.007-0.01
			c0-0.001,0-0.001,0-0.002c0.006-0.007,0.011-0.015,0.017-0.021c0.001-0.002,0.002-0.004,0.003-0.005
			c0.002-0.003,0.004-0.006,0.006-0.009c0.001-0.002,0.003-0.004,0.004-0.006c0.002-0.003,0.004-0.006,0.006-0.009
			c0.001-0.002,0.003-0.004,0.004-0.006c0.002-0.003,0.004-0.006,0.006-0.009c0.001-0.002,0.003-0.004,0.004-0.006
			c0.002-0.003,0.004-0.006,0.006-0.009c0.002-0.002,0.003-0.005,0.005-0.007c0.002-0.003,0.004-0.005,0.006-0.008
			c0.001-0.002,0.003-0.005,0.005-0.007c0.002-0.003,0.004-0.005,0.006-0.008c0.001-0.003,0.003-0.005,0.004-0.007
			c0.003-0.005,0.007-0.01,0.01-0.015c0.002-0.002,0.004-0.005,0.006-0.008c0.002-0.002,0.003-0.005,0.005-0.007
			c0.002-0.003,0.004-0.006,0.006-0.008c0.001-0.003,0.003-0.005,0.005-0.007c0.002-0.003,0.004-0.006,0.006-0.009
			c0.002-0.002,0.003-0.004,0.005-0.007s0.004-0.006,0.006-0.008c0.001-0.003,0.003-0.005,0.005-0.007
			c0.002-0.003,0.004-0.006,0.006-0.009c0.001-0.002,0.003-0.004,0.004-0.007c0.002-0.003,0.004-0.006,0.007-0.009
			c0.001-0.002,0.002-0.004,0.004-0.006c0.003-0.005,0.007-0.01,0.01-0.015c0-0.001,0.001-0.002,0.001-0.002
			c0.003-0.005,0.006-0.009,0.009-0.014c0.001-0.001,0.002-0.003,0.003-0.005c0.002-0.003,0.004-0.007,0.007-0.01
			c0.001-0.002,0.003-0.005,0.004-0.006c0.002-0.003,0.004-0.007,0.006-0.01c0.001-0.002,0.002-0.004,0.004-0.006
			c0.002-0.003,0.004-0.006,0.006-0.01c0.001-0.001,0.003-0.004,0.004-0.006c0.002-0.003,0.004-0.007,0.007-0.01
			c0.001-0.002,0.002-0.003,0.003-0.005c0.002-0.004,0.005-0.008,0.007-0.011c0.001-0.002,0.002-0.003,0.003-0.005
			c0.007-0.01,0.014-0.021,0.021-0.031c0.001-0.001,0.002-0.002,0.002-0.003c0.003-0.004,0.005-0.008,0.008-0.012
			c0.001-0.002,0.002-0.003,0.003-0.005c0.002-0.004,0.005-0.007,0.007-0.011c0.001-0.002,0.002-0.004,0.003-0.005
			c0.002-0.004,0.005-0.008,0.007-0.011c0.001-0.002,0.002-0.003,0.003-0.005c0.002-0.004,0.005-0.008,0.007-0.011
			c0.001-0.002,0.002-0.003,0.003-0.005c0.003-0.004,0.006-0.009,0.009-0.013c0-0.001,0.001-0.002,0.001-0.003
			c0.007-0.01,0.014-0.021,0.021-0.031c0-0.001,0.001-0.002,0.001-0.003c0.003-0.004,0.006-0.008,0.009-0.013
			c0.001-0.001,0.001-0.003,0.002-0.004c0.003-0.004,0.005-0.008,0.008-0.012c0.001-0.002,0.002-0.003,0.003-0.005
			c0.002-0.003,0.005-0.007,0.007-0.011c0.001-0.002,0.002-0.003,0.003-0.005c0.002-0.004,0.005-0.008,0.008-0.012
			c0-0.001,0.001-0.003,0.002-0.004c0.003-0.004,0.006-0.009,0.009-0.013c0-0.001,0.001-0.002,0.001-0.003
			c0.007-0.011,0.014-0.021,0.021-0.031c0-0.001,0.001-0.003,0.002-0.003c0.002-0.005,0.005-0.009,0.008-0.013
			c0.001-0.002,0.002-0.003,0.003-0.005c0.002-0.004,0.005-0.008,0.007-0.011c0.001-0.002,0.002-0.004,0.003-0.005
			c0.002-0.004,0.005-0.008,0.007-0.012c0.001-0.002,0.001-0.003,0.003-0.005c0.002-0.003,0.005-0.007,0.007-0.011
			c0.001-0.002,0.001-0.003,0.002-0.005c0.003-0.004,0.006-0.009,0.009-0.014c0,0,0.001-0.001,0.001-0.002
			c0.007-0.011,0.014-0.021,0.021-0.032c0,0,0.001-0.001,0.001-0.002c0.002-0.005,0.005-0.009,0.008-0.014
			c0.001-0.001,0.001-0.003,0.002-0.004c0.002-0.004,0.005-0.008,0.007-0.012c0.001-0.002,0.002-0.003,0.003-0.005
			c0.002-0.004,0.005-0.008,0.007-0.012c0-0.001,0.002-0.003,0.002-0.004c0.002-0.004,0.005-0.009,0.008-0.013
			c0-0.001,0.001-0.002,0.002-0.003c0.003-0.005,0.006-0.01,0.009-0.015c0-0.001,0-0.001,0-0.002
			c0.007-0.011,0.014-0.021,0.02-0.032c0-0.001,0.001-0.001,0.001-0.002c0.002-0.005,0.005-0.009,0.008-0.014
			c0.001-0.002,0.001-0.003,0.002-0.004c0.002-0.004,0.005-0.009,0.007-0.012c0.001-0.002,0.002-0.004,0.003-0.006
			c0.002-0.003,0.004-0.007,0.007-0.011c0.001-0.002,0.001-0.003,0.002-0.005c0.002-0.004,0.005-0.008,0.007-0.012
			c0.001-0.001,0.002-0.003,0.002-0.004c0.003-0.005,0.006-0.01,0.008-0.015c0,0,0.001-0.001,0.001-0.002
			c0.007-0.011,0.013-0.021,0.02-0.032c0.001-0.001,0.001-0.002,0.002-0.003c0.002-0.004,0.005-0.009,0.008-0.013
			c0-0.002,0.002-0.004,0.002-0.005c0.002-0.004,0.005-0.008,0.007-0.012c0.001-0.001,0.002-0.003,0.003-0.005
			c0.002-0.004,0.004-0.008,0.006-0.011c0.001-0.002,0.002-0.004,0.003-0.006c0.002-0.004,0.004-0.008,0.007-0.012
			c0-0.001,0.001-0.003,0.002-0.004c0.002-0.005,0.005-0.009,0.008-0.014c0-0.001,0.001-0.002,0.001-0.003
			c0.006-0.011,0.013-0.021,0.019-0.032c0-0.001,0.001-0.003,0.002-0.004c0.002-0.004,0.005-0.008,0.007-0.012
			c0.001-0.002,0.002-0.004,0.003-0.006c0.002-0.003,0.004-0.007,0.006-0.011c0.001-0.002,0.002-0.004,0.003-0.006
			c0.002-0.003,0.004-0.007,0.006-0.011c0.001-0.002,0.002-0.004,0.003-0.005c0.002-0.004,0.004-0.008,0.006-0.011
			c0.001-0.003,0.002-0.004,0.003-0.006c0.002-0.004,0.004-0.008,0.007-0.012c0.001-0.002,0.001-0.003,0.002-0.005
			c0.003-0.005,0.006-0.011,0.009-0.016c0-0.001,0-0.001,0-0.001c0.002-0.005,0.005-0.011,0.008-0.016
			c0.001-0.001,0.002-0.003,0.003-0.004c0.002-0.004,0.004-0.008,0.006-0.012c0.001-0.002,0.002-0.005,0.003-0.006
			c0.002-0.004,0.003-0.007,0.005-0.011c0.001-0.002,0.002-0.004,0.003-0.006c0.002-0.004,0.004-0.007,0.006-0.011
			c0.001-0.002,0.002-0.004,0.003-0.006c0.002-0.004,0.004-0.007,0.006-0.011c0.001-0.002,0.002-0.004,0.003-0.006
			c0.002-0.004,0.003-0.007,0.006-0.011c0.001-0.002,0.002-0.004,0.003-0.006c0.003-0.005,0.006-0.01,0.009-0.016
			c0-0.001,0-0.001,0.001-0.002c0.002-0.005,0.005-0.01,0.008-0.015c0.001-0.002,0.002-0.003,0.003-0.006
			c0.002-0.003,0.004-0.006,0.006-0.01c0.001-0.003,0.002-0.005,0.004-0.007c0.001-0.003,0.003-0.006,0.005-0.009
			c0.001-0.003,0.002-0.006,0.004-0.008c0.001-0.003,0.003-0.006,0.005-0.009c0.001-0.003,0.002-0.005,0.004-0.008
			s0.003-0.006,0.005-0.009c0.001-0.003,0.002-0.005,0.004-0.008s0.003-0.006,0.005-0.009c0.001-0.002,0.002-0.005,0.004-0.007
			c0.001-0.003,0.003-0.006,0.004-0.009c0.003-0.005,0.006-0.011,0.008-0.016c0.001-0.002,0.003-0.005,0.004-0.008
			c0.001-0.003,0.003-0.006,0.005-0.009c0.001-0.002,0.002-0.005,0.004-0.007c0.001-0.003,0.003-0.006,0.004-0.009
			s0.003-0.005,0.004-0.008c0.002-0.003,0.003-0.006,0.005-0.009s0.002-0.005,0.003-0.007c0.002-0.003,0.003-0.007,0.005-0.01
			c0.001-0.002,0.002-0.005,0.003-0.007c0.001-0.003,0.003-0.006,0.005-0.01c0.001-0.002,0.002-0.004,0.003-0.006
			c0.002-0.003,0.004-0.007,0.005-0.01c0-0.001,0.001-0.002,0.001-0.003c0.004-0.008,0.009-0.017,0.013-0.025
			c0-0.001,0.001-0.002,0.001-0.003c0.002-0.004,0.004-0.008,0.006-0.012c0-0.001,0.001-0.003,0.002-0.005
			c0.002-0.003,0.003-0.007,0.005-0.011c0.001-0.001,0.002-0.003,0.003-0.005c0.002-0.004,0.003-0.007,0.005-0.011
			c0.001-0.002,0.002-0.004,0.002-0.005c0.002-0.004,0.004-0.008,0.006-0.012c0.001-0.001,0.001-0.003,0.002-0.004
			c0.002-0.004,0.004-0.009,0.006-0.013c0,0,0-0.001,0.001-0.002c0.01-0.02,0.02-0.039,0.03-0.059c0-0.001,0-0.001,0-0.001
			c0.002-0.005,0.004-0.01,0.007-0.014c0-0.001,0-0.002,0.001-0.003c0.002-0.004,0.004-0.009,0.007-0.014c0,0,0-0.001,0.001-0.002
			c0.002-0.004,0.004-0.009,0.007-0.014c0,0,0-0.001,0-0.002c0.085-0.174,0.167-0.35,0.243-0.528L175.075,207.661L175.075,207.661z
			 M177.822,198.572h-2v5h2V198.572L177.822,198.572z M177.822,188.572h-2v5h2V188.572L177.822,188.572z M177.822,178.572h-2v5h2
			V178.572L177.822,178.572z M177.822,168.572h-2v5h2V168.572L177.822,168.572z M177.822,158.572h-2v5h2V158.572L177.822,158.572z
			 M177.822,148.572h-2v5h2V148.572L177.822,148.572z M177.822,138.572h-2v5h2V138.572L177.822,138.572z M177.822,128.572h-2v5h2
			V128.572L177.822,128.572z M177.822,118.572h-2v5h2V118.572L177.822,118.572z M177.822,108.572h-2v5h2V108.572L177.822,108.572z
			 M177.822,98.572h-2v5h2V98.572L177.822,98.572z M177.822,88.572h-2v5h2V88.572L177.822,88.572z M177.822,78.572h-2v5h2V78.572
			L177.822,78.572z M177.822,68.572h-2v5h2V68.572L177.822,68.572z M177.822,58.572h-2v5h2V58.572L177.822,58.572z M177.822,48.572
			h-2v5h2V48.572L177.822,48.572z M177.822,38.572h-2v5h2V38.572L177.822,38.572z M177.822,28.572h-2v5h2V28.572L177.822,28.572z
			 M177.822,18.572h-2v5h2V18.572L177.822,18.572z M174.214,9.583l-1.366,1.461c1.006,0.94,1.806,2.107,2.313,3.374l1.856-0.743
			c-0.122-0.305-0.257-0.604-0.404-0.896c0,0-0.001-0.001-0.001-0.001c-0.003-0.005-0.005-0.011-0.008-0.016c0,0,0,0-0.001-0.001
			c-0.003-0.005-0.005-0.011-0.008-0.016c0,0,0,0,0-0.001c-0.012-0.023-0.023-0.046-0.035-0.069c0,0-0.001-0.001-0.001-0.002
			c-0.002-0.005-0.005-0.01-0.007-0.015c0-0.001-0.001-0.002-0.001-0.003c-0.002-0.004-0.005-0.009-0.007-0.014
			c0-0.001-0.001-0.002-0.002-0.003c-0.002-0.005-0.005-0.01-0.007-0.014c0-0.001-0.001-0.002-0.001-0.002
			c-0.002-0.005-0.005-0.011-0.008-0.016c0,0,0,0,0,0c-0.006-0.012-0.012-0.023-0.018-0.035v0c-0.003-0.005-0.006-0.011-0.009-0.016
			c0-0.001-0.001-0.002-0.001-0.003c-0.002-0.004-0.005-0.009-0.007-0.013c0-0.001-0.001-0.003-0.002-0.004
			c-0.002-0.004-0.005-0.008-0.007-0.013c-0.001-0.001-0.001-0.003-0.002-0.004c-0.002-0.004-0.004-0.009-0.007-0.013
			c0-0.001-0.001-0.003-0.002-0.004c-0.002-0.005-0.005-0.01-0.008-0.015c0,0-0.001-0.001-0.001-0.002
			c-0.006-0.011-0.012-0.022-0.019-0.034c0,0,0-0.001-0.001-0.001c-0.002-0.005-0.005-0.01-0.008-0.015
			c-0.001-0.001-0.001-0.003-0.002-0.004c-0.002-0.004-0.004-0.008-0.007-0.012c-0.001-0.002-0.001-0.003-0.002-0.005
			c-0.002-0.003-0.004-0.007-0.006-0.011c-0.001-0.001-0.002-0.004-0.003-0.005c-0.002-0.004-0.004-0.007-0.006-0.011
			c-0.001-0.002-0.002-0.003-0.003-0.005c-0.002-0.004-0.004-0.008-0.007-0.012c0-0.001-0.001-0.003-0.002-0.004
			c-0.006-0.011-0.012-0.021-0.019-0.032c0-0.001-0.001-0.003-0.002-0.004c-0.002-0.004-0.004-0.008-0.006-0.012
			c-0.001-0.002-0.002-0.004-0.003-0.006c-0.002-0.003-0.004-0.007-0.006-0.01c-0.001-0.002-0.002-0.004-0.003-0.006
			c-0.002-0.003-0.004-0.007-0.006-0.01c-0.001-0.002-0.002-0.004-0.003-0.006c-0.002-0.003-0.004-0.007-0.006-0.01
			c-0.001-0.002-0.002-0.004-0.003-0.007c-0.002-0.003-0.004-0.007-0.006-0.01c-0.001-0.002-0.002-0.003-0.003-0.005
			c-0.002-0.005-0.005-0.01-0.008-0.014c0,0,0-0.001-0.001-0.002c-0.003-0.005-0.006-0.011-0.009-0.016
			c0-0.001-0.002-0.003-0.003-0.005c-0.002-0.003-0.004-0.007-0.006-0.011c-0.001-0.002-0.003-0.004-0.004-0.007
			c-0.001-0.003-0.003-0.006-0.005-0.009c-0.001-0.002-0.003-0.004-0.004-0.007c-0.001-0.003-0.003-0.006-0.005-0.009
			c-0.001-0.002-0.003-0.005-0.004-0.007c-0.002-0.003-0.003-0.006-0.005-0.009c-0.001-0.002-0.002-0.005-0.004-0.007
			c-0.002-0.002-0.003-0.006-0.005-0.008c-0.001-0.002-0.003-0.005-0.004-0.008c-0.002-0.003-0.004-0.007-0.006-0.01
			c-0.001-0.002-0.001-0.003-0.003-0.005c-0.003-0.005-0.006-0.011-0.009-0.016c-0.001-0.002-0.003-0.004-0.004-0.006
			c-0.002-0.003-0.004-0.006-0.006-0.01c-0.001-0.002-0.002-0.004-0.004-0.007c-0.002-0.003-0.003-0.006-0.005-0.008
			c-0.001-0.002-0.003-0.005-0.004-0.008c-0.002-0.003-0.003-0.005-0.005-0.008c-0.002-0.002-0.003-0.005-0.005-0.008
			c-0.001-0.002-0.003-0.005-0.004-0.008c-0.002-0.002-0.003-0.005-0.005-0.008s-0.003-0.005-0.005-0.008
			c-0.001-0.003-0.003-0.005-0.005-0.008c-0.001-0.003-0.003-0.005-0.004-0.008c-0.003-0.005-0.006-0.01-0.01-0.016
			c-0.001-0.002-0.003-0.004-0.004-0.006c-0.001-0.003-0.003-0.006-0.005-0.009c-0.001-0.002-0.003-0.005-0.004-0.007
			c-0.002-0.003-0.003-0.005-0.005-0.009c-0.001-0.002-0.003-0.005-0.004-0.007c-0.002-0.003-0.003-0.005-0.005-0.008
			c-0.001-0.002-0.003-0.005-0.005-0.007c-0.001-0.003-0.003-0.006-0.005-0.009c-0.001-0.002-0.003-0.004-0.004-0.007
			c-0.002-0.003-0.003-0.005-0.005-0.009c-0.001-0.002-0.003-0.004-0.004-0.006c-0.001-0.003-0.003-0.006-0.005-0.009
			c-0.001-0.002-0.002-0.004-0.004-0.006c-0.007-0.011-0.014-0.022-0.021-0.033c-0.001-0.002-0.002-0.004-0.004-0.006
			c-0.002-0.003-0.004-0.006-0.006-0.009c-0.001-0.002-0.002-0.004-0.004-0.006c-0.002-0.003-0.004-0.006-0.005-0.009
			c-0.001-0.002-0.003-0.004-0.004-0.006c-0.002-0.003-0.004-0.006-0.005-0.009c-0.001-0.002-0.003-0.004-0.004-0.006
			c-0.002-0.003-0.004-0.006-0.006-0.009c-0.001-0.002-0.002-0.004-0.004-0.006c-0.002-0.003-0.004-0.006-0.006-0.009
			c-0.001-0.002-0.002-0.004-0.003-0.006c-0.007-0.011-0.015-0.023-0.022-0.034c-0.001-0.001-0.002-0.003-0.003-0.004
			c-0.002-0.003-0.004-0.007-0.007-0.01c-0.001-0.001-0.002-0.003-0.003-0.005c-0.002-0.003-0.004-0.006-0.006-0.009
			c-0.001-0.002-0.003-0.004-0.004-0.006c-0.002-0.003-0.004-0.006-0.006-0.009c-0.001-0.002-0.003-0.004-0.004-0.006
			c-0.002-0.003-0.004-0.006-0.006-0.009c-0.001-0.002-0.002-0.004-0.004-0.006c-0.002-0.003-0.004-0.006-0.006-0.009
			c-0.001-0.002-0.002-0.003-0.003-0.005c-0.007-0.011-0.015-0.023-0.022-0.035c-0.001-0.001-0.002-0.003-0.003-0.005
			c-0.002-0.003-0.004-0.006-0.006-0.01c-0.001-0.001-0.002-0.003-0.003-0.005c-0.002-0.003-0.004-0.007-0.006-0.01
			c-0.001-0.002-0.002-0.004-0.004-0.006c-0.002-0.003-0.004-0.006-0.006-0.009c-0.001-0.002-0.002-0.003-0.004-0.005
			c-0.002-0.003-0.004-0.006-0.006-0.009c-0.001-0.002-0.002-0.004-0.003-0.006c-0.002-0.003-0.004-0.006-0.006-0.009
			c-0.001-0.001-0.002-0.003-0.003-0.004c-0.008-0.012-0.016-0.024-0.024-0.036c-0.001-0.001-0.001-0.002-0.002-0.003
			c-0.002-0.003-0.005-0.007-0.007-0.011c-0.001-0.001-0.002-0.003-0.003-0.004c-0.002-0.003-0.004-0.006-0.007-0.01
			c-0.001-0.002-0.002-0.003-0.003-0.005c-0.002-0.004-0.004-0.007-0.007-0.01c-0.001-0.001-0.002-0.003-0.003-0.004
			c-0.002-0.003-0.005-0.007-0.007-0.01c-0.001-0.001-0.002-0.003-0.003-0.004c-0.002-0.003-0.005-0.007-0.007-0.011
			c0-0.001-0.001-0.001-0.001-0.002c-0.009-0.013-0.018-0.025-0.026-0.038c0-0.001-0.001-0.002-0.002-0.002
			c-0.002-0.004-0.004-0.007-0.007-0.011c-0.001-0.001-0.002-0.003-0.003-0.004c-0.002-0.003-0.004-0.006-0.007-0.01
			c-0.001-0.001-0.002-0.003-0.003-0.005c-0.002-0.003-0.004-0.006-0.007-0.01c-0.001-0.001-0.002-0.003-0.003-0.005
			c-0.002-0.003-0.005-0.006-0.007-0.01c-0.001-0.001-0.002-0.002-0.003-0.004c-0.002-0.003-0.005-0.007-0.007-0.011
			c-0.001-0.001-0.001-0.002-0.002-0.003c-0.009-0.013-0.018-0.025-0.027-0.038c0,0,0,0-0.001-0.001
			c-0.002-0.004-0.005-0.007-0.008-0.011c-0.001-0.001-0.002-0.002-0.003-0.003c-0.002-0.003-0.005-0.007-0.007-0.01
			c-0.001-0.001-0.002-0.003-0.003-0.004c-0.002-0.003-0.005-0.007-0.007-0.01c-0.001-0.001-0.002-0.003-0.003-0.004
			c-0.003-0.004-0.005-0.007-0.008-0.011c-0.001-0.001-0.001-0.002-0.002-0.003c-0.002-0.004-0.005-0.008-0.008-0.011
			c0,0,0-0.001-0.001-0.001c-0.009-0.014-0.019-0.027-0.029-0.04l0,0c-0.003-0.004-0.006-0.008-0.009-0.012
			c0-0.001-0.001-0.002-0.002-0.003c-0.002-0.003-0.005-0.007-0.008-0.01c-0.001-0.001-0.002-0.003-0.003-0.004
			c-0.002-0.003-0.005-0.006-0.007-0.01c-0.001-0.001-0.002-0.003-0.003-0.004c-0.002-0.003-0.005-0.007-0.007-0.01
			c-0.001-0.001-0.002-0.003-0.003-0.004c-0.002-0.003-0.005-0.007-0.007-0.011c-0.001,0-0.001-0.001-0.002-0.002
			c-0.009-0.012-0.019-0.025-0.028-0.038c0,0,0-0.001-0.001-0.001c-0.003-0.003-0.005-0.007-0.008-0.01
			c-0.001-0.001-0.002-0.003-0.003-0.004c-0.002-0.003-0.005-0.006-0.007-0.01c-0.001-0.002-0.002-0.003-0.003-0.005
			c-0.002-0.003-0.005-0.006-0.007-0.01c-0.001-0.001-0.002-0.003-0.003-0.004c-0.002-0.003-0.005-0.007-0.007-0.01
			c-0.001-0.001-0.002-0.002-0.003-0.004c-0.002-0.004-0.005-0.007-0.008-0.011c0,0-0.001-0.001-0.002-0.002
			c-0.013-0.017-0.025-0.034-0.038-0.05c-0.001,0-0.001-0.002-0.002-0.003c-0.002-0.003-0.005-0.007-0.008-0.01
			c-0.001-0.001-0.002-0.002-0.003-0.004c-0.002-0.003-0.005-0.007-0.008-0.01c-0.001-0.001-0.002-0.003-0.003-0.004
			c-0.003-0.004-0.005-0.007-0.008-0.01c-0.001-0.001-0.002-0.002-0.003-0.004c-0.002-0.003-0.006-0.007-0.008-0.01
			c0-0.001-0.001-0.002-0.002-0.002c-0.013-0.017-0.026-0.033-0.039-0.05c0,0-0.001-0.001-0.002-0.002
			c-0.003-0.003-0.006-0.007-0.008-0.01c-0.001-0.001-0.002-0.003-0.003-0.004c-0.003-0.003-0.005-0.007-0.008-0.01
			c-0.001-0.001-0.002-0.002-0.003-0.004c-0.003-0.003-0.005-0.006-0.008-0.01c-0.001-0.001-0.001-0.002-0.003-0.004
			c-0.002-0.003-0.005-0.007-0.008-0.01c0-0.001-0.001-0.001-0.002-0.002c-0.013-0.017-0.026-0.033-0.04-0.049
			c0,0-0.001-0.001-0.002-0.002c-0.003-0.003-0.006-0.007-0.008-0.01c-0.001-0.001-0.002-0.002-0.003-0.004
			c-0.002-0.003-0.005-0.006-0.008-0.01c-0.001-0.001-0.002-0.002-0.003-0.004c-0.002-0.003-0.005-0.006-0.008-0.01
			c-0.001-0.001-0.002-0.002-0.003-0.004c-0.003-0.003-0.005-0.007-0.008-0.01c0-0.001-0.001-0.002-0.002-0.003
			c-0.013-0.016-0.026-0.032-0.04-0.048c0-0.001-0.001-0.002-0.002-0.003c-0.003-0.003-0.005-0.006-0.008-0.009
			c-0.001-0.001-0.002-0.003-0.003-0.004c-0.002-0.003-0.005-0.006-0.008-0.01c-0.001-0.001-0.002-0.002-0.003-0.004
			c-0.002-0.003-0.005-0.006-0.008-0.01c-0.001-0.001-0.002-0.002-0.003-0.003c-0.003-0.003-0.006-0.007-0.009-0.01
			c0-0.001-0.001-0.001-0.002-0.002c-0.013-0.016-0.027-0.032-0.041-0.048c-0.001-0.001-0.001-0.002-0.002-0.003
			c-0.002-0.003-0.005-0.006-0.008-0.01c-0.001-0.001-0.002-0.002-0.003-0.004c-0.003-0.003-0.005-0.006-0.008-0.01
			c-0.001-0.001-0.002-0.002-0.003-0.003c-0.003-0.003-0.006-0.006-0.009-0.01c-0.001-0.001-0.002-0.002-0.003-0.003
			c-0.003-0.003-0.006-0.007-0.009-0.01c0-0.001-0.001-0.002-0.002-0.003c-0.013-0.016-0.027-0.031-0.041-0.047
			c-0.001-0.001-0.002-0.002-0.002-0.003c-0.003-0.003-0.006-0.006-0.009-0.009c-0.001-0.001-0.002-0.003-0.003-0.004
			c-0.003-0.003-0.005-0.006-0.008-0.009c-0.001-0.001-0.002-0.002-0.003-0.004c-0.003-0.003-0.005-0.006-0.008-0.009
			c-0.001-0.001-0.002-0.003-0.003-0.004c-0.002-0.003-0.006-0.007-0.008-0.01c-0.001-0.001-0.002-0.002-0.003-0.003
			c-0.014-0.016-0.027-0.031-0.041-0.046c-0.001-0.001-0.002-0.002-0.003-0.003c-0.002-0.003-0.005-0.006-0.008-0.009
			c-0.001-0.001-0.003-0.003-0.004-0.004c-0.003-0.003-0.005-0.006-0.008-0.009c-0.001-0.001-0.002-0.003-0.004-0.004
			c-0.002-0.003-0.005-0.006-0.008-0.009c-0.001-0.001-0.003-0.003-0.004-0.004c-0.002-0.003-0.005-0.006-0.008-0.009
			c-0.001-0.001-0.002-0.002-0.003-0.003c-0.003-0.003-0.006-0.006-0.009-0.01c0,0-0.001-0.001-0.001-0.001
			c-0.007-0.007-0.015-0.016-0.021-0.023c0,0,0,0,0-0.001c-0.003-0.003-0.006-0.006-0.009-0.009
			c-0.001-0.001-0.002-0.002-0.003-0.004c-0.003-0.003-0.005-0.006-0.008-0.009c-0.001-0.001-0.002-0.003-0.004-0.004
			c-0.003-0.003-0.005-0.006-0.008-0.009c-0.001-0.001-0.002-0.003-0.004-0.004c-0.003-0.003-0.005-0.006-0.008-0.009
			c-0.001-0.001-0.003-0.003-0.004-0.004c-0.003-0.003-0.005-0.006-0.008-0.009c-0.001-0.001-0.003-0.003-0.004-0.004
			c-0.003-0.003-0.005-0.006-0.008-0.009c0,0-0.001-0.001-0.002-0.002c-0.01-0.011-0.02-0.021-0.03-0.032
			c-0.001-0.001-0.002-0.003-0.003-0.004c-0.003-0.003-0.005-0.006-0.008-0.009c-0.002-0.001-0.003-0.003-0.005-0.005
			c-0.002-0.002-0.005-0.005-0.008-0.008c-0.001-0.002-0.003-0.003-0.004-0.005c-0.002-0.003-0.005-0.005-0.008-0.008
			c-0.001-0.002-0.003-0.003-0.004-0.005c-0.003-0.003-0.005-0.005-0.008-0.008c-0.001-0.001-0.003-0.003-0.005-0.005
			c-0.002-0.002-0.005-0.005-0.008-0.008c-0.001-0.001-0.002-0.002-0.003-0.003c-0.01-0.01-0.019-0.02-0.029-0.03
			c-0.001-0.001-0.003-0.003-0.004-0.004c-0.002-0.003-0.005-0.005-0.007-0.008c-0.002-0.002-0.003-0.003-0.005-0.005
			c-0.002-0.002-0.004-0.005-0.007-0.008c-0.001-0.001-0.003-0.003-0.005-0.005c-0.002-0.002-0.005-0.005-0.008-0.008
			c-0.001-0.002-0.003-0.003-0.005-0.005c-0.002-0.002-0.005-0.005-0.008-0.008c-0.001-0.001-0.003-0.003-0.005-0.005
			c-0.002-0.003-0.005-0.005-0.007-0.008c-0.002-0.001-0.003-0.003-0.005-0.005c-0.006-0.006-0.012-0.012-0.018-0.018
			c-0.001,0-0.001-0.001-0.002-0.002c-0.003-0.003-0.005-0.006-0.008-0.008c-0.001-0.001-0.003-0.003-0.004-0.005
			c-0.002-0.002-0.005-0.005-0.008-0.007c-0.001-0.002-0.003-0.004-0.005-0.005c-0.002-0.003-0.005-0.005-0.007-0.008
			c-0.001-0.001-0.003-0.003-0.005-0.005c-0.002-0.002-0.005-0.005-0.007-0.007c-0.002-0.002-0.004-0.004-0.005-0.005
			c-0.002-0.002-0.005-0.005-0.007-0.007c-0.002-0.002-0.004-0.004-0.006-0.006c-0.002-0.002-0.004-0.005-0.007-0.007
			c-0.002-0.002-0.004-0.004-0.006-0.006c-0.005-0.005-0.011-0.011-0.016-0.016c-0.001-0.001-0.002-0.002-0.003-0.003
			c-0.003-0.003-0.005-0.005-0.008-0.008c-0.001-0.001-0.003-0.003-0.004-0.004c-0.002-0.002-0.005-0.005-0.008-0.008
			c-0.002-0.001-0.003-0.003-0.005-0.005c-0.002-0.003-0.005-0.005-0.008-0.008c-0.001-0.001-0.003-0.003-0.005-0.005
			c-0.002-0.003-0.005-0.005-0.008-0.008c-0.001-0.001-0.003-0.003-0.005-0.005c-0.002-0.002-0.005-0.005-0.007-0.007
			c-0.002-0.001-0.004-0.003-0.005-0.005c-0.003-0.002-0.005-0.004-0.007-0.007c-0.002-0.002-0.004-0.004-0.006-0.006
			c-0.005-0.005-0.011-0.011-0.017-0.016c-0.001-0.001-0.002-0.002-0.003-0.003c-0.002-0.002-0.005-0.005-0.008-0.007
			c-0.002-0.001-0.003-0.003-0.005-0.005c-0.002-0.002-0.005-0.005-0.007-0.007c-0.002-0.002-0.004-0.004-0.006-0.006
			c-0.002-0.002-0.005-0.004-0.007-0.007c-0.002-0.002-0.004-0.003-0.006-0.005c-0.003-0.002-0.005-0.005-0.008-0.007
			c-0.002-0.002-0.003-0.003-0.006-0.005c-0.002-0.002-0.005-0.005-0.007-0.007s-0.004-0.004-0.006-0.006
			c-0.002-0.002-0.005-0.005-0.007-0.007c-0.002-0.002-0.004-0.004-0.006-0.006c-0.009-0.009-0.019-0.017-0.028-0.026
			c-0.001-0.002-0.003-0.003-0.005-0.005c-0.003-0.002-0.005-0.005-0.008-0.007c-0.002-0.001-0.004-0.003-0.005-0.005
			c-0.003-0.002-0.005-0.005-0.008-0.007c-0.002-0.001-0.003-0.003-0.005-0.005c-0.002-0.002-0.005-0.005-0.008-0.007
			c-0.002-0.002-0.003-0.003-0.005-0.005C174.218,9.586,174.216,9.584,174.214,9.583L174.214,9.583z M166.484,6.52v2
			c0.97,0,1.927,0.15,2.844,0.446l0.614-1.903c-0.385-0.124-0.779-0.229-1.18-0.311c0,0,0,0,0,0
			c-0.023-0.005-0.046-0.009-0.069-0.014l0,0c-0.023-0.004-0.046-0.009-0.069-0.014l0,0c-0.018-0.003-0.035-0.006-0.052-0.01
			c0,0,0,0,0,0c-0.017-0.003-0.034-0.006-0.051-0.01c0,0-0.001,0-0.001,0c-0.018-0.003-0.034-0.006-0.052-0.009l0,0
			c-0.006-0.001-0.011-0.002-0.017-0.003h0c-0.017-0.003-0.035-0.006-0.052-0.009c0,0,0,0-0.001,0
			c-0.017-0.003-0.035-0.006-0.051-0.009c0,0-0.001,0-0.001,0c-0.005-0.001-0.011-0.002-0.016-0.003c0,0,0,0,0,0
			c-0.012-0.002-0.023-0.004-0.035-0.006c0,0,0,0,0,0c-0.005-0.001-0.011-0.002-0.017-0.002c0,0-0.001,0-0.001,0
			c-0.017-0.002-0.034-0.005-0.051-0.008c-0.001,0-0.001,0-0.002,0c-0.005-0.001-0.011-0.001-0.016-0.002c0,0-0.001,0-0.001,0
			c-0.011-0.002-0.022-0.003-0.034-0.005c-0.001,0-0.001,0-0.002,0c-0.005-0.001-0.01-0.002-0.016-0.002c0,0-0.001,0-0.001,0
			c-0.011-0.001-0.023-0.003-0.035-0.005l0,0c-0.005-0.001-0.011-0.001-0.017-0.002c0,0-0.001,0-0.002,0
			c-0.005,0-0.011-0.001-0.016-0.002c0,0,0,0,0,0c-0.011-0.001-0.023-0.003-0.034-0.004c-0.001,0-0.001,0-0.002,0
			c-0.005-0.001-0.01-0.001-0.015-0.002c0,0-0.001,0-0.002,0c-0.011-0.001-0.022-0.003-0.034-0.004c0,0-0.001,0-0.002,0
			c-0.005,0-0.01-0.001-0.015-0.002c0,0-0.001,0-0.002,0c-0.005,0-0.011-0.001-0.016-0.002c0,0,0,0,0,0
			c-0.006-0.001-0.011-0.001-0.017-0.002c0,0-0.001,0-0.001,0c-0.005,0-0.01-0.001-0.015-0.002c-0.001,0-0.002,0-0.003,0
			c-0.004,0-0.01-0.001-0.014-0.002c-0.001,0-0.001,0-0.002,0c-0.011-0.001-0.022-0.003-0.034-0.004c-0.001,0-0.002,0-0.002,0
			c-0.005,0-0.01-0.001-0.014-0.001c-0.001,0-0.002,0-0.003,0c-0.011-0.001-0.022-0.003-0.033-0.004c-0.001,0-0.002,0-0.002,0
			c-0.005,0-0.009-0.001-0.014-0.001c-0.001,0-0.002,0-0.004,0c-0.004,0-0.009-0.001-0.013-0.001c-0.001,0-0.002,0-0.003,0
			c-0.006,0-0.011-0.001-0.017-0.002c0,0-0.001,0-0.001,0c-0.005,0-0.01-0.001-0.015-0.002c-0.001,0-0.003,0-0.004,0
			c-0.004,0-0.008-0.001-0.013-0.001c-0.001,0-0.003,0-0.004,0c-0.011-0.001-0.022-0.002-0.033-0.004c-0.001,0-0.003,0-0.004,0
			c-0.004,0-0.008,0-0.012-0.001c-0.001,0-0.003,0-0.005,0c-0.004,0-0.009-0.001-0.014-0.001c-0.001,0-0.001,0-0.002,0
			c-0.006,0-0.011-0.001-0.017-0.001c-0.001,0-0.002,0-0.003,0c-0.004,0-0.009-0.001-0.013-0.001c-0.001,0-0.003,0-0.004,0
			c-0.004,0-0.008,0-0.013-0.001c-0.001,0-0.002,0-0.004,0c-0.005,0-0.011-0.001-0.017-0.001l0,0c-0.005,0-0.011-0.001-0.016-0.001
			c-0.001,0-0.003,0-0.004,0c-0.004,0-0.009,0-0.013-0.001c-0.001,0-0.003,0-0.004,0c-0.005,0-0.01-0.001-0.016-0.001
			c0,0,0,0-0.001,0c-0.006,0-0.011-0.001-0.017-0.001c-0.001,0-0.002,0-0.003,0c-0.005,0-0.009,0-0.013-0.001
			c-0.001,0-0.003,0-0.005,0c-0.004,0-0.008-0.001-0.013-0.001c-0.001,0-0.002,0-0.003,0c-0.005,0-0.011-0.001-0.017-0.001
			c-0.001,0-0.002,0-0.003,0c-0.004,0-0.009-0.001-0.014-0.001c-0.001,0-0.003,0-0.004,0c-0.004,0-0.008,0-0.012-0.001
			c-0.001,0-0.003,0-0.005,0c-0.011-0.001-0.021-0.002-0.033-0.003c-0.001,0-0.002,0-0.004,0c-0.004,0-0.008,0-0.013-0.001
			c-0.001,0-0.003,0-0.004,0c-0.005,0-0.009-0.001-0.014-0.001c-0.001,0-0.002,0-0.003,0c-0.005,0-0.011-0.001-0.016-0.001
			c-0.001,0-0.002,0-0.003,0c-0.005,0-0.009,0-0.013-0.001c-0.001,0-0.003,0-0.005,0c-0.004,0-0.008,0-0.012-0.001
			c-0.001,0-0.003,0-0.004,0c-0.006,0-0.011-0.001-0.016-0.001c-0.001,0-0.002,0-0.003,0c-0.004,0-0.009,0-0.014-0.001
			c-0.002,0-0.003,0-0.005,0c-0.004,0-0.008,0-0.012,0c-0.001,0-0.003,0-0.005,0c-0.004,0-0.009,0-0.014-0.001
			c-0.001,0-0.002,0-0.003,0c-0.005,0-0.01-0.001-0.016-0.001c-0.001,0-0.003,0-0.005,0c-0.003,0-0.008,0-0.012-0.001
			c-0.001,0-0.003,0-0.005,0c-0.004,0-0.008,0-0.012-0.001c-0.001,0-0.003,0-0.004,0c-0.006,0-0.011-0.001-0.017-0.001
			c-0.001,0-0.002,0-0.002,0c-0.005,0-0.009,0-0.014,0c-0.002,0-0.004,0-0.005,0c-0.004,0-0.008,0-0.012,0c-0.002,0-0.003,0-0.005,0
			c-0.005,0-0.01,0-0.016-0.001h0c-0.005,0-0.011,0-0.016-0.001c-0.002,0-0.004,0-0.005,0c-0.004,0-0.007,0-0.011,0
			c-0.002,0-0.004,0-0.006,0c-0.004,0-0.008,0-0.013,0c-0.001,0-0.002,0-0.003,0c-0.005,0-0.011,0-0.016,0c-0.002,0-0.003,0-0.004,0
			c-0.004,0-0.008,0-0.013,0c-0.001,0-0.003,0-0.005,0c-0.004,0-0.008,0-0.012,0c-0.001,0-0.003,0-0.004,0c-0.006,0-0.011,0-0.017,0
			c0,0-0.001,0-0.002,0c-0.005,0-0.01,0-0.015-0.001c-0.001,0-0.003,0-0.005,0c-0.004,0-0.008,0-0.012,0c-0.001,0-0.003,0-0.005,0
			c-0.004,0-0.009,0-0.014,0c0,0-0.001,0-0.002,0c-0.006,0-0.011,0-0.016,0c-0.001,0-0.003,0-0.005,0c-0.004,0-0.008,0-0.012,0
			c-0.002,0-0.004,0-0.005,0c-0.004,0-0.008,0-0.013,0c-0.001,0-0.003,0-0.004,0c-0.005,0-0.011,0-0.017,0c-0.001,0-0.002,0-0.003,0
			c-0.004,0-0.009,0-0.013,0c-0.001,0-0.003,0-0.005,0c-0.004,0-0.009,0-0.012,0c-0.002,0-0.003,0-0.005,0c-0.006,0-0.01,0-0.016,0
			h0c-0.005,0-0.011,0-0.016,0c-0.002,0-0.004,0-0.005,0c-0.004,0-0.008,0-0.012,0c-0.002,0-0.003,0-0.005,0
			c-0.004,0-0.009,0-0.013,0c-0.001,0-0.002,0-0.003,0c-0.005,0-0.011,0-0.017,0c-0.001,0-0.002,0-0.003,0c-0.004,0-0.009,0-0.013,0
			c-0.002,0-0.003,0-0.005,0c-0.004,0-0.008,0-0.013,0c-0.001,0-0.003,0-0.004,0c-0.005,0-0.011,0-0.017,0c0,0-0.001,0-0.002,0
			c-0.004,0-0.009,0-0.014,0c-0.001,0-0.003,0-0.005,0c-0.004,0-0.008,0-0.012,0c-0.002,0-0.004,0-0.005,0c-0.005,0-0.01,0-0.015,0
			c0,0-0.001,0-0.002,0c-0.006,0-0.011,0-0.017,0c-0.001,0-0.003,0-0.004,0c-0.004,0-0.008,0-0.012,0c-0.002,0-0.004,0-0.005,0
			c-0.004,0-0.008,0-0.012,0c-0.002,0-0.003,0-0.005,0c-0.005,0-0.011,0-0.016,0c-0.001,0-0.002,0-0.004,0c-0.004,0-0.009,0-0.013,0
			c-0.002,0-0.004,0-0.006,0c-0.004,0-0.008,0-0.011,0c-0.002,0-0.004,0-0.005,0C166.495,6.52,166.489,6.52,166.484,6.52
			L166.484,6.52z"/>
	</g>
	<rect x="28.755" y="31.189" fill="#F8B133" width="125.457" height="86.482"/>
	<line fill="none" stroke="#D9D9D9" stroke-width="8" stroke-miterlimit="10" x1="154.212" y1="138.981" x2="28.755" y2="138.981"/>
	<line fill="none" stroke="#D9D9D9" stroke-width="8" stroke-miterlimit="10" x1="154.212" y1="158.45" x2="28.755" y2="158.45"/>
	<line fill="none" stroke="#D9D9D9" stroke-width="8" stroke-miterlimit="10" x1="91.483" y1="177.917" x2="28.755" y2="177.917"/>
</g>
<g>
	<g>
		<circle fill="#E84E1B" cx="165.822" cy="32.667" r="26"/>
	</g>
	<polygon fill="#FFFFFF" points="176.284,21.318 161.735,35.867 155.36,29.496 151.286,33.568 157.661,39.943 161.735,44.015 
		180.358,25.392 	"/>
</g>
<path fill="#F08336" d="M121.317,62.125c0-8.238-6.679-14.916-14.917-14.916s-14.917,6.678-14.917,14.916
	c0-8.238-6.679-14.916-14.917-14.916s-14.917,6.678-14.917,14.916c0,23.887,29.834,41.526,29.834,41.526
	S121.317,86.012,121.317,62.125z"/>
<g>
	<g>
		<circle fill="#E84E1B" cx="285.89" cy="32.667" r="26"/>
	</g>
	<polygon fill="#FFFFFF" points="296.352,21.318 281.803,35.867 275.428,29.496 271.354,33.568 277.729,39.943 281.803,44.015 
		300.426,25.392 	"/>
</g>
</svg>
