<?xml version="1.0" encoding="utf-8"?>
<!-- Generator: Adobe Illustrator 15.0.0, SVG Export Plug-In . SVG Version: 6.00 Build 0)  -->
<!DOCTYPE svg PUBLIC "-//W3C//DTD SVG 1.1//EN" "http://www.w3.org/Graphics/SVG/1.1/DTD/svg11.dtd">
<svg version="1.1" id="Layer_1" xmlns="http://www.w3.org/2000/svg" xmlns:xlink="http://www.w3.org/1999/xlink" x="0px" y="0px"
	 width="234px" height="279.333px" viewBox="0 0 234 279.333" enable-background="new 0 0 234 279.333" xml:space="preserve">
<g>
	<path fill="#ECECEC" d="M128.74,272.864c-5.7,0-10.338-4.639-10.338-10.34v-77.711c0-5.701,4.638-10.34,10.338-10.34h60.334
		c5.7,0,10.339,4.639,10.339,10.34v77.711c0,5.701-4.639,10.34-10.339,10.34H128.74z"/>
	<path fill="#D9D9D9" d="M189.074,175.473c5.149,0,9.339,4.189,9.339,9.34v77.711c0,5.15-4.189,9.34-9.339,9.34H128.74
		c-5.149,0-9.339-4.189-9.339-9.34v-77.711c0-5.15,4.189-9.34,9.339-9.34H189.074 M189.074,173.473H128.74
		c-6.235,0-11.338,5.104-11.338,11.34v77.711c0,6.236,5.103,11.34,11.338,11.34h60.334c6.235,0,11.339-5.104,11.339-11.34v-77.711
		C200.413,178.577,195.309,173.473,189.074,173.473L189.074,173.473z"/>
</g>
<g>
	<path fill="#ECECEC" d="M118.74,272.864c-5.701,0-10.338-4.639-10.338-10.34v-77.711c0-5.701,4.638-10.34,10.338-10.34h60.334
		c5.7,0,10.339,4.639,10.339,10.34v77.711c0,5.701-4.639,10.34-10.339,10.34H118.74z"/>
	<path fill="#D9D9D9" d="M179.074,175.473c5.149,0,9.339,4.189,9.339,9.34v77.711c0,5.15-4.189,9.34-9.339,9.34H118.74
		c-5.149,0-9.338-4.189-9.338-9.34v-77.711c0-5.15,4.189-9.34,9.338-9.34H179.074 M179.074,173.473H118.74
		c-6.236,0-11.338,5.104-11.338,11.34v77.711c0,6.236,5.103,11.34,11.338,11.34h60.334c6.235,0,11.339-5.104,11.339-11.34v-77.711
		C190.413,178.577,185.309,173.473,179.074,173.473L179.074,173.473z"/>
</g>
<g>
	<path fill="#ECECEC" d="M108.74,272.864c-5.701,0-10.338-4.639-10.338-10.34v-77.711c0-5.701,4.638-10.34,10.338-10.34h60.334
		c5.7,0,10.339,4.639,10.339,10.34v77.711c0,5.701-4.639,10.34-10.339,10.34H108.74z"/>
	<path fill="#D9D9D9" d="M169.074,175.473c5.149,0,9.339,4.189,9.339,9.34v77.711c0,5.15-4.189,9.34-9.339,9.34H108.74
		c-5.149,0-9.338-4.189-9.338-9.34v-77.711c0-5.15,4.189-9.34,9.338-9.34H169.074 M169.074,173.473H108.74
		c-6.236,0-11.338,5.104-11.338,11.34v77.711c0,6.236,5.103,11.34,11.338,11.34h60.334c6.235,0,11.339-5.104,11.339-11.34v-77.711
		C180.413,178.577,175.309,173.473,169.074,173.473L169.074,173.473z"/>
</g>
<g>
	<path fill="#ECECEC" d="M98.74,272.864c-5.701,0-10.338-4.639-10.338-10.34v-77.711c0-5.701,4.638-10.34,10.338-10.34h60.334
		c5.7,0,10.339,4.639,10.339,10.34v77.711c0,5.701-4.639,10.34-10.339,10.34H98.74z"/>
	<path fill="#D9D9D9" d="M159.074,175.473c5.149,0,9.339,4.189,9.339,9.34v77.711c0,5.15-4.189,9.34-9.339,9.34H98.74
		c-5.149,0-9.338-4.189-9.338-9.34v-77.711c0-5.15,4.189-9.34,9.338-9.34H159.074 M159.074,173.473H98.74
		c-6.236,0-11.338,5.104-11.338,11.34v77.711c0,6.236,5.103,11.34,11.338,11.34h60.334c6.235,0,11.339-5.104,11.339-11.34v-77.711
		C170.413,178.577,165.309,173.473,159.074,173.473L159.074,173.473z"/>
</g>
<circle fill="#D099C4" cx="63.388" cy="34.928" r="28.93"/>
<circle fill="#E84E1B" cx="171.836" cy="118.202" r="28.93"/>
<text transform="matrix(0.9502 0.3118 -0.3118 0.9502 49.6489 47.3096)" fill="#FFFFFF" font-family="'Impact'" font-size="40">1</text>
<text transform="matrix(0.8912 -0.4537 0.4537 0.8912 171.0278 135.7998)" fill="#FFFFFF" font-family="'Impact'" font-size="40">2</text>
<polyline fill="none" stroke="#C6C6C5" stroke-width="2" stroke-miterlimit="10" points="165.151,67.02 160.52,75.064 
	152.473,70.432 "/>
<path fill="none" stroke="#C6C6C5" stroke-width="2" stroke-miterlimit="10" stroke-dasharray="5" d="M160.354,74.457
	c-7.182-26.679-34.633-42.487-61.314-35.306"/>
<path fill="none" stroke="#C6C6C5" stroke-width="2" stroke-miterlimit="10" stroke-dasharray="5" d="M132.918,113.118
	c-27.629,0-50.03,22.398-50.03,50.029"/>
<polyline fill="none" stroke="#C6C6C5" stroke-width="2" stroke-miterlimit="10" points="89.453,154.274 82.89,160.838 
	76.324,154.274 "/>
<rect x="103.616" y="185.333" fill="#D9D9D9" width="55.291" height="41.574"/>
<line fill="none" stroke="#D9D9D9" stroke-width="5" stroke-miterlimit="10" x1="158.907" y1="237.151" x2="103.616" y2="237.151"/>
<line fill="none" stroke="#D9D9D9" stroke-width="5" stroke-miterlimit="10" x1="158.907" y1="246.151" x2="103.616" y2="246.151"/>
<line fill="none" stroke="#D9D9D9" stroke-width="5" stroke-miterlimit="10" x1="131.262" y1="255.151" x2="103.616" y2="255.151"/>
<g>
	<path fill="#FFFFFF" d="M44.796,272.864c-5.701,0-10.338-4.639-10.338-10.34v-77.711c0-5.701,4.638-10.34,10.338-10.34h60.334
		c5.701,0,10.338,4.639,10.338,10.34v77.711c0,5.701-4.638,10.34-10.338,10.34H44.796z"/>
	<path fill="#D9D9D9" d="M105.13,175.473c5.149,0,9.338,4.189,9.338,9.34v77.711c0,5.15-4.189,9.34-9.338,9.34H44.796
		c-5.149,0-9.338-4.189-9.338-9.34v-77.711c0-5.15,4.189-9.34,9.338-9.34H105.13 M105.13,173.473H44.796
		c-6.236,0-11.338,5.104-11.338,11.34v77.711c0,6.236,5.103,11.34,11.338,11.34h60.334c6.236,0,11.338-5.104,11.338-11.34v-77.711
		C116.469,178.577,111.366,173.473,105.13,173.473L105.13,173.473z"/>
</g>
<g>
	
		<rect x="59.21" y="219.123" transform="matrix(-0.7071 0.7071 -0.7071 -0.7071 294.72 325.2552)" fill="#F8B133" width="41.565" height="9.096"/>
	
		<rect x="53.155" y="222.36" transform="matrix(0.7071 0.7071 -0.7071 0.7071 178.1093 23.8492)" fill="#F8B133" width="14.227" height="9.093"/>
</g>
</svg>
