<?xml version="1.0" encoding="utf-8"?>
<!-- Generator: Adobe Illustrator 15.0.0, SVG Export Plug-In . SVG Version: 6.00 Build 0)  -->
<!DOCTYPE svg PUBLIC "-//W3C//DTD SVG 1.1//EN" "http://www.w3.org/Graphics/SVG/1.1/DTD/svg11.dtd">
<svg version="1.1" id="Layer_1" xmlns="http://www.w3.org/2000/svg" xmlns:xlink="http://www.w3.org/1999/xlink" x="0px" y="0px"
	 width="309px" height="279.333px" viewBox="-46.5 0 309 279.333" enable-background="new -46.5 0 309 279.333"
	 xml:space="preserve">
<g>
	<path fill="#F5F5F5" d="M86.051,271.669c-5.701,0-10.338-4.638-10.338-10.339V16.505c0-5.701,4.638-10.338,10.338-10.338h150
		c5.701,0,10.339,4.638,10.339,10.338v244.826c0,5.701-4.638,10.339-10.339,10.339H86.051z"/>
	<path fill="#D9D9D9" d="M236.052,7.167c5.149,0,9.339,4.189,9.339,9.338v244.826c0,5.149-4.189,9.339-9.339,9.339h-150
		c-5.149,0-9.338-4.189-9.338-9.339V16.505c0-5.149,4.189-9.338,9.338-9.338H236.052 M236.052,5.167h-150
		c-6.236,0-11.338,5.103-11.338,11.338v244.826c0,6.236,5.103,11.339,11.338,11.339h150c6.236,0,11.339-5.103,11.339-11.339V16.505
		C247.391,10.269,242.288,5.167,236.052,5.167L236.052,5.167z"/>
</g>
<rect x="98.323" y="36.766" fill="#E84E1B" width="125.457" height="110.78"/>
<line fill="none" stroke="#D9D9D9" stroke-width="8" stroke-miterlimit="10" x1="223.78" y1="174.843" x2="98.323" y2="174.843"/>
<line fill="none" stroke="#D9D9D9" stroke-width="8" stroke-miterlimit="10" x1="223.78" y1="199.782" x2="98.323" y2="199.782"/>
<line fill="none" stroke="#D9D9D9" stroke-width="8" stroke-miterlimit="10" x1="161.052" y1="224.718" x2="98.323" y2="224.718"/>
<g>
	<path fill="#F5F5F5" d="M53.051,271.669c-5.701,0-10.338-4.638-10.338-10.339V16.505c0-5.701,4.638-10.338,10.338-10.338h150
		c5.701,0,10.339,4.638,10.339,10.338v244.826c0,5.701-4.638,10.339-10.339,10.339H53.051z"/>
	<path fill="#D9D9D9" d="M203.052,7.167c5.149,0,9.339,4.189,9.339,9.338v244.826c0,5.149-4.189,9.339-9.339,9.339h-150
		c-5.149,0-9.338-4.189-9.338-9.339V16.505c0-5.149,4.189-9.338,9.338-9.338H203.052 M203.052,5.167h-150
		c-6.236,0-11.338,5.103-11.338,11.338v244.826c0,6.236,5.103,11.339,11.338,11.339h150c6.236,0,11.339-5.103,11.339-11.339V16.505
		C214.391,10.269,209.288,5.167,203.052,5.167L203.052,5.167z"/>
</g>
<rect x="65.323" y="36.766" fill="#F8B133" width="125.457" height="110.78"/>
<line fill="none" stroke="#D9D9D9" stroke-width="8" stroke-miterlimit="10" x1="190.78" y1="174.843" x2="65.323" y2="174.843"/>
<line fill="none" stroke="#D9D9D9" stroke-width="8" stroke-miterlimit="10" x1="190.78" y1="199.782" x2="65.323" y2="199.782"/>
<line fill="none" stroke="#D9D9D9" stroke-width="8" stroke-miterlimit="10" x1="128.052" y1="224.718" x2="65.323" y2="224.718"/>
<g>
	<path fill="#F5F5F5" d="M20.051,271.669c-5.701,0-10.338-4.638-10.338-10.339V16.505c0-5.701,4.638-10.338,10.338-10.338h150
		c5.701,0,10.339,4.638,10.339,10.338v244.826c0,5.701-4.638,10.339-10.339,10.339H20.051z"/>
	<path fill="#D9D9D9" d="M170.052,7.167c5.149,0,9.339,4.189,9.339,9.338v244.826c0,5.149-4.189,9.339-9.339,9.339h-150
		c-5.149,0-9.338-4.189-9.338-9.339V16.505c0-5.149,4.189-9.338,9.338-9.338H170.052 M170.052,5.167h-150
		c-6.236,0-11.338,5.103-11.338,11.338v244.826c0,6.236,5.103,11.339,11.338,11.339h150c6.236,0,11.339-5.103,11.339-11.339V16.505
		C181.391,10.269,176.288,5.167,170.052,5.167L170.052,5.167z"/>
</g>
<rect x="32.323" y="36.766" fill="#8C5889" width="125.457" height="110.78"/>
<line fill="none" stroke="#D9D9D9" stroke-width="8" stroke-miterlimit="10" x1="157.78" y1="174.843" x2="32.323" y2="174.843"/>
<line fill="none" stroke="#D9D9D9" stroke-width="8" stroke-miterlimit="10" x1="157.78" y1="199.782" x2="32.323" y2="199.782"/>
<line fill="none" stroke="#D9D9D9" stroke-width="8" stroke-miterlimit="10" x1="95.052" y1="224.718" x2="32.323" y2="224.718"/>
<g>
	<path fill="#F5F5F5" d="M-13.949,271.669c-5.701,0-10.338-4.638-10.338-10.339V16.505c0-5.701,4.638-10.338,10.338-10.338h150
		c5.701,0,10.339,4.638,10.339,10.338v244.826c0,5.701-4.638,10.339-10.339,10.339H-13.949z"/>
	<path fill="#D9D9D9" d="M136.052,7.167c5.149,0,9.339,4.189,9.339,9.338v244.826c0,5.149-4.189,9.339-9.339,9.339h-150
		c-5.149,0-9.338-4.189-9.338-9.339V16.505c0-5.149,4.189-9.338,9.338-9.338H136.052 M136.052,5.167h-150
		c-6.236,0-11.338,5.103-11.338,11.338v244.826c0,6.236,5.103,11.339,11.338,11.339h150c6.236,0,11.339-5.103,11.339-11.339V16.505
		C147.391,10.269,142.288,5.167,136.052,5.167L136.052,5.167z"/>
</g>
<rect x="-1.677" y="36.766" fill="#D099C4" width="125.457" height="110.78"/>
<line fill="none" stroke="#D9D9D9" stroke-width="8" stroke-miterlimit="10" x1="123.78" y1="174.843" x2="-1.677" y2="174.843"/>
<line fill="none" stroke="#D9D9D9" stroke-width="8" stroke-miterlimit="10" x1="123.78" y1="199.782" x2="-1.677" y2="199.782"/>
<line fill="none" stroke="#D9D9D9" stroke-width="8" stroke-miterlimit="10" x1="61.052" y1="224.718" x2="-1.677" y2="224.718"/>
<g>
	<path fill="#8C5889" d="M101.039,99.34c4.415,4.415,4.414,11.639,0,16.052l-18.484,18.486c-4.414,4.413-11.637,4.413-16.051-0.001
		l-18.996-18.996c-4.414-4.414-4.414-11.639-0.001-16.052l18.484-18.484c4.413-4.413,11.638-4.415,16.053,0L101.039,99.34z"/>
	<path fill="#8C5889" d="M53.825,107.335c1.471,1.472,1.471,3.88-0.001,5.352l-1.579,1.579c-1.473,1.473-3.881,1.473-5.352,0.001
		L15.671,83.044c-1.474-1.473-1.473-3.88,0-5.353l1.579-1.579c1.472-1.472,3.879-1.473,5.353,0L53.825,107.335z"/>
	<path fill="#8C5889" d="M63.025,98.134c1.472,1.472,1.473,3.879,0.002,5.35l-1.582,1.582c-1.472,1.472-3.879,1.471-5.35,0
		L24.873,73.842c-1.473-1.473-1.473-3.88-0.002-5.352l1.582-1.58c1.472-1.472,3.878-1.472,5.35,0.001L63.025,98.134z"/>
	<path fill="#8C5889" d="M72.229,88.932c1.471,1.471,1.472,3.879-0.002,5.353l-1.58,1.58c-1.471,1.471-3.879,1.47-5.35,0
		L34.074,64.642c-1.473-1.473-1.473-3.88-0.001-5.353l1.579-1.58c1.473-1.472,3.881-1.472,5.354,0L72.229,88.932z"/>
	<path fill="#8C5889" d="M81.43,79.731c1.471,1.472,1.472,3.879,0,5.351l-1.581,1.581c-1.472,1.472-3.879,1.471-5.351-0.001
		L43.275,55.439c-1.473-1.473-1.474-3.879-0.001-5.35l1.58-1.582c1.472-1.472,3.879-1.472,5.353,0.001L81.43,79.731z"/>
	<path fill="#8C5889" d="M105.182,82.775c1.117,1.755,0.599,4.106-1.156,5.224l-1.885,1.204c-1.756,1.119-4.105,0.601-5.224-1.157
		L79.418,60.614c-1.119-1.754-0.599-4.104,1.154-5.225l1.886-1.203c1.754-1.118,4.104-0.599,5.224,1.156L105.182,82.775z"/>
	<path fill="#D099C4" d="M80.943,89.701c-3.324-3.323-8.714-3.322-12.038,0.001c-3.325,3.325-3.326,8.715-0.002,12.039
		c-3.324-3.324-8.714-3.323-12.038,0.002c-3.325,3.325-3.325,8.714-0.002,12.037c9.641,9.641,28.799,4.72,28.799,4.72
		S90.582,99.34,80.943,89.701z"/>
</g>
<path fill="none" stroke="#B1B1B1" stroke-width="2" stroke-miterlimit="10" stroke-dasharray="5" d="M252.927,160.125
	c0,0,39.285,28.86-166.448,32.299c-144.846,2.422-132.989-30.378-113.701-29.891"/>
<path fill="none" stroke="#B1B1B1" stroke-width="2" stroke-miterlimit="10" stroke-dasharray="5" d="M76.828,196.917
	c-2.828,29.5,25.521,26.5,16.224,53"/>
<path fill="none" stroke="#B1B1B1" stroke-width="2" stroke-miterlimit="10" stroke-dasharray="5" d="M76.828,214.667
	c2.828,26.08-14.794,17.571-5.496,41"/>
</svg>
