<?xml version="1.0" encoding="utf-8"?>
<!-- Generator: Adobe Illustrator 15.0.0, SVG Export Plug-In . SVG Version: 6.00 Build 0)  -->
<!DOCTYPE svg PUBLIC "-//W3C//DTD SVG 1.1//EN" "http://www.w3.org/Graphics/SVG/1.1/DTD/svg11.dtd">
<svg version="1.1" id="Layer_1" xmlns="http://www.w3.org/2000/svg" xmlns:xlink="http://www.w3.org/1999/xlink" x="0px" y="0px"
	 width="234px" height="279.333px" viewBox="0 0 234 279.333" enable-background="new 0 0 234 279.333" xml:space="preserve">
<g>
	<path fill="#FFFFFF" d="M24.34,272.15c-8.827,0-16.008-7.181-16.008-16.008V23.26c0-8.827,7.181-16.008,16.008-16.008h186.679
		c8.827,0,16.008,7.181,16.008,16.008v232.882c0,8.827-7.181,16.008-16.008,16.008H24.34z"/>
	<path fill="#D9D9D9" d="M211.019,8.252c8.275,0,15.008,6.732,15.008,15.008v232.882c0,8.275-6.732,15.008-15.008,15.008H24.34
		c-8.275,0-15.008-6.732-15.008-15.008V23.26c0-8.275,6.732-15.008,15.008-15.008H211.019 M211.019,6.252H24.34
		c-9.354,0-17.008,7.654-17.008,17.008v232.882c0,9.354,7.653,17.008,17.008,17.008h186.679c9.354,0,17.008-7.653,17.008-17.008
		V23.26C228.027,13.906,220.374,6.252,211.019,6.252L211.019,6.252z"/>
</g>
<path fill="#E84E1B" d="M52.667,66.663c0-2.793-2.158-1.881-3.107-6.998c-0.393-2.123-2.3-0.033-2.664-4.879
	c0-1.933,1.041-2.412,1.041-2.412s-0.529-2.857-0.736-5.058c-0.258-2.739,1.584-9.821,11.397-9.821s11.653,7.082,11.397,9.821
	c-0.208,2.2-0.736,5.058-0.736,5.058s1.041,0.479,1.041,2.412c-0.365,4.846-2.272,2.756-2.666,4.879
	c-0.947,5.117-3.107,4.205-3.107,6.998c0,4.654,2.261,6.828,9.332,9.406c1.173,0.427,2.27,0.856,3.297,1.282
	c6.338-5.307,10.372-13.276,10.372-22.189c0-15.978-12.951-28.93-28.93-28.93c-15.978,0-28.93,12.952-28.93,28.93
	c0,8.913,4.034,16.882,10.372,22.189c1.027-0.426,2.124-0.854,3.297-1.282C50.408,73.491,52.667,71.317,52.667,66.663z"/>
<rect x="103.027" y="39.723" fill="#B1B1B1" width="105" height="5.543"/>
<rect x="103.027" y="52.723" fill="#B1B1B1" width="105" height="5.543"/>
<rect x="103.027" y="65.723" fill="#B1B1B1" width="52.5" height="5.543"/>
<path fill="#D099C4" d="M52.667,151.663c0-2.793-2.158-1.881-3.107-6.998c-0.393-2.123-2.3-0.033-2.664-4.879
	c0-1.933,1.041-2.412,1.041-2.412s-0.529-2.857-0.736-5.058c-0.258-2.739,1.584-9.821,11.397-9.821s11.653,7.082,11.397,9.821
	c-0.208,2.2-0.736,5.058-0.736,5.058s1.041,0.479,1.041,2.412c-0.365,4.846-2.272,2.756-2.666,4.879
	c-0.947,5.117-3.107,4.205-3.107,6.998c0,4.654,2.261,6.828,9.332,9.406c1.173,0.428,2.27,0.855,3.297,1.282
	c6.338-5.308,10.372-13.276,10.372-22.189c0-15.978-12.951-28.93-28.93-28.93c-15.978,0-28.93,12.952-28.93,28.93
	c0,8.913,4.034,16.882,10.372,22.189c1.027-0.427,2.124-0.854,3.297-1.282C50.408,158.491,52.667,156.317,52.667,151.663z"/>
<rect x="103.027" y="124.723" fill="#B1B1B1" width="105" height="5.543"/>
<rect x="103.027" y="137.723" fill="#B1B1B1" width="105" height="5.543"/>
<rect x="103.027" y="150.723" fill="#B1B1B1" width="52.5" height="5.543"/>
<circle fill="#F8B133" cx="58.597" cy="226.162" r="28.93"/>
<rect x="103.027" y="210.723" fill="#B1B1B1" width="105" height="5.543"/>
<rect x="103.027" y="223.723" fill="#B1B1B1" width="105" height="5.543"/>
<rect x="103.027" y="236.723" fill="#B1B1B1" width="52.5" height="5.543"/>
<line fill="#D9D9D9" stroke="#D9D9D9" stroke-width="2" stroke-miterlimit="10" stroke-dasharray="5" x1="28.027" y1="97.725" x2="207.027" y2="97.725"/>
<line fill="#D9D9D9" stroke="#D9D9D9" stroke-width="2" stroke-miterlimit="10" stroke-dasharray="5" x1="28.027" y1="182.725" x2="207.027" y2="182.725"/>
<rect x="55.826" y="213.496" fill="#FFFFFF" width="5.543" height="25.333"/>
<rect x="45.93" y="223.39" fill="#FFFFFF" width="25.334" height="5.543"/>
</svg>
